<?xml version="1.0" encoding="UTF-8"?>
<svg version="1.1" xmlns="http://www.w3.org/2000/svg" width="299" height="397">
<path d="M0 0 C98.67 0 197.34 0 299 0 C299 131.01 299 262.02 299 397 C200.33 397 101.66 397 0 397 C0 265.99 0 134.98 0 0 Z " fill="#FEFEFE" transform="translate(0,0)"/>
<path d="M0 0 C98.67 0 197.34 0 299 0 C299 131.01 299 262.02 299 397 C200.33 397 101.66 397 0 397 C0 265.99 0 134.98 0 0 Z M23 23 C22.25543002 25.77512971 22.25543002 25.77512971 22.37358761 28.91306973 C22.36116557 30.13017209 22.34874353 31.34727445 22.33594507 32.6012587 C22.34744659 33.9537758 22.35941883 35.30628898 22.37181091 36.65879822 C22.36676736 38.09412653 22.35954001 39.52944856 22.35031277 40.96475607 C22.33133553 44.91402399 22.34365457 48.86267504 22.3610357 52.81192768 C22.37437786 57.0690135 22.35898393 61.32600716 22.34721375 65.58308411 C22.32880867 73.9249594 22.33736873 82.26660087 22.35530197 90.60846894 C22.36931324 97.3870477 22.37322395 104.16556289 22.3698597 110.94415474 C22.36938225 111.90799488 22.36890481 112.87183501 22.3684129 113.86488243 C22.36738659 115.82276365 22.36633124 117.78064486 22.36524714 119.73852605 C22.35667416 137.06197763 22.37337395 154.38531616 22.40307617 171.70874023 C22.43191054 188.52617137 22.439 205.3434396 22.42358398 222.16088867 C22.40682956 240.46354107 22.40278022 258.76611606 22.42029434 277.06877047 C22.42213877 279.0198568 22.4239735 280.97094314 22.42579842 282.9220295 C22.42671051 283.88205636 22.4276226 284.84208322 22.42856232 285.8312018 C22.43417278 292.60262432 22.43085575 299.37400913 22.42425346 306.14542961 C22.41652833 314.39622844 22.4232431 322.6468668 22.4484285 330.89763325 C22.46094317 335.10888975 22.46704641 339.31989618 22.45588684 343.53116226 C22.44586807 347.38464836 22.45425303 351.23763507 22.47746802 355.09106023 C22.48264019 356.48670511 22.4810423 357.88239449 22.47207337 359.27802014 C22.4609102 361.17235747 22.47668432 363.06679661 22.49384212 364.96108913 C22.49503361 366.01416364 22.49622509 367.06723815 22.49745268 368.152224 C23.13820468 371.78316201 24.36350848 373.45288235 27 376 C29.06175105 376.73399744 29.06175105 376.73399744 31.30727386 376.62641239 C32.59566784 376.64504545 32.59566784 376.64504545 33.91008997 376.66405493 C34.84899246 376.6522192 35.78789495 376.64038347 36.75524902 376.62818909 C37.75631479 376.63528347 38.75738055 376.64237786 39.78878164 376.64968723 C43.15319463 376.66733118 46.51646214 376.64912907 49.88085938 376.63110352 C52.28872709 376.63623986 54.69659105 376.64351897 57.10444641 376.65278625 C62.97149028 376.66941583 68.83823036 376.66264143 74.70524466 376.64469803 C79.47296922 376.63067893 84.24060337 376.62677772 89.00834656 376.6301403 C89.68661321 376.63061775 90.36487986 376.63109519 91.06370005 376.6315871 C92.44153601 376.63261342 93.81937195 376.63366878 95.19720787 376.63475286 C107.38397995 376.64332275 119.57059126 376.62663568 131.75732422 376.59692383 C143.58584344 376.56808566 155.41413104 376.56100246 167.24267578 376.57641602 C180.11957069 376.59317265 192.99635558 376.59721792 205.87325335 376.57970566 C207.24605336 376.57786125 208.6188534 376.57602652 209.99165344 376.57420158 C210.66711766 376.57328949 211.34258187 376.5723774 212.0385147 376.57143768 C216.80114189 376.56582891 221.56371543 376.56914261 226.32633972 376.57574654 C232.7351264 376.58428016 239.14365394 376.57133783 245.55238914 376.54389763 C247.90826104 376.53699507 250.26416409 376.53693572 252.62003517 376.54411316 C255.82865076 376.55276409 259.03622291 376.53692489 262.24475098 376.5146637 C263.65310471 376.52702485 263.65310471 376.52702485 265.08991003 376.53963572 C270.18700225 376.5201294 270.18700225 376.5201294 274.54720306 374.09283352 C276.79067238 370.86099315 277.12471891 369.09393602 277.12304783 365.19363213 C277.12503888 364.17249852 277.12702993 363.15136492 277.12908131 362.09928787 C277.12471205 360.40379104 277.12471205 360.40379104 277.12025452 358.67404175 C277.12110894 357.47993561 277.12196337 356.28582947 277.12284368 355.0555383 C277.12421039 351.73077567 277.12106849 348.40607136 277.11606562 345.08131576 C277.11176013 341.49985868 277.11320762 337.91840351 277.1139679 334.33694458 C277.11449307 328.12840215 277.11134697 321.91987021 277.10573006 315.71133041 C277.09761415 306.73474757 277.09499974 297.7581698 277.09374207 288.78158368 C277.09155169 274.21880682 277.08489199 259.65603555 277.07543945 245.09326172 C277.06626497 230.94417346 277.05918431 216.79508672 277.05493164 202.64599609 C277.05466892 201.77431883 277.05440619 200.90264157 277.05413551 200.00454985 C277.0528305 195.63174232 277.05156679 191.25893478 277.05032361 186.88612723 C277.03995144 150.59074754 277.02233351 114.2953742 277 78 C275.71424072 77.99589111 274.42848145 77.99178223 273.10375977 77.98754883 C268.30062621 77.96565897 263.4983004 77.91126733 258.69555664 77.84741211 C256.62304467 77.8243178 254.55041677 77.80985665 252.4777832 77.80444336 C249.48576318 77.79509105 246.49554521 77.75396339 243.50390625 77.70703125 C242.58791153 77.7109639 241.67191681 77.71489655 240.72816467 77.71894836 C234.15128718 77.57218018 229.18564232 76.16713617 224 72 C218.74789959 66.4543841 218.26225858 60.73915012 218.29296875 53.375 C218.27784744 52.38749756 218.26272614 51.39999512 218.24714661 50.38256836 C218.20445059 47.25480999 218.19544892 44.12802009 218.1875 41 C218.16434169 38.86846416 218.1389736 36.73695111 218.11132812 34.60546875 C218.04865514 29.40363646 218.01357733 24.20217985 218 19 C193.31346803 18.90660428 168.62696249 18.8360441 143.9402895 18.79275131 C132.47811799 18.77211641 121.01605618 18.743978 109.55395508 18.69824219 C99.56487064 18.65840294 89.57586563 18.63257394 79.58670396 18.62364602 C74.29632783 18.61842636 69.00617899 18.60613884 63.71587563 18.57707977 C58.73776986 18.54995677 53.7599853 18.54154874 48.78181267 18.54756927 C46.95364258 18.54646765 45.1254619 18.53849526 43.29735565 18.5231781 C40.80264366 18.50329864 38.30914701 18.50805288 35.81440735 18.51898193 C35.08969138 18.50733057 34.36497541 18.4956792 33.61829835 18.48367476 C28.74193906 18.541484 26.41150074 19.55377949 23 23 Z " fill="#070707" transform="translate(0,0)"/>
<path d="M0 0 C98.67 0 197.34 0 299 0 C299 131.01 299 262.02 299 397 C200.33 397 101.66 397 0 397 C0 265.99 0 134.98 0 0 Z M12.65716648 16.92567539 C9.75517689 22.53361314 10.44613872 29.04076531 10.4853363 35.18919373 C10.48000818 36.64559525 10.47294096 38.10199127 10.46428925 39.55837685 C10.44567003 43.55199057 10.45196429 47.54523327 10.46244228 51.53886235 C10.46943636 55.8491222 10.45343477 60.159306 10.44044495 64.46954346 C10.41880316 72.91023179 10.4189323 81.35078531 10.42707049 89.79149228 C10.43337046 96.65196841 10.43223348 103.51240522 10.42579842 110.37288094 C10.42489676 111.34932524 10.42399511 112.32576955 10.42306613 113.33180307 C10.42121493 115.3154475 10.41935236 117.29909191 10.41747857 119.28273631 C10.40089945 137.88424806 10.40962024 156.48568397 10.42646415 175.08719117 C10.44116094 192.10453896 10.42653319 209.12171017 10.39769398 226.13903522 C10.36830012 243.6138265 10.3573277 261.08853629 10.36687618 278.56335121 C10.36789873 280.54000189 10.36889334 282.51665259 10.3698597 284.4933033 C10.37033609 285.46584361 10.37081248 286.43838393 10.3713033 287.44039516 C10.37346746 294.2916134 10.36366325 301.14275448 10.34908867 307.99395561 C10.33157149 316.34488762 10.33167384 324.69559452 10.35444032 333.04651766 C10.36558818 337.30683087 10.3687329 341.56674739 10.35013962 345.82704353 C10.33333049 349.72875469 10.33969101 353.6297233 10.36435641 357.53138638 C10.36923876 358.94113194 10.36572636 360.35093743 10.35286897 361.76063281 C10.28534729 369.74104622 10.51224763 375.86163823 16 382 C20.07675823 385.77845885 23.7087127 388.24664991 29.34295273 388.25726891 C30.64332179 388.26694224 30.64332179 388.26694224 31.96996093 388.276811 C32.91780778 388.2737138 33.86565464 388.2706166 34.84222412 388.26742554 C35.85271828 388.27195665 36.86321244 388.27648776 37.90432763 388.28115618 C41.30052232 388.29384678 44.69655761 388.29217679 48.09277344 388.29052734 C50.52370409 388.29650973 52.95463285 388.30331461 55.38555908 388.31088257 C61.3099891 388.32674095 67.23438156 388.33299232 73.15882847 388.33410732 C77.97560423 388.33505777 82.79236687 388.3391679 87.60913849 388.34550858 C101.2686943 388.36312337 114.92821868 388.37234727 128.58778593 388.37084763 C129.69240318 388.37072776 129.69240318 388.37072776 130.81933594 388.37060547 C131.55664791 388.37052371 132.29395989 388.37044195 133.05361465 388.37035771 C144.99815094 388.36954511 156.94256105 388.38867544 168.88706085 388.4168822 C181.15464973 388.44562301 193.4221771 388.45942179 205.6898005 388.45769465 C212.5758651 388.45703108 219.46179747 388.46250863 226.34783173 388.48405075 C232.82553596 388.50418561 239.30303318 388.50357652 245.78075409 388.48901749 C248.15753588 388.48692472 250.53433502 388.49165799 252.91108704 388.5037384 C256.15766721 388.51917021 259.40328198 388.50989538 262.64984131 388.49447632 C264.05822726 388.50990701 264.05822726 388.50990701 265.49506545 388.52564943 C273.02573732 388.44670198 278.13769481 386.42673701 283.875 381.5625 C287.26339119 377.47649886 288.24850912 373.93569268 288.26285553 368.67783737 C288.27053782 367.61796356 288.27822011 366.55808975 288.2861352 365.46609855 C288.28440223 364.3078445 288.28266927 363.14959045 288.28088379 361.95623779 C288.28682603 360.7209994 288.29276828 359.485761 288.29889059 358.21309114 C288.31323804 354.7870249 288.31860816 351.36115927 288.32008553 347.93507743 C288.32379144 344.23895766 288.33888849 340.54288118 288.35235596 336.8467865 C288.37950345 328.76616351 288.39156887 320.6855604 288.40037727 312.60489941 C288.40590506 307.5582328 288.41438027 302.51157385 288.42338562 297.46491241 C288.44776787 283.4888698 288.46836749 269.51283329 288.4751358 255.53676987 C288.47557494 254.64252332 288.47601407 253.74827678 288.47646651 252.82693185 C288.47690306 251.93056224 288.47733962 251.03419264 288.4777894 250.11066031 C288.47867633 248.2943139 288.47956946 246.4779675 288.48046875 244.66162109 C288.48091161 243.76065312 288.48135447 242.85968515 288.48181075 241.93141511 C288.48970652 227.3330708 288.52461518 212.73492617 288.57118779 198.136659 C288.61863031 183.14457476 288.64354018 168.1525907 288.64587164 153.16043019 C288.64770425 144.74454575 288.65918588 136.32892153 288.69551086 127.91310883 C288.72633393 120.74681012 288.73654175 113.58085207 288.72003466 106.41449967 C288.71222872 102.75951224 288.71404306 99.10521058 288.74214935 95.45030785 C288.77237232 91.48380945 288.75587352 87.51827246 288.73498535 83.55169678 C288.75109816 82.40236562 288.76721097 81.25303445 288.78381205 80.06887507 C288.65426053 69.54817044 284.08198608 63.70434713 276.80834961 56.43603516 C276.32782639 55.95186127 275.84730316 55.46768738 275.35221863 54.96884155 C273.79283686 53.40148181 272.2230519 51.8450645 270.65234375 50.2890625 C269.55137328 49.18861187 268.45092375 48.08763984 267.35096741 46.98617554 C265.05857185 44.69386911 262.76115306 42.40676391 260.4597168 40.12353516 C257.51691627 37.20351378 254.5854196 34.27244581 251.65735531 31.33765602 C249.39203837 29.06899302 247.12175417 26.80535551 244.84985542 24.54328537 C243.76690871 23.46417286 242.68528913 22.38372672 241.60505486 21.30189896 C240.09566178 19.79213344 238.57991111 18.28905177 237.06225586 16.78759766 C236.20321152 15.93316071 235.34416718 15.07872375 234.45909119 14.19839478 C229.31070302 9.59580431 225.45551795 8.5590614 218.61854553 8.60559082 C217.77729502 8.59949972 216.9360445 8.59340861 216.06930155 8.58713293 C213.25187415 8.57049077 210.4348981 8.57528046 207.61743164 8.58007812 C205.59689362 8.57273854 203.57635979 8.56415264 201.55583191 8.55441284 C196.06825976 8.53217745 190.58083768 8.52926715 185.09322667 8.53116035 C180.51306778 8.53127995 175.9329408 8.52272024 171.35279077 8.51438284 C160.54840466 8.49514177 149.74409582 8.49226766 138.93969727 8.49902344 C127.79071299 8.50566632 116.64205939 8.48279136 105.49314219 8.44570971 C95.92273138 8.41503229 86.35242706 8.40365052 76.78196806 8.40754652 C71.06518214 8.40961589 65.34865354 8.40410543 59.63191414 8.37965393 C54.25638955 8.35742164 48.88140341 8.35923557 43.50587654 8.37958145 C41.53300561 8.38299762 39.56009868 8.3778764 37.58727646 8.36359787 C34.89370006 8.34544788 32.20195864 8.35812214 29.50843811 8.37854004 C28.72779041 8.36602219 27.94714271 8.35350434 27.14283901 8.34060717 C19.98656318 8.45690307 16.94935189 11.56569521 12.65716648 16.92567539 Z " fill="#FEFEFE" transform="translate(0,0)"/>
<path d="M0 0 C1.66836486 1.45639025 3.33519136 2.91454594 5 4.375 C5.73605469 4.9215625 6.47210938 5.468125 7.23046875 6.03125 C10.74835654 8.67142127 11.86222471 9.56212577 12.625 14.0625 C12 17.375 12 17.375 10.8125 19.3125 C8.30272392 20.78374805 6.88604909 20.74307583 4 20.375 C1.59765625 18.50390625 1.59765625 18.50390625 -0.9375 15.9375 C-17.85547457 -0.35452989 -41.74298046 -10.13382507 -65.25 -9.875 C-66.627323 -9.86267334 -66.627323 -9.86267334 -68.0324707 -9.85009766 C-93.03977248 -9.44219113 -115.71536634 -1.19453996 -133.95703125 16.24609375 C-138.32026734 20.36217486 -138.32026734 20.36217486 -142.3125 20.4375 C-145 19.375 -145 19.375 -147 16.375 C-147.46451365 13.21018175 -147.35010971 11.87076259 -145.48828125 9.234375 C-106.78030797 -28.29220592 -42.90281455 -34.82561345 0 0 Z " fill="#080808" transform="translate(217,269.625)"/>
<path d="M0 0 C5.03611475 1.04523136 7.73698535 4.13192317 11.3125 7.6875 C12.06789062 8.42871094 12.82328125 9.16992188 13.6015625 9.93359375 C15.52138172 11.83645343 17.42391361 13.75370808 19.3125 15.6875 C22.24103687 14.37759365 24.18265993 13.0175431 26.3359375 10.6484375 C26.8825 10.06835938 27.4290625 9.48828125 27.9921875 8.890625 C29.12270374 7.67154297 30.24514425 6.44492202 31.359375 5.2109375 C35.54178865 0.81253065 35.54178865 0.81253065 39.5390625 0.1640625 C42.3125 0.6875 42.3125 0.6875 45.3125 2.6875 C45.96875 5.81640625 45.96875 5.81640625 45.3125 9.6875 C43.15069286 12.70018371 40.53715047 15.12372178 37.8125 17.625 C36.73935547 18.65077148 36.73935547 18.65077148 35.64453125 19.69726562 C33.88194695 21.37759599 32.10519461 23.0394288 30.3125 24.6875 C31.58571659 27.48684525 32.88773633 29.49947577 35.09765625 31.6328125 C35.62810547 32.15230469 36.15855469 32.67179687 36.70507812 33.20703125 C37.25615234 33.73683594 37.80722656 34.26664063 38.375 34.8125 C45.2053658 41.42867314 45.2053658 41.42867314 45.5625 45.625 C45.3125 48.6875 45.3125 48.6875 44.125 50.5625 C41.65810153 52.09367836 40.18391516 52.00237965 37.3125 51.6875 C35.27612305 50.21875 35.27612305 50.21875 33.32421875 48.1875 C32.61845703 47.465625 31.91269531 46.74375 31.18554688 46 C30.46431641 45.236875 29.74308594 44.47375 29 43.6875 C28.25943359 42.924375 27.51886719 42.16125 26.75585938 41.375 C24.92966844 39.48989968 23.11614241 37.59414431 21.3125 35.6875 C18.40159619 36.99305095 16.44465821 38.34800972 14.2890625 40.69140625 C13.7425 41.26697266 13.1959375 41.84253906 12.6328125 42.43554688 C11.50428241 43.64338611 10.38183952 44.85694223 9.265625 46.07617188 C6.51477438 48.95294171 4.91170229 50.51214104 1.015625 51.65234375 C-1.6875 51.6875 -1.6875 51.6875 -3.5625 50.6875 C-5.39519449 47.42937646 -5.2029869 45.38929358 -4.6875 41.6875 C-2.53341493 38.66999143 0.08849838 36.25068257 2.8125 33.75 C3.52792969 33.06615234 4.24335938 32.38230469 4.98046875 31.67773438 C6.74305305 29.99740401 8.51980539 28.3355712 10.3125 26.6875 C9.00514381 23.77610775 7.63894569 21.80060501 5.30859375 19.62890625 C4.44524414 18.80229492 4.44524414 18.80229492 3.56445312 17.95898438 C2.35469071 16.81954184 1.14113482 15.68411353 -0.07617188 14.55273438 C-4.46041491 10.3357913 -4.46041491 10.3357913 -5.65625 6.921875 C-5.6875 4.6875 -5.6875 4.6875 -4.625 2.375 C-2.6875 0.6875 -2.6875 0.6875 0 0 Z " fill="#080808" transform="translate(183.6875,164.3125)"/>
<path d="M0 0 C3.11483992 2.35726922 5.71345706 5.15075331 8.375 8 C9.11105469 8.763125 9.84710938 9.52625 10.60546875 10.3125 C12.41789848 12.19554387 14.21486682 14.09111959 16 16 C21.23757128 11.65157802 25.88738733 7.01515622 30.47265625 1.9765625 C33 0 33 0 36.19140625 -0.36328125 C39 0 39 0 40.875 1.1875 C42.40617836 3.65439847 42.31487965 5.12858484 42 8 C40.53125 10.03637695 40.53125 10.03637695 38.5 11.98828125 C37.778125 12.69404297 37.05625 13.39980469 36.3125 14.12695312 C35.549375 14.84818359 34.78625 15.56941406 34 16.3125 C33.236875 17.05306641 32.47375 17.79363281 31.6875 18.55664062 C29.80239968 20.38283156 27.90664431 22.19635759 26 24 C27.34920372 27.05717204 28.80942172 28.98527186 31.29296875 31.20703125 C31.92267578 31.79419922 32.55238281 32.38136719 33.20117188 32.98632812 C34.52595876 34.20429837 35.86201971 35.41011795 37.20898438 36.60351562 C41.9734289 41.10299619 41.9734289 41.10299619 42.11328125 45.82421875 C41 49 41 49 38 51 C34.702348 51.11948014 32.70795162 50.56069037 30.11035156 48.50341797 C28.04630911 46.53875534 26.07748636 44.51296273 24.125 42.4375 C23.43664062 41.72658203 22.74828125 41.01566406 22.0390625 40.28320312 C20.34750087 38.53290672 18.66872942 36.77203172 17 35 C13.94272509 36.35089857 11.99523935 37.82209208 9.7578125 40.29296875 C9.16613281 40.92267578 8.57445313 41.55238281 7.96484375 42.20117188 C6.73601137 43.52784122 5.51722962 44.86388962 4.30859375 46.20898438 C2.60860811 47.99931632 1.02821058 49.59098145 -1 51 C-4.3203125 51.05078125 -4.3203125 51.05078125 -7 50 C-9 48 -9 48 -9.59765625 45.3515625 C-8.67554367 40.1804998 -5.2386246 37.79158827 -1.4375 34.375 C-0.00862357 33.08226763 1.40997317 31.77805208 2.81640625 30.4609375 C3.45006104 29.89165527 4.08371582 29.32237305 4.73657227 28.73583984 C6.22041229 27.08324896 6.22041229 27.08324896 5.88061523 24.97045898 C4.89304662 22.76068181 3.88846301 21.62495307 2.09375 20.01171875 C1.51496094 19.46966797 0.93617187 18.92761719 0.33984375 18.36914062 C-0.88089968 17.25336558 -2.10744063 16.14389867 -3.33984375 15.04101562 C-6.50003368 12.06030196 -7.8634875 10.53289216 -8.97265625 6.203125 C-9 3 -9 3 -7.9375 1.0625 C-4.91671629 -0.59405881 -3.44561046 -0.57360909 0 0 Z " fill="#060606" transform="translate(79,165)"/>
<path d="M0 0 C3.1300133 1.389292 5.25386617 3.00533553 7.66699219 5.42407227 C8.71762848 6.47009361 8.71762848 6.47009361 9.78948975 7.5372467 C10.53442688 8.28936935 11.27936401 9.041492 12.046875 9.81640625 C13.20367767 10.97389626 13.20367767 10.97389626 14.3838501 12.1547699 C16.01006367 13.78400138 17.63384926 15.41565946 19.25537109 17.04956055 C21.74913373 19.56162737 24.25085368 22.06555244 26.75390625 24.56835938 C28.33120295 26.15056949 29.90804196 27.73323605 31.484375 29.31640625 C32.23740906 30.07055313 32.99044312 30.82470001 33.76629639 31.60169983 C34.45411194 32.29589523 35.14192749 32.99009064 35.85058594 33.70532227 C36.46029236 34.31884048 37.06999878 34.9323587 37.69818115 35.56446838 C39 37 39 37 39 38 C34.39194479 38.12394421 29.78486719 38.21449675 25.17553711 38.2746582 C23.60895886 38.29974547 22.04249701 38.33382415 20.47631836 38.37719727 C18.21959691 38.43811226 15.96442706 38.46626499 13.70703125 38.48828125 C13.01100296 38.51408768 12.31497467 38.5398941 11.59785461 38.56648254 C7.68341787 38.56872136 6.14355486 38.11829439 3.08081055 35.59448242 C-0.21748345 31.48196684 -0.11901805 29.27844132 -0.09765625 24.0234375 C-0.09553383 22.99556625 -0.09553383 22.99556625 -0.09336853 21.94692993 C-0.08776675 19.75624239 -0.07521406 17.5656567 -0.0625 15.375 C-0.05748522 13.89062648 -0.05292228 12.40625135 -0.04882812 10.921875 C-0.03779677 7.28121685 -0.02053099 3.64061836 0 0 Z " fill="#F5F5F5" transform="translate(229,28)"/>
</svg>
