<?xml version="1.0" encoding="UTF-8"?>
<svg version="1.1" xmlns="http://www.w3.org/2000/svg" width="500" height="500">
<path d="M0 0 C1.06992188 -0.03738281 2.13984375 -0.07476562 3.2421875 -0.11328125 C6.125 0.3125 6.125 0.3125 8.0078125 2.33203125 C8.37648438 2.98558594 8.74515625 3.63914062 9.125 4.3125 C8.795 4.9725 8.465 5.6325 8.125 6.3125 C9.300625 6.43625 9.300625 6.43625 10.5 6.5625 C11.36625 6.81 12.2325 7.0575 13.125 7.3125 C14.1875 9.25 14.1875 9.25 15.125 11.3125 C16.115 11.8075 16.115 11.8075 17.125 12.3125 C19.65345528 13.57672764 19.88922764 14.84095528 21.125 17.3125 C21.785 17.6425 22.445 17.9725 23.125 18.3125 C25.65345528 19.57672764 25.88922764 20.84095528 27.125 23.3125 C28.45020503 23.99518138 29.78312182 24.6632041 31.125 25.3125 C31.62 26.7975 31.62 26.7975 32.125 28.3125 C32.764375 28.621875 33.40375 28.93125 34.0625 29.25 C36.62551718 30.57034218 36.8657337 31.7939674 38.125 34.3125 C38.785 34.6425 39.445 34.9725 40.125 35.3125 C42.64117591 36.57058796 42.92985792 37.8425397 44.125 40.3125 C45.61 40.8075 45.61 40.8075 47.125 41.3125 C47.434375 41.951875 47.74375 42.59125 48.0625 43.25 C48.94981191 45.47087204 48.94981191 45.47087204 51.125 46.3125 C53.64117591 47.57058796 53.92985792 48.8425397 55.125 51.3125 C56.61 51.8075 56.61 51.8075 58.125 52.3125 C58.5271875 53.2715625 58.5271875 53.2715625 58.9375 54.25 C60.66259201 57.24621243 62.91514363 57.35682848 66.125 58.3125 C72.68506327 53.34433921 72.68506327 53.34433921 75.6171875 45.99609375 C75.54337893 42.58982389 75.54337893 42.58982389 75.1484375 39.328125 C75.12044154 35.72597844 75.97033433 34.15134861 78.125 31.3125 C79.115 30.8175 79.115 30.8175 80.125 30.3125 C80.455 29.6525 80.785 28.9925 81.125 28.3125 C87.50205514 21.66973423 94.32378951 18.15168306 103.5625 17.75 C113.47853744 18.10827175 119.80699993 22.3345208 126.43359375 29.4453125 C127.27083984 30.36957031 127.27083984 30.36957031 128.125 31.3125 C128.65222656 31.78429687 129.17945313 32.25609375 129.72265625 32.7421875 C133.16250308 36.59404941 133.359454 40.64484285 133.25 45.625 C133.23195313 46.69363281 133.21390625 47.76226562 133.1953125 48.86328125 C133.17210937 49.67152344 133.14890625 50.47976562 133.125 51.3125 C132.465 51.3125 131.805 51.3125 131.125 51.3125 C131.186875 52.26125 131.24875 53.21 131.3125 54.1875 C131.250625 55.21875 131.18875 56.25 131.125 57.3125 C130.135 57.9725 129.145 58.6325 128.125 59.3125 C127.939375 60.2715625 127.939375 60.2715625 127.75 61.25 C126.82709857 64.29557471 124.83940011 64.7641722 122.125 66.3125 C121.38121094 66.83070313 120.63742187 67.34890625 119.87109375 67.8828125 C115.12705845 71.07761123 111.95725481 72.56743869 106.1875 72.5 C101.15688532 72.61744626 98.86607354 73.91921681 95.36889648 77.30395508 C93.20511289 79.5794817 91.14059461 81.9041025 89.125 84.3125 C94.24790935 90.59161568 99.9618252 96.22424775 105.72939491 101.90036392 C107.51894897 103.66301926 109.30387305 105.43024007 111.08744812 107.19894409 C116.15376452 112.22274561 121.22287611 117.24362213 126.30786133 122.24853516 C129.42917316 125.3213534 132.54065746 128.40382805 135.64592552 131.49285507 C136.82764722 132.66468516 138.01301422 133.83285114 139.20208168 134.99722672 C140.86059483 136.62201973 142.50630539 138.25882085 144.1496582 139.89892578 C145.08864456 140.82601349 146.02763092 141.7531012 146.99507141 142.70828247 C149.92743956 146.29362546 150.125 148.79974587 150.125 153.3125 C149.54105469 153.58191406 148.95710937 153.85132813 148.35546875 154.12890625 C146.11915374 155.31560231 144.36070747 156.61047606 142.4375 158.25 C141.53451172 159.00603516 141.53451172 159.00603516 140.61328125 159.77734375 C138.87083445 161.35283926 138.87083445 161.35283926 138.125 164.3125 C136.800897 164.68079355 135.46507656 165.00740376 134.125 165.3125 C132.53525401 166.31209161 130.97581503 167.36043799 129.4375 168.4375 C106.46682845 183.35312272 77.04403414 187.95676054 50.26171875 183.09375 C45.57494561 181.92643415 40.97734616 180.48422705 36.41430664 178.90161133 C32.31937323 177.46215617 32.31937323 177.46215617 28.125 178.3125 C28.764375 179.17875 29.40375 180.045 30.0625 180.9375 C32.10048296 184.2723812 32.75933093 186.47297478 33.125 190.3125 C34.115 190.6425 35.105 190.9725 36.125 191.3125 C37.1875 193.625 37.1875 193.625 38.125 196.3125 C39.12437064 198.57774011 39.82253489 200.0463307 41.6875 201.6875 C43.74778935 204.01652275 43.7889317 206.28788534 44.125 209.3125 C45.115 209.6425 46.105 209.9725 47.125 210.3125 C47.24875 211.09625 47.3725 211.88 47.5 212.6875 C47.91617993 215.45307822 47.91617993 215.45307822 50.125 217.3125 C49.795 217.6425 49.465 217.9725 49.125 218.3125 C49.05228259 220.66563555 49.04129132 223.02083668 49.0625 225.375 C49.07152344 226.66535156 49.08054687 227.95570313 49.08984375 229.28515625 C49.10144531 230.28417969 49.11304688 231.28320312 49.125 232.3125 C47.125 233.3125 45.125 234.3125 43.125 235.3125 C42.23017914 235.8339711 41.33535828 236.3554422 40.41342163 236.89271545 C36.56079829 238.55609555 33.25377783 238.74218652 29.13525391 238.71655273 C28.35718887 238.72341599 27.57912384 238.73027924 26.77748108 238.73735046 C24.21865315 238.75557387 21.66044108 238.75178695 19.1015625 238.74609375 C17.31326093 238.7506582 15.52496111 238.75596455 13.73666382 238.76197815 C9.99266424 238.77090087 6.24887804 238.76849629 2.50488281 238.75854492 C-2.27887567 238.74706528 -7.06189487 238.7672554 -11.84555626 238.79646206 C-15.53804153 238.81486337 -19.23035099 238.81452363 -22.92287064 238.80882454 C-24.68581808 238.80867176 -26.44877777 238.81468031 -28.21168137 238.82711601 C-30.68373873 238.84209643 -33.15444789 238.83129802 -35.62646484 238.81420898 C-36.70529686 238.82871094 -36.70529686 238.82871094 -37.80592346 238.84350586 C-42.60711474 238.77446441 -45.93598453 237.61495478 -50.12201881 235.26751804 C-52.02218518 234.16556898 -52.02218518 234.16556898 -54.875 233.3125 C-58.33907851 228.36381641 -59.39736168 225.49488189 -58.875 219.3125 C-57.5546875 216.13671875 -57.5546875 216.13671875 -55.75 213 C-54.78900391 211.31003906 -54.78900391 211.31003906 -53.80859375 209.5859375 C-53.17050781 208.50570312 -52.53242188 207.42546875 -51.875 206.3125 C-51.35035156 205.41789063 -50.82570312 204.52328125 -50.28515625 203.6015625 C-48.8334631 201.16025359 -47.35575579 198.73626343 -45.875 196.3125 C-44.27286584 193.62480764 -42.67294504 190.93581435 -41.07421875 188.24609375 C-39.875 186.3125 -39.875 186.3125 -38.875 185.3125 C-38.1675578 183.96864393 -37.48301388 182.61265724 -36.8125 181.25 C-36.45027344 180.51652344 -36.08804688 179.78304687 -35.71484375 179.02734375 C-35.43769531 178.46144531 -35.16054687 177.89554688 -34.875 177.3125 C-34.215 177.3125 -33.555 177.3125 -32.875 177.3125 C-30.34768103 168.71961551 -29.43555156 164.56717626 -32.875 156.3125 C-33.205 156.3125 -33.535 156.3125 -33.875 156.3125 C-34.78396604 151.36368487 -34.96062787 147.24717213 -33.875 142.3125 C-33.215 141.9825 -32.555 141.6525 -31.875 141.3125 C-31.689375 139.6109375 -31.689375 139.6109375 -31.5 137.875 C-31.190625 136.1115625 -31.190625 136.1115625 -30.875 134.3125 C-28.875 133.125 -28.875 133.125 -26.875 132.3125 C-26.14176204 130.29741642 -26.14176204 130.29741642 -25.875 128.3125 C-25.545 127.9825 -25.215 127.6525 -24.875 127.3125 C-25.205 126.6525 -25.535 125.9925 -25.875 125.3125 C-25.545 124.6525 -25.215 123.9925 -24.875 123.3125 C-25.865 123.3125 -26.855 123.3125 -27.875 123.3125 C-30.71291587 118.62376943 -31.30236599 114.7395349 -31.56640625 109.38671875 C-31.66824219 108.70222656 -31.77007812 108.01773438 -31.875 107.3125 C-32.535 106.9825 -33.195 106.6525 -33.875 106.3125 C-34.69140625 104.01953125 -34.69140625 104.01953125 -35.4375 101.125 C-35.68628906 100.18269531 -35.93507812 99.24039063 -36.19140625 98.26953125 C-40.0920984 81.39625148 -38.54929658 63.83947721 -33.875 47.3125 C-33.215 47.3125 -32.555 47.3125 -31.875 47.3125 C-31.83761719 46.73242188 -31.80023438 46.15234375 -31.76171875 45.5546875 C-31.3384684 40.52547752 -30.60805547 36.68538876 -27.875 32.3125 C-27.215 31.9825 -26.555 31.6525 -25.875 31.3125 C-25.771875 30.466875 -25.66875 29.62125 -25.5625 28.75 C-24.67498804 24.31244021 -22.75780281 20.80352422 -19.875 17.3125 C-18.885 16.9825 -17.895 16.6525 -16.875 16.3125 C-16.730625 15.714375 -16.58625 15.11625 -16.4375 14.5 C-15.67625697 11.53961044 -14.10815262 10.34860974 -11.875 8.3125 C-9.52328556 6.14168667 -8.22861571 4.21310509 -6.875 1.3125 C-5.06850099 -0.49399901 -2.43748958 0.05553034 0 0 Z M0.125 15.3125 C-1.81298263 18.08510299 -1.81298263 18.08510299 -2.875 20.3125 C-3.535 20.9725 -4.195 21.6325 -4.875 22.3125 C-5.205 22.9725 -5.535 23.6325 -5.875 24.3125 C-6.535 24.9725 -7.195 25.6325 -7.875 26.3125 C-8.04 26.9725 -8.205 27.6325 -8.375 28.3125 C-9.14376812 31.38757249 -11.67614924 33.11364924 -13.875 35.3125 C-13.215 35.6425 -12.555 35.9725 -11.875 36.3125 C-12.514375 36.828125 -13.15375 37.34375 -13.8125 37.875 C-16.45360924 40.99631092 -16.38304948 43.30661722 -16.875 47.3125 C-17.34421875 48.08980469 -17.8134375 48.86710937 -18.296875 49.66796875 C-26.08801493 62.72391364 -24.63832117 84.28707301 -21.0625 98.5 C-19.87344028 102.85077405 -18.62646996 105.78693961 -15.875 109.3125 C-15.46770772 111.63406597 -15.13061323 113.9693787 -14.875 116.3125 C-14.545 117.3025 -14.215 118.2925 -13.875 119.3125 C-12.658125 119.415625 -11.44125 119.51875 -10.1875 119.625 C-0.59859665 120.7308293 7.52869009 122.17080262 15.125 128.3125 C15.78991455 128.45534424 16.4548291 128.59818848 17.13989258 128.74536133 C20.45487232 129.69244016 21.43290674 132.08984907 23.09912109 134.95068359 C24.83615733 138.94975274 24.90721722 142.81475066 24.9375 147.125 C24.96263672 147.96998047 24.98777344 148.81496094 25.01367188 149.68554688 C25.10290947 152.89555066 25.125 156.10132353 25.125 159.3125 C29.59079636 163.42270602 35.53377982 165.22220438 41.125 167.3125 C42.1253125 167.71210938 43.125625 168.11171875 44.15625 168.5234375 C61.12615392 174.22047667 85.52849967 173.9251681 102.125 167.3125 C103.15625 166.93867188 104.1875 166.56484375 105.25 166.1796875 C115.78740091 162.12063766 125.29561272 156.3087162 134.125 149.3125 C128.45880864 142.3962886 122.12159406 136.16818912 115.80151367 129.85961914 C114.55082873 128.60757758 113.30035628 127.35532374 112.05007935 126.10287476 C108.67057488 122.7188298 105.28793733 119.33793325 101.9045732 115.9577477 C98.3628046 112.41851684 94.82348316 108.87684009 91.2837677 105.33555603 C85.34665577 99.39662797 79.40744506 93.45980492 73.46704102 87.52416992 C66.59064999 80.65323549 59.71788914 73.77868567 52.8469736 66.9022761 C46.94723666 60.99801009 41.04556446 55.09568381 35.14225179 49.19499296 C31.61620311 45.67050627 28.09084072 42.14534026 24.56722069 38.61842537 C21.26084096 35.30916943 17.95204848 32.00234548 14.64133072 28.69742966 C13.42339048 27.48081772 12.20631158 26.26334282 10.99013329 25.04496956 C9.33780888 23.38993678 7.6824747 21.73797656 6.02629089 20.08680725 C5.09846393 19.15935731 4.17063696 18.23190737 3.21469402 17.27635288 C1.48149396 15.19836251 1.48149396 15.19836251 0.125 15.3125 Z M93.125 34.3125 C93.125 35.3025 93.125 36.2925 93.125 37.3125 C92.63 38.1478125 92.63 38.1478125 92.125 39 C90.19845596 43.4551331 90.81454463 47.9671934 91.875 52.5625 C93.2385157 55.56223455 94.58372215 57.23327267 97.125 59.3125 C101.89170501 60.90140167 105.69858149 60.88855363 110.375 59 C113.62336351 57.03792079 113.62336351 57.03792079 116.125 54.3125 C116.56520757 51.31782362 116.56520757 51.31782362 116.4375 48 C116.43169922 46.33517578 116.43169922 46.33517578 116.42578125 44.63671875 C116.00732468 40.01195845 115.13670549 36.51390026 112.125 32.9375 C105.7923256 29.50730137 99.11387355 30.53005354 93.125 34.3125 Z M77.125 34.3125 C78.125 36.3125 78.125 36.3125 78.125 36.3125 Z M129.125 34.3125 C130.125 36.3125 130.125 36.3125 130.125 36.3125 Z M-28.875 36.3125 C-27.875 38.3125 -27.875 38.3125 -27.875 38.3125 Z M76.125 37.3125 C77.125 39.3125 77.125 39.3125 77.125 39.3125 Z M130.125 37.3125 C131.125 39.3125 131.125 39.3125 131.125 39.3125 Z M89.125 43.3125 C89.125 45.2925 89.125 47.2725 89.125 49.3125 C89.455 49.3125 89.785 49.3125 90.125 49.3125 C90.125 47.3325 90.125 45.3525 90.125 43.3125 C89.795 43.3125 89.465 43.3125 89.125 43.3125 Z M117.125 43.3125 C117.125 45.6225 117.125 47.9325 117.125 50.3125 C117.455 50.3125 117.785 50.3125 118.125 50.3125 C118.125 48.0025 118.125 45.6925 118.125 43.3125 C117.795 43.3125 117.465 43.3125 117.125 43.3125 Z M-17.875 45.3125 C-16.875 47.3125 -16.875 47.3125 -16.875 47.3125 Z M-33.875 51.3125 C-32.875 55.3125 -32.875 55.3125 -32.875 55.3125 Z M-34.875 55.3125 C-33.875 59.3125 -33.875 59.3125 -33.875 59.3125 Z M-35.875 60.3125 C-35.875 62.2925 -35.875 64.2725 -35.875 66.3125 C-35.545 66.3125 -35.215 66.3125 -34.875 66.3125 C-34.875 64.3325 -34.875 62.3525 -34.875 60.3125 C-35.205 60.3125 -35.535 60.3125 -35.875 60.3125 Z M77.51953125 64.84375 C76.99746094 65.4934375 76.47539062 66.143125 75.9375 66.8125 C75.40769531 67.4621875 74.87789062 68.111875 74.33203125 68.78125 C73.93371094 69.2865625 73.53539062 69.791875 73.125 70.3125 C76.17877617 73.30900146 76.17877617 73.30900146 80.125 74.4375 C83.24336589 72.68341918 84.95696308 70.14299265 87.125 67.3125 C82.62437808 62.92883383 82.62437808 62.92883383 77.51953125 64.84375 Z M-36.875 66.3125 C-36.875 73.5725 -36.875 80.8325 -36.875 88.3125 C-36.545 88.3125 -36.215 88.3125 -35.875 88.3125 C-35.875 81.0525 -35.875 73.7925 -35.875 66.3125 C-36.205 66.3125 -36.535 66.3125 -36.875 66.3125 Z M-35.875 88.3125 C-35.875 90.6225 -35.875 92.9325 -35.875 95.3125 C-35.545 95.3125 -35.215 95.3125 -34.875 95.3125 C-34.875 93.0025 -34.875 90.6925 -34.875 88.3125 C-35.205 88.3125 -35.535 88.3125 -35.875 88.3125 Z M-34.875 95.3125 C-33.875 99.3125 -33.875 99.3125 -33.875 99.3125 Z M-33.875 100.3125 C-32.875 103.3125 -32.875 103.3125 -32.875 103.3125 Z M-17.875 107.3125 C-16.875 109.3125 -16.875 109.3125 -16.875 109.3125 Z M-16.875 110.3125 C-15.875 112.3125 -15.875 112.3125 -15.875 112.3125 Z M-28.875 116.3125 C-27.875 118.3125 -27.875 118.3125 -27.875 118.3125 Z M-12.875 120.3125 C-12.875 120.6425 -12.875 120.9725 -12.875 121.3125 C-10.235 121.3125 -7.595 121.3125 -4.875 121.3125 C-4.875 120.9825 -4.875 120.6525 -4.875 120.3125 C-7.515 120.3125 -10.155 120.3125 -12.875 120.3125 Z M-11.875 135.3125 C-12.3390625 136.240625 -12.3390625 136.240625 -12.8125 137.1875 C-13.875 139.3125 -13.875 139.3125 -16.4375 141 C-19.59990647 144.00023178 -19.60790754 146.07794212 -19.9296875 150.2890625 C-20.0158045 152.38329556 -20.0158045 152.38329556 -18.875 154.3125 C-18.215 154.3125 -17.555 154.3125 -16.875 154.3125 C-16.99875 155.034375 -17.1225 155.75625 -17.25 156.5 C-17.12910149 159.64288168 -17.12910149 159.64288168 -14 162.0625 C-10.02454038 164.92483093 -8.26705013 165.48553506 -3.4375 165.5625 C-2.46941406 165.58828125 -1.50132812 165.6140625 -0.50390625 165.640625 C2.12452381 165.53624008 2.12452381 165.53624008 3.8125 164.02734375 C5.62487774 161.65938593 7.29139245 159.2210123 8.94140625 156.73828125 C9.33199219 156.26777344 9.72257812 155.79726562 10.125 155.3125 C10.785 155.3125 11.445 155.3125 12.125 155.3125 C10.98654857 144.38007457 10.98654857 144.38007457 5.125 135.3125 C2.20680122 133.54557373 0.02271499 133.03922798 -3.375 133.0625 C-4.1278125 133.05734375 -4.880625 133.0521875 -5.65625 133.046875 C-8.14127822 133.34437838 -9.75405352 133.99797933 -11.875 135.3125 Z M11.125 144.3125 C12.125 147.3125 12.125 147.3125 12.125 147.3125 Z M12.125 147.3125 C13.125 149.3125 13.125 149.3125 13.125 149.3125 Z M-27.875 166.3125 C-26.875 168.3125 -26.875 168.3125 -26.875 168.3125 Z M-16.875 175.3125 C-17.308125 176.3953125 -17.308125 176.3953125 -17.75 177.5 C-18.12125 178.428125 -18.4925 179.35625 -18.875 180.3125 C-19.205 181.199375 -19.535 182.08625 -19.875 183 C-20.98308064 185.56243647 -22.32194372 186.84793273 -24.4375 188.625 C-26.05539759 190.23873166 -26.05539759 190.23873166 -26.28515625 192.55859375 C-26.97130827 195.76215119 -28.1879614 198.18710556 -29.75 201.0625 C-30.26304687 202.02671875 -30.77609375 202.9909375 -31.3046875 203.984375 C-32.875 206.3125 -32.875 206.3125 -35.875 207.3125 C-37.03311388 210.25979537 -37.03311388 210.25979537 -36.875 213.3125 C-37.7 214.09625 -38.525 214.88 -39.375 215.6875 C-42.44971264 218.31178161 -42.44971264 218.31178161 -41.875 223.3125 C-16.135 223.3125 9.605 223.3125 36.125 223.3125 C36.125 222.3225 36.125 221.3325 36.125 220.3125 C35.135 220.3125 34.145 220.3125 33.125 220.3125 C32.815625 219.219375 32.50625 218.12625 32.1875 217 C30.8763084 211.91476407 30.8763084 211.91476407 27.625 208 C24.82010964 204.98474287 24.40637724 203.34557384 24.125 199.3125 C22.64 198.8175 22.64 198.8175 21.125 198.3125 C19.125 195.3125 19.125 195.3125 18.8125 192.4375 C17.93812503 188.46306833 16.14113298 186.94194926 13.125 184.3125 C13.455 183.6525 13.785 182.9925 14.125 182.3125 C13.135 182.3125 12.145 182.3125 11.125 182.3125 C10.856875 181.508125 10.58875 180.70375 10.3125 179.875 C9.7246875 178.6065625 9.7246875 178.6065625 9.125 177.3125 C5.84343098 176.21864366 5.28720213 176.46424505 2.125 177.3125 C-4.5605897 177.75889807 -10.46886047 177.24642891 -16.875 175.3125 Z M19.125 192.3125 C20.125 194.3125 20.125 194.3125 20.125 194.3125 Z M-48.875 203.3125 C-47.875 205.3125 -47.875 205.3125 -47.875 205.3125 Z M-54.875 213.3125 C-53.875 215.3125 -53.875 215.3125 -53.875 215.3125 Z M-56.875 217.3125 C-55.875 220.3125 -55.875 220.3125 -55.875 220.3125 Z M-57.875 220.3125 C-57.875 221.9625 -57.875 223.6125 -57.875 225.3125 C-57.545 225.3125 -57.215 225.3125 -56.875 225.3125 C-56.875 223.6625 -56.875 222.0125 -56.875 220.3125 C-57.205 220.3125 -57.535 220.3125 -57.875 220.3125 Z M-42.875 224.3125 C-42.875 224.6425 -42.875 224.9725 -42.875 225.3125 C-16.805 225.3125 9.265 225.3125 36.125 225.3125 C36.125 224.9825 36.125 224.6525 36.125 224.3125 C10.055 224.3125 -16.015 224.3125 -42.875 224.3125 Z M-56.875 226.3125 C-55.875 228.3125 -55.875 228.3125 -55.875 228.3125 Z " fill="#FFFFFF" transform="translate(221.875,72.6875)"/>
<path d="M0 0 C3.63 0 7.26 0 11 0 C11.33 9.57 11.66 19.14 12 29 C14.64 27.68 17.28 26.36 20 25 C26.96176488 23.09850303 33.47619466 24.04179172 40 27 C43.02345215 28.99272982 45.44324172 31.44324172 48 34 C48 34.99 48 35.98 48 37 C48.66 37 49.32 37 50 37 C52.17003815 40.25505723 52.25601393 41.20546096 52.265625 44.97265625 C52.26949219 46.44702148 52.26949219 46.44702148 52.2734375 47.95117188 C52.26570313 48.97791016 52.25796875 50.00464844 52.25 51.0625 C52.26160156 52.56200195 52.26160156 52.56200195 52.2734375 54.09179688 C52.25645412 60.62615054 51.53311874 66.65240219 50 73 C49.731875 74.134375 49.46375 75.26875 49.1875 76.4375 C47.65817888 79.737614 46.21459175 80.35698644 43 82 C42.0925 82.886875 41.185 83.77375 40.25 84.6875 C34.8613737 88.60109394 27.30194699 87.88511873 20.93457031 87.31738281 C16.75039214 86.63093258 14.17361349 84.70094765 11 82 C10.67 83.65 10.34 85.3 10 87 C6.7 87 3.4 87 0 87 C0 58.29 0 29.58 0 0 Z M14.32788086 38.16235352 C12.24785874 41.04088385 12.59270192 43.64719547 12.56640625 47.15234375 C12.5611644 47.84888565 12.55592255 48.54542755 12.55052185 49.26307678 C12.54410475 50.73485991 12.54543471 52.20669434 12.55395508 53.6784668 C12.56245859 55.92655156 12.53371679 58.17208866 12.50195312 60.41992188 C12.50034075 61.85156174 12.50091934 63.28320609 12.50390625 64.71484375 C12.50205322 66.01542725 12.5002002 67.31601074 12.49829102 68.65600586 C13.08012476 72.53404812 13.89644481 73.68700285 17 76 C22.28150657 77.76050219 27.85948497 77.82999562 33.0625 75.8125 C35.49696658 73.53509578 35.61942757 72.27292293 36 69 C36.33 68.10539062 36.66 67.21078125 37 66.2890625 C39.60278809 57.7283298 39.16767803 47.02864383 35 39 C32.6337147 35.49439215 31.34620549 35.0851325 27.1875 34.0625 C22.10883231 33.65506957 18.5046258 35.25893949 14.32788086 38.16235352 Z M49 39 C50 41 50 41 50 41 Z M50 42 C51 44 51 44 51 44 Z M11 43 C11 50.92 11 58.84 11 67 C11.33 67 11.66 67 12 67 C12 59.08 12 51.16 12 43 C11.67 43 11.34 43 11 43 Z M38 45 C39 48 39 48 39 48 Z M39 48 C39 52.95 39 57.9 39 63 C39.33 63 39.66 63 40 63 C40 58.05 40 53.1 40 48 C39.67 48 39.34 48 39 48 Z M37 68 C38 70 38 70 38 70 Z M47 75 C48 77 48 77 48 77 Z " fill="#FFFFFF" transform="translate(330,340)"/>
<path d="M0 0 C43.95560254 0 43.95560254 0 48.875 4.84765625 C50.29296818 6.32557529 51.70963356 7.80474539 53.125 9.28515625 C54.82248518 11.22496294 54.82248518 11.22496294 57 11 C57 12.32 57 13.64 57 15 C57.66 15.33 58.32 15.66 59 16 C58.85888117 18.75031587 58.71228835 21.50015418 58.5625 24.25 C58.52318359 25.02730469 58.48386719 25.80460937 58.44335938 26.60546875 C58.38051758 27.73662109 58.38051758 27.73662109 58.31640625 28.890625 C58.26141968 29.92751465 58.26141968 29.92751465 58.20532227 30.98535156 C58 33 58 33 57.48022461 35.06933594 C56.87930976 37.15363324 56.87930976 37.15363324 57 40 C54.60349255 42.82445521 52.36411232 44.5158328 49 46 C48.030625 46.495 47.06125 46.99 46.0625 47.5 C43.40761073 48.80035393 40.75944315 49.9449188 38 51 C38 51.33 38 51.66 38 52 C29.09 52 20.18 52 11 52 C11 61.9 11 71.8 11 82 C7.37 82 3.74 82 0 82 C0 54.94 0 27.88 0 0 Z M11 10 C11 19.24 11 28.48 11 38 C15.21861875 38.09187554 19.43376537 38.17148388 23.65258789 38.21972656 C25.08727786 38.23983525 26.52188593 38.26712673 27.95629883 38.30175781 C30.01924839 38.3503146 32.08111431 38.37297406 34.14453125 38.390625 C35.38565674 38.41157227 36.62678223 38.43251953 37.90551758 38.45410156 C41.07376415 38.30742196 41.07376415 38.30742196 42.8659668 36.10058594 C43.59797447 34.74467765 44.31089587 33.37820826 45 32 C45.495 31.505 45.495 31.505 46 31 C46.07226502 29.14712498 46.0838122 27.29166122 46.0625 25.4375 C46.05347656 24.42558594 46.04445312 23.41367187 46.03515625 22.37109375 C46.02355469 21.58863281 46.01195312 20.80617188 46 20 C45.34 19.67 44.68 19.34 44 19 C43.8453125 18.1028125 43.8453125 18.1028125 43.6875 17.1875 C42.66592061 13.93702011 40.79701914 12.84348989 38 11 C34.52298171 10.09801351 31.28163972 9.88139392 27.69921875 9.90234375 C26.81838623 9.90484131 25.93755371 9.90733887 25.0300293 9.90991211 C23.92699463 9.91901611 22.82395996 9.92812012 21.6875 9.9375 C18.160625 9.958125 14.63375 9.97875 11 10 Z M11 39 C11 39.33 11 39.66 11 40 C19.58 40 28.16 40 37 40 C37 39.67 37 39.34 37 39 C28.42 39 19.84 39 11 39 Z " fill="#FFFFFF" transform="translate(0,345)"/>
<path d="M0 0 C2.26921536 -0.13489391 4.5407067 -0.23193995 6.8125 -0.3125 C8.70935547 -0.39951172 8.70935547 -0.39951172 10.64453125 -0.48828125 C14 0 14 0 15.91015625 2.37109375 C16.99490249 4.98770386 17.59999167 7.1999417 18 10 C18.185625 11.258125 18.37125 12.51625 18.5625 13.8125 C18.706875 14.864375 18.85125 15.91625 19 17 C19.66 17 20.32 17 21 17 C23.68219822 22.36439644 24.3152595 26.01006953 24 32 C24.66 32 25.32 32 26 32 C27.60355101 35.50776784 28.22036864 38.14354879 28 42 C28.66 42 29.32 42 30 42 C30 44.31 30 46.62 30 49 C30.66 49 31.32 49 32 49 C32.495 52.96 32.495 52.96 33 57 C36.08332416 55.97222528 37.07579923 55.51835908 39 53 C39.72348662 50.21226988 39.72348662 50.21226988 40.0625 47.125 C40.69970619 42.28223297 41.76830116 38.31849194 44.0625 34 C45.1465222 31.68741932 45.51168086 29.50263559 46 27 C47.64383562 22.17808219 47.64383562 22.17808219 50 21 C50.6545778 19.0514662 50.6545778 19.0514662 51.0625 16.75 C51.2275 15.93917969 51.3925 15.12835938 51.5625 14.29296875 C51.706875 13.53628906 51.85125 12.77960938 52 12 C52.93103448 7.13793103 52.93103448 7.13793103 54 5 C54.66 5 55.32 5 56 5 C56.33 3.35 56.66 1.7 57 0 C61.29 0 65.58 0 70 0 C70.495 2.475 70.495 2.475 71 5 C70.34 5.33 69.68 5.66 69 6 C67.98632027 9.57769316 67.16457276 13.09484984 66.5 16.75 C66 19 66 19 65 20.9375 C63.84601804 23.05844905 63.84601804 23.05844905 63.5625 25.875 C62.93277887 29.37345074 61.78161331 31.93562511 60 35 C59.01 35.495 59.01 35.495 58 36 C58 36.99 58 37.98 58 39 C57.67 39.99 57.34 40.98 57 42 C56.855625 42.78375 56.71125 43.5675 56.5625 44.375 C55.97710875 47.10682584 55.19271096 49.47425915 54 52 C53.01 52.495 53.01 52.495 52 53 C51.64159778 55.32961443 51.31151288 57.66365343 51 60 C49.9375 62.9375 49.9375 62.9375 49 65 C48.01 65 47.02 65 46 65 C46.2475 65.969375 46.495 66.93875 46.75 67.9375 C47.47891883 72.82025767 45.50412242 76.87660408 43 81 C40.35541621 82.32229189 38.32238699 82.09677194 35.375 82.0625 C34.37210937 82.05347656 33.36921875 82.04445313 32.3359375 82.03515625 C31.56507813 82.02355469 30.79421875 82.01195312 30 82 C29.566875 81.0409375 29.566875 81.0409375 29.125 80.0625 C28.17176549 77.84793921 28.17176549 77.84793921 26 77 C24.54972037 74.09944074 23.95296923 71.66490579 23.5 68.4375 C22.85794383 64.02336386 21.44846659 61.67269988 19 58 C18.3671875 55.80859375 18.3671875 55.80859375 17.875 53.4375 C17.70742187 52.65246094 17.53984375 51.86742187 17.3671875 51.05859375 C17 49 17 49 17 47 C16.34 47 15.68 47 15 47 C13.18236123 43.20666692 11.86280527 40.01042054 11.4375 35.8125 C11.05933703 32.51707987 10.69182576 30.74921686 9 28 C8.67 27.34 8.34 26.68 8 26 C7.34 25.34 6.68 24.68 6 24 C5.65929591 21.72720185 5.55858171 19.48577736 5.44140625 17.19140625 C4.90942694 14.55034081 4.01133032 13.72545596 2 12 C-0.66698706 8.21007101 -0.14882145 4.46464351 0 0 Z M14 3 C15 5 15 5 15 5 Z M1 5 C2 7 2 7 2 7 Z M15 5 C16 7 16 7 16 7 Z M54 7 C55 9 55 9 55 9 Z M16 8 C17 10 17 10 17 10 Z M3 10 C4 12 4 12 4 12 Z M20 20 C21 22 21 22 21 22 Z M7 21 C8 23 8 23 8 23 Z M62 23 C63 25 63 25 63 25 Z M22 25 C23 27 23 27 23 27 Z M48 25 C49 27 49 27 49 27 Z M47 27 C48 29 48 29 48 29 Z M60 28 C61 30 61 30 61 30 Z M46 30 C47 32 47 32 47 32 Z M25 34 C26 37 26 37 26 37 Z M14 40 C15 42 15 42 15 42 Z M42 42 C43 44 43 44 43 44 Z M15 43 C16 45 16 45 16 45 Z M41 44 C42 46 42 46 42 46 Z M54 44 C55 46 55 46 55 46 Z M50 55 C51 57 51 57 51 57 Z M20 56 C21 58 21 58 21 58 Z M37 56 C38 59 38 59 38 59 Z M36 59 C37 61 37 61 37 61 Z M34 60 C35 62 35 62 35 62 Z M48 60 C49 62 49 62 49 62 Z M35 62 C36 64 36 64 36 64 Z M45 69 C46 71 46 71 46 71 Z M44 71 C45 73 45 73 45 73 Z M26 72 C27 74 27 74 27 74 Z " fill="#FFFFFF" transform="translate(224,345)"/>
<path d="M0 0 C0.78375 0.515625 1.5675 1.03125 2.375 1.5625 C4 3 4 3 6 6 C6.5249707 6.45681152 7.04994141 6.91362305 7.59082031 7.38427734 C9.48667194 9.55800327 9.43846729 10.99485836 9.546875 13.8515625 C9.60681641 15.25148438 9.60681641 15.25148438 9.66796875 16.6796875 C9.69503906 17.65164063 9.72210938 18.62359375 9.75 19.625 C9.79253906 20.6046875 9.83507812 21.584375 9.87890625 22.59375 C10.07510891 27.84035442 10.07510891 27.84035442 10 30 C9 31 9 31 5.21459961 31.11352539 C3.52717271 31.11336622 1.83974095 31.10766917 0.15234375 31.09765625 C-1.17729652 31.09553383 -1.17729652 31.09553383 -2.53379822 31.09336853 C-5.37673254 31.08775215 -8.21958931 31.07519691 -11.0625 31.0625 C-12.98502491 31.05748711 -14.90755104 31.05292384 -16.83007812 31.04882812 C-21.55341549 31.03777741 -26.27669458 31.02050183 -31 31 C-30.24783203 31.67482422 -30.24783203 31.67482422 -29.48046875 32.36328125 C-28.74763672 33.17345703 -28.74763672 33.17345703 -28 34 C-28.3125 36.1875 -28.3125 36.1875 -29 38 C-28.01 38.66 -27.02 39.32 -26 40 C-25.7834375 40.9590625 -25.7834375 40.9590625 -25.5625 41.9375 C-24.78575325 44.78557143 -23.49128678 45.50522793 -21 47 C-16.79601405 48.59461536 -12.10310298 48.78093162 -7.875 47.2109375 C-4.36601726 45.52094949 -1.66626765 43.87199818 1 41 C4.43595166 42.52708963 7.11912454 44.59927045 10 47 C8.58281645 50.54295888 7.36125154 51.38366046 4 53 C3.44183594 53.42539062 2.88367188 53.85078125 2.30859375 54.2890625 C-5.23004634 59.67155709 -15.1437475 59.41521439 -24 58 C-28.13226628 56.51256498 -31.48514524 54.60910373 -35 52 C-35.99 51.34 -36.98 50.68 -38 50 C-38.495 48.515 -38.495 48.515 -39 47 C-39.50740723 46.59587891 -40.01481445 46.19175781 -40.53759766 45.77539062 C-42.81079699 43.01567351 -42.42822319 40.01213917 -42.3984375 36.59375 C-42.40130768 35.87264038 -42.40417786 35.15153076 -42.40713501 34.40856934 C-42.40917452 32.88549005 -42.40365247 31.3623845 -42.39111328 29.83935547 C-42.37505643 27.50819322 -42.3909641 25.17876458 -42.41015625 22.84765625 C-42.4081738 21.36718367 -42.40433007 19.88671218 -42.3984375 18.40625 C-42.40451019 17.7093103 -42.41058289 17.01237061 -42.4168396 16.29431152 C-42.3461995 11.43300876 -42.3461995 11.43300876 -40.53369141 9.16601562 C-40.02757324 8.78123047 -39.52145508 8.39644531 -39 8 C-38.690625 7.319375 -38.38125 6.63875 -38.0625 5.9375 C-36.73259971 3.5123877 -35.42525602 3.21262801 -33 2 C-32.70609375 1.34515625 -32.4121875 0.6903125 -32.109375 0.015625 C-31 -2 -31 -2 -27.25 -3.25 C-17.78924144 -4.93123335 -8.15503614 -5.68381307 0 0 Z M-26 9 C-26 9.99 -26 10.98 -26 12 C-26.66 12.66 -27.32 13.32 -28 14 C-28.66 14.99 -29.32 15.98 -30 17 C-28.16044022 19.26839977 -28.16044022 19.26839977 -25.38623047 19.22705078 C-24.30744629 19.21657715 -23.22866211 19.20610352 -22.1171875 19.1953125 C-20.95058594 19.18886719 -19.78398437 19.18242187 -18.58203125 19.17578125 C-17.35871094 19.15902344 -16.13539063 19.14226562 -14.875 19.125 C-13.02841797 19.11146484 -13.02841797 19.11146484 -11.14453125 19.09765625 C-8.09616185 19.07402548 -5.04817618 19.04108054 -2 19 C-2.27034634 16.56282742 -2.27034634 16.56282742 -3 14 C-3.99 13.34 -4.98 12.68 -6 12 C-6.103125 11.360625 -6.20625 10.72125 -6.3125 10.0625 C-6.86610012 7.67914558 -6.86610012 7.67914558 -9.75 6.25 C-16.40217604 3.69147075 -20.06769399 5.70263884 -26 9 Z M-31 20 C-31 20.33 -31 20.66 -31 21 C-21.43 21 -11.86 21 -2 21 C-2 20.67 -2 20.34 -2 20 C-11.57 20 -21.14 20 -31 20 Z " fill="#FFFFFF" transform="translate(210,369)"/>
<path d="M0 0 C0.86625 0.680625 0.86625 0.680625 1.75 1.375 C2.74 1.705 3.73 2.035 4.75 2.375 C5.11548445 3.69988113 5.4437566 5.03518514 5.75 6.375 C6.24927002 6.98182617 6.74854004 7.58865234 7.26293945 8.21386719 C9.0274847 10.77826623 9.10213607 12.06392411 9.04296875 15.140625 C9.03172974 16.34380371 9.03172974 16.34380371 9.02026367 17.57128906 C8.99295166 18.57901367 8.96563965 19.58673828 8.9375 20.625 C8.8446875 25.45125 8.8446875 25.45125 8.75 30.375 C-10.06 30.87 -10.06 30.87 -29.25 31.375 C-29.25 33.685 -29.25 35.995 -29.25 38.375 C-28.59 38.705 -27.93 39.035 -27.25 39.375 C-27.11851562 40.00921875 -26.98703125 40.6434375 -26.8515625 41.296875 C-26.43830315 43.47823457 -26.43830315 43.47823457 -24.6484375 44.640625 C-19.40411169 47.19191864 -15.17650024 48.48431613 -9.328125 46.83203125 C-6.39471695 45.73503361 -4.55084392 44.83280597 -2.8125 42.1875 C-2.5340625 41.2903125 -2.5340625 41.2903125 -2.25 40.375 C1.72287078 40.94255297 4.3953733 42.19902592 7.75 44.375 C8.74 44.87 8.74 44.87 9.75 45.375 C8.75 48.375 8.75 48.375 6.94140625 49.37109375 C6.21824219 49.70238281 5.49507813 50.03367187 4.75 50.375 C2.67369043 51.87743514 0.66808811 53.45273889 -1.34765625 55.03515625 C-7.52028649 59.38261451 -18.0697196 58.27668756 -25.25 57.375 C-28.95025309 55.95949882 -31.40995224 54.09296426 -34.25 51.375 C-35.39431968 50.49802138 -36.54002324 49.6228437 -37.6875 48.75 C-42.51951649 44.27154569 -43.04816435 39.78970547 -43.34594727 33.27636719 C-43.38339337 31.07919853 -43.38657561 28.88493679 -43.375 26.6875 C-43.37886719 25.94177734 -43.38273437 25.19605469 -43.38671875 24.42773438 C-43.38040493 20.88883925 -43.11184952 17.78602408 -42.25 14.375 C-42.25 13.385 -42.25 12.395 -42.25 11.375 C-42 9.3125 -42 9.3125 -41.25 7.375 C-39.93352881 6.67562468 -38.59977849 6.00770867 -37.25 5.375 C-36.92 4.385 -36.59 3.395 -36.25 2.375 C-34.32421875 0.8046875 -34.32421875 0.8046875 -31.9375 -0.75 C-30.76767578 -1.52730469 -30.76767578 -1.52730469 -29.57421875 -2.3203125 C-20.61748199 -7.34812775 -8.10655709 -5.85473567 0 0 Z M-25.25 7.375 C-26.46284876 10.42929073 -26.46284876 10.42929073 -27.25 13.375 C-28.24 13.705 -29.23 14.035 -30.25 14.375 C-29.92 15.695 -29.59 17.015 -29.25 18.375 C-21.33 18.375 -13.41 18.375 -5.25 18.375 C-5.34920214 10.00232196 -5.34920214 10.00232196 -8.3125 6.875 C-14.29155676 3.82186463 -19.59952293 3.20440978 -25.25 7.375 Z M6.75 11.375 C7.75 13.375 7.75 13.375 7.75 13.375 Z M-5.25 12.375 C-4.25 14.375 -4.25 14.375 -4.25 14.375 Z M-31.25 19.375 C-31.25 19.705 -31.25 20.035 -31.25 20.375 C-22.01 20.375 -12.77 20.375 -3.25 20.375 C-3.25 20.045 -3.25 19.715 -3.25 19.375 C-12.49 19.375 -21.73 19.375 -31.25 19.375 Z " fill="#FFFFFF" transform="translate(434.25,369.625)"/>
<path d="M0 0 C0.9796875 -0.00257813 1.959375 -0.00515625 2.96875 -0.0078125 C5.5 0.125 5.5 0.125 7.5 1.125 C7.51981934 2.37112061 7.53963867 3.61724121 7.56005859 4.90112305 C7.63623654 9.53251051 7.72493532 14.16358881 7.81738281 18.79467773 C7.85562217 20.79754524 7.89048381 22.80048025 7.921875 24.8034668 C7.96763496 27.68562917 8.02561154 30.56732894 8.0859375 33.44921875 C8.09748871 34.34211105 8.10903992 35.23500336 8.12094116 36.154953 C8.22591565 40.59540566 8.48465546 44.07579975 10.5 48.125 C10.83 49.115 11.16 50.105 11.5 51.125 C13.22880982 51.17949838 14.95812712 51.21801688 16.6875 51.25 C17.65042969 51.27320313 18.61335938 51.29640625 19.60546875 51.3203125 C22.66496921 51.11386847 24.77977929 50.52397065 27.5 49.125 C28.38693303 47.08394361 28.38693303 47.08394361 28.5 45.125 C29.16 45.125 29.82 45.125 30.5 45.125 C30.83 30.275 31.16 15.425 31.5 0.125 C35.13 0.125 38.76 0.125 42.5 0.125 C42.5 20.585 42.5 41.045 42.5 62.125 C38.87 62.125 35.24 62.125 31.5 62.125 C30.84 61.135 30.18 60.145 29.5 59.125 C28.6853125 59.61097656 27.870625 60.09695313 27.03125 60.59765625 C22.80028082 62.42764403 19.54453938 62.60642789 15 62.5625 C13.89978516 62.5924707 13.89978516 62.5924707 12.77734375 62.62304688 C7.51879882 62.61834335 4.75631359 61.40896609 0.5 58.125 C-0.50525726 57.67133057 -0.50525726 57.67133057 -1.53082275 57.20849609 C-5.11408742 55.23688421 -6.27697227 51.89733203 -7.5 48.125 C-8.00003124 44.42251949 -7.96867369 40.7929991 -7.890625 37.0625 C-7.88496521 36.03060547 -7.87930542 34.99871094 -7.87347412 33.93554688 C-7.85122256 30.6648771 -7.8010463 27.3953343 -7.75 24.125 C-7.72992054 21.89715132 -7.71167231 19.66928534 -7.6953125 17.44140625 C-7.6513948 12.0022247 -7.58459592 6.5636929 -7.5 1.125 C-4.89080172 -0.17959914 -2.91057385 -0.0076594 0 0 Z M6.5 43.125 C7.5 46.125 7.5 46.125 7.5 46.125 Z M-5.5 48.125 C-4.5 51.125 -4.5 51.125 -4.5 51.125 Z " fill="#FFFFFF" transform="translate(74.5,364.875)"/>
<path d="M0 0 C1.1655098 0.74074623 2.31233406 1.51180052 3.4375 2.3125 C4.09492188 2.68632812 4.75234375 3.06015625 5.4296875 3.4453125 C9.12114846 5.68390931 10.25461328 6.60533801 11.375 10.9375 C11.414347 13.06223783 11.4375 15.18739788 11.4375 17.3125 C6.8175 17.3125 2.1975 17.3125 -2.5625 17.3125 C-2.8925 15.6625 -3.2225 14.0125 -3.5625 12.3125 C-9.34607065 10.30082325 -14.46468999 10.09165376 -20.5625 10.3125 C-20.55089844 10.95058594 -20.53929687 11.58867187 -20.52734375 12.24609375 C-20.51832031 13.07238281 -20.50929688 13.89867187 -20.5 14.75 C-20.48839844 15.57371094 -20.47679687 16.39742188 -20.46484375 17.24609375 C-20.5625 19.3125 -20.5625 19.3125 -21.5625 20.3125 C-20.8919458 20.50360352 -20.2213916 20.69470703 -19.53051758 20.89160156 C-16.47505021 21.76980074 -13.42512831 22.66594159 -10.375 23.5625 C-9.31990234 23.86285156 -8.26480469 24.16320312 -7.17773438 24.47265625 C-1.82814654 26.05896936 2.30843869 27.38650728 6.4375 31.3125 C8.61964568 32.09083534 8.61964568 32.09083534 10.4375 32.3125 C11.23689955 36.57381536 11.62708114 40.66494681 11.6875 45 C11.71328125 46.11761719 11.7390625 47.23523438 11.765625 48.38671875 C11.4375 51.3125 11.4375 51.3125 10.203125 53.0078125 C9.62046875 53.43835938 9.0378125 53.86890625 8.4375 54.3125 C7.7671875 54.84230469 7.096875 55.37210937 6.40625 55.91796875 C0.22363893 59.87992679 -5.05260374 60.8962882 -12.25 60.9375 C-13.04535156 60.9480542 -13.84070313 60.9586084 -14.66015625 60.96948242 C-21.29767822 60.81305411 -26.71667453 59.01548481 -31.5859375 54.390625 C-32.03195312 53.78734375 -32.47796875 53.1840625 -32.9375 52.5625 C-34.2651989 50.74694451 -34.2651989 50.74694451 -35.5625 49.3125 C-36.2225 49.3125 -36.8825 49.3125 -37.5625 49.3125 C-39.61414237 45.85035351 -39.5625 44.71860765 -39.5625 40.3125 C-34.2825 40.3125 -29.0025 40.3125 -23.5625 40.3125 C-23.2325 42.6225 -22.9025 44.9325 -22.5625 47.3125 C-17.88948411 50.20976985 -14.10381968 50.8453192 -8.5625 50.3125 C-7.5725 49.6525 -6.5825 48.9925 -5.5625 48.3125 C-4.5725 47.9825 -3.5825 47.6525 -2.5625 47.3125 C-1.33729736 44.30402582 -1.33729736 44.30402582 -0.5625 41.3125 C-1.2225 41.3125 -1.8825 41.3125 -2.5625 41.3125 C-2.5625 40.3225 -2.5625 39.3325 -2.5625 38.3125 C-7.6676039 36.13092632 -12.65494687 34.22574732 -18.0625 32.9375 C-24.61078844 31.25152531 -30.75064672 28.12435328 -35.5625 23.3125 C-35.5625 22.6525 -35.5625 21.9925 -35.5625 21.3125 C-35.8925 20.3225 -36.2225 19.3325 -36.5625 18.3125 C-37.25227177 11.18485841 -37.25227177 11.18485841 -34.4375 7.625 C-33.48875 6.861875 -32.54 6.09875 -31.5625 5.3125 C-31.07007813 4.8690625 -30.57765625 4.425625 -30.0703125 3.96875 C-22.47264009 -2.80223267 -9.36950434 -4.55564483 0 0 Z M-15.5625 7.3125 C-15.5625 7.6425 -15.5625 7.9725 -15.5625 8.3125 C-13.5825 8.3125 -11.6025 8.3125 -9.5625 8.3125 C-9.5625 7.9825 -9.5625 7.6525 -9.5625 7.3125 C-11.5425 7.3125 -13.5225 7.3125 -15.5625 7.3125 Z M-23.5625 13.3125 C-22.5625 16.3125 -22.5625 16.3125 -22.5625 16.3125 Z M-37.5625 45.3125 C-36.5625 47.3125 -36.5625 47.3125 -36.5625 47.3125 Z " fill="#FFFFFF" transform="translate(488.5625,366.6875)"/>
<path d="M0 0 C2.36538696 2.02481079 2.36538696 2.02481079 4.83447266 4.54150391 C5.28880173 5.00021378 5.7431308 5.45892365 6.21122742 5.93153381 C7.19124617 6.92292177 8.16778548 7.91775903 9.14116287 8.91566849 C10.68110574 10.49403095 12.23034216 12.06271554 13.78231812 13.62924194 C17.07170819 16.95283846 20.34915315 20.28806119 23.625 23.625 C27.42841069 27.49917569 31.23654383 31.36845021 35.05750656 35.22532272 C36.58539738 36.7726913 38.10399576 38.32880123 39.62246704 39.88540649 C40.54707733 40.81992645 41.47168762 41.75444641 42.42431641 42.71728516 C43.2375235 43.5462027 44.05073059 44.37512024 44.88858032 45.22915649 C46.92381169 47.32130351 46.92381169 47.32130351 50 47 C51.625 48.9375 51.625 48.9375 53 51 C53.33 51.33 53.66 51.66 54 52 C61.33333333 59.33333333 68.66666667 66.66666667 76 74 C76.86625 74.53625 77.7325 75.0725 78.625 75.625 C81 78 81 78 81.125 81.5 C79.80850297 85.59576852 78.75854859 86.94988259 75 89 C70.89455373 88.89473215 67.51648375 87.03174616 64 85 C63.34 84.01 62.68 83.02 62 82 C61.67 81.67 61.34 81.34 61 81 C54 74 47 67 40 60 C40.33 59.67 40.66 59.34 41 59 C40.236875 58.7525 39.47375 58.505 38.6875 58.25 C35.67354559 56.84816074 34.83141785 55.70731334 33 53 C31.68557638 51.64802142 30.3565164 50.30973998 29 49 C29.495 48.01 29.495 48.01 30 47 C28.8553125 46.9071875 28.8553125 46.9071875 27.6875 46.8125 C24.13125059 45.73735483 23.77135629 44.15763512 22 41 C20.68252676 40.30251417 19.35085807 39.63040043 18 39 C17.67 38.01 17.34 37.02 17 36 C16.360625 35.690625 15.72125 35.38125 15.0625 35.0625 C12.49948282 33.74215782 12.2592663 32.5185326 11 30 C9.67479497 29.31731862 8.34187818 28.6492959 7 28 C6.67 27.01 6.34 26.02 6 25 C5.360625 24.690625 4.72125 24.38125 4.0625 24.0625 C1.49948282 22.74215782 1.2592663 21.5185326 0 19 C-0.66 18.67 -1.32 18.34 -2 18 C-4.52845528 16.73577236 -4.76422764 15.47154472 -6 13 C-6.680625 12.7525 -7.36125 12.505 -8.0625 12.25 C-10 11 -10 11 -10.48046875 9.20703125 C-10.86884039 6.11694389 -11 3.11500655 -11 0 C-6.42991744 -1.91305782 -4.40753655 -2.27335113 0 0 Z " fill="#FFFFFF" transform="translate(257,142)"/>
<path d="M0 0 C0 3.63 0 7.26 0 11 C-1.37285156 11.14695312 -1.37285156 11.14695312 -2.7734375 11.296875 C-4.55621094 11.52117187 -4.55621094 11.52117187 -6.375 11.75 C-7.55835938 11.88921875 -8.74171875 12.0284375 -9.9609375 12.171875 C-13.05192414 12.65498893 -13.05192414 12.65498893 -14.17001343 14.77093506 C-15.05871781 17.1576963 -15.27505395 18.95312906 -15.31884766 21.49316406 C-15.33871735 22.37377502 -15.35858704 23.25438599 -15.37905884 24.16168213 C-15.39638565 25.57438385 -15.39638565 25.57438385 -15.4140625 27.015625 C-15.43342865 27.98659119 -15.4527948 28.95755737 -15.4727478 29.95794678 C-15.53246509 33.05520886 -15.5788978 36.15250826 -15.625 39.25 C-15.66318698 41.35157859 -15.70223914 43.45314165 -15.7421875 45.5546875 C-15.83816031 50.70299868 -15.9222206 55.85138312 -16 61 C-19 62 -19 62 -30 62 C-30 41.87 -30 21.74 -30 1 C-26.37 1 -22.74 1 -19 1 C-18.67 2.32 -18.34 3.64 -18 5 C-17.401875 4.360625 -16.80375 3.72125 -16.1875 3.0625 C-11.59030146 -1.27200148 -5.95713589 -0.07008395 0 0 Z " fill="#FFFFFF" transform="translate(162,365)"/>
<path d="M0 0 C3.96 0 7.92 0 12 0 C12 20.13 12 40.26 12 61 C8.04 61 4.08 61 0 61 C0 40.87 0 20.74 0 0 Z " fill="#FFFFFF" transform="translate(303,366)"/>
<path d="M0 0 C4.11944831 2.87032527 8.17087359 6.53688787 9.80078125 11.37890625 C10.0625 13.5625 10.0625 13.5625 10 17 C5.62894185 17.9852795 1.74316518 18.8419177 -2.41015625 16.8359375 C-7.68313953 12.9505814 -7.68313953 12.9505814 -9 9 C-9.03954234 6.66700175 -9.04401732 4.33291811 -9 2 C-5.84231737 0.12878066 -3.65900334 -0.43110496 0 0 Z " fill="#FFFFFF" transform="translate(232,117)"/>
<path d="M0 0 C0.8353125 0.4640625 0.8353125 0.4640625 1.6875 0.9375 C1.09768767 7.18951072 1.09768767 7.18951072 -0.375 9.875 C-3.67635818 11.68542223 -6.59134259 11.23282995 -10.3125 10.9375 C-12.3125 8.9375 -12.3125 8.9375 -12.75 5 C-12.6953125 2.8515625 -12.6953125 2.8515625 -12.3125 0.9375 C-8.14346508 -2.99330436 -4.87571715 -2.24019436 0 0 Z " fill="#FFFFFF" transform="translate(315.3125,345.0625)"/>
<path d="M0 0 C0.33 0 0.66 0 1 0 C1 28.71 1 57.42 1 87 C0.67 87 0.34 87 0 87 C0 58.29 0 29.58 0 0 Z " fill="#FFFFFF" transform="translate(328,340)"/>
<path d="M0 0 C26.4 0 52.8 0 80 0 C80 0.33 80 0.66 80 1 C53.6 1 27.2 1 0 1 C0 0.67 0 0.34 0 0 Z " fill="#FFFFFF" transform="translate(178,312)"/>
<path d="M0 0 C0.33 0 0.66 0 1 0 C1 20.13 1 40.26 1 61 C0.67 61 0.34 61 0 61 C0 40.87 0 20.74 0 0 Z " fill="#FFFFFF" transform="translate(130,366)"/>
<path d="M0 0 C0.33 0 0.66 0 1 0 C1 19.47 1 38.94 1 59 C0.67 59 0.34 59 0 59 C0 39.53 0 20.06 0 0 Z " fill="#FFFFFF" transform="translate(316,367)"/>
<path d="M0 0 C0.33 0 0.66 0 1 0 C1 19.47 1 38.94 1 59 C0.67 59 0.34 59 0 59 C0 39.53 0 20.06 0 0 Z " fill="#FFFFFF" transform="translate(301,367)"/>
<path d="M0 0 C0.33 0 0.66 0 1 0 C1 14.52 1 29.04 1 44 C0.67 44 0.34 44 0 44 C0 29.48 0 14.96 0 0 Z " fill="#FFFFFF" transform="translate(104,366)"/>
<path d="M0 0 C12.21 0 24.42 0 37 0 C37 0.33 37 0.66 37 1 C24.79 1 12.58 1 0 1 C0 0.67 0 0.34 0 0 Z " fill="#FFFFFF" transform="translate(0,343)"/>
<path d="M0 0 C0.33 0 0.66 0 1 0 C1 11.22 1 22.44 1 34 C0.67 34 0.34 34 0 34 C-0.79274569 30.50428279 -1.12831956 27.27324174 -1.1328125 23.69140625 C-1.13410156 22.69689453 -1.13539063 21.70238281 -1.13671875 20.67773438 C-1.13285156 19.64970703 -1.12898437 18.62167969 -1.125 17.5625 C-1.12886719 16.53833984 -1.13273438 15.51417969 -1.13671875 14.45898438 C-1.13033939 9.53092798 -1.04637919 4.8415799 0 0 Z " fill="#FFFFFF" transform="translate(201,133)"/>
<path d="M0 0 C0.33 0 0.66 0 1 0 C1.33 8.91 1.66 17.82 2 27 C1.34 27.33 0.68 27.66 0 28 C0 18.76 0 9.52 0 0 Z " fill="#FFFFFF" transform="translate(342,341)"/>
<path d="M0 0 C7.59 0 15.18 0 23 0 C23 0.33 23 0.66 23 1 C15.41 1 7.82 1 0 1 C0 0.67 0 0.34 0 0 Z " fill="#FFFFFF" transform="translate(282,258)"/>
<path d="M0 0 C0.33 0 0.66 0 1 0 C1 6.27 1 12.54 1 19 C0.67 19 0.34 19 0 19 C0 12.73 0 6.46 0 0 Z " fill="#FFFFFF" transform="translate(166,387)"/>
<path d="M0 0 C0.33 0 0.66 0 1 0 C1.75612577 5.23471686 2.2063366 9.77254141 1 15 C0.67 15 0.34 15 0 15 C0 10.05 0 5.1 0 0 Z " fill="#FFFFFF" transform="translate(59,363)"/>
<path d="M0 0 C0.33 0 0.66 0 1 0 C1 5.61 1 11.22 1 17 C0.67 17 0.34 17 0 17 C0 11.39 0 5.78 0 0 Z " fill="#FFFFFF" transform="translate(389,388)"/>
<path d="M0 0 C0 0.33 0 0.66 0 1 C-3.96 1 -7.92 1 -12 1 C-7.01222852 -1.49388574 -5.33016752 -0.88836125 0 0 Z " fill="#FFFFFF" transform="translate(361,376)"/>
<path d="M0 0 C4.62 0 9.24 0 14 0 C14 0.33 14 0.66 14 1 C9.38 1 4.76 1 0 1 C0 0.67 0 0.34 0 0 Z " fill="#FFFFFF" transform="translate(469,363)"/>
<path d="M0 0 C4.29 0 8.58 0 13 0 C13 0.33 13 0.66 13 1 C8.71 1 4.42 1 0 1 C0 0.67 0 0.34 0 0 Z " fill="#FFFFFF" transform="translate(188,363)"/>
<path d="M0 0 C1.62463842 -0.05395478 3.24978541 -0.09277195 4.875 -0.125 C5.77992188 -0.14820312 6.68484375 -0.17140625 7.6171875 -0.1953125 C10 0 10 0 12 2 C8.04 1.67 4.08 1.34 0 1 C0 0.67 0 0.34 0 0 Z " fill="#FFFFFF" transform="translate(321,105)"/>
<path d="M0 0 C4.29 0 8.58 0 13 0 C13 0.33 13 0.66 13 1 C8.71 1 4.42 1 0 1 C0 0.67 0 0.34 0 0 Z " fill="#FFFFFF" transform="translate(319,89)"/>
<path d="M0 0 C3.96 0 7.92 0 12 0 C12 0.33 12 0.66 12 1 C8.04 1 4.08 1 0 1 C0 0.67 0 0.34 0 0 Z " fill="#FFFFFF" transform="translate(451,405)"/>
<path d="M0 0 C0.33 0 0.66 0 1 0 C1 3.96 1 7.92 1 12 C0.67 12 0.34 12 0 12 C0 8.04 0 4.08 0 0 Z " fill="#FFFFFF" transform="translate(383,390)"/>
<path d="M0 0 C0.33 0 0.66 0 1 0 C1 3.96 1 7.92 1 12 C0.67 12 0.34 12 0 12 C0 8.04 0 4.08 0 0 Z " fill="#FFFFFF" transform="translate(444,387)"/>
<path d="M0 0 C3.96 0 7.92 0 12 0 C12 0.33 12 0.66 12 1 C8.04 1 4.08 1 0 1 C0 0.67 0 0.34 0 0 Z " fill="#FFFFFF" transform="translate(412,363)"/>
<path d="M0 0 C3.96 0 7.92 0 12 0 C12 0.33 12 0.66 12 1 C8.04 1 4.08 1 0 1 C0 0.67 0 0.34 0 0 Z " fill="#FFFFFF" transform="translate(282,343)"/>
<path d="M0 0 C3.96 0 7.92 0 12 0 C12 0.33 12 0.66 12 1 C8.04 1 4.08 1 0 1 C0 0.67 0 0.34 0 0 Z " fill="#FFFFFF" transform="translate(225,343)"/>
<path d="M0 0 C-3.47325181 1.1577506 -6.36067448 1.06866652 -10 1 C-10 0.67 -10 0.34 -10 0 C-6.33694766 -0.74926071 -3.57644848 -1.2380014 0 0 Z " fill="#FFFFFF" transform="translate(483,416)"/>
<path d="M0 0 C-3.47325181 1.1577506 -6.36067448 1.06866652 -10 1 C-10 0.67 -10 0.34 -10 0 C-6.33694766 -0.74926071 -3.57644848 -1.2380014 0 0 Z " fill="#FFFFFF" transform="translate(426,416)"/>
<path d="M0 0 C-3.47325181 1.1577506 -6.36067448 1.06866652 -10 1 C-10 0.67 -10 0.34 -10 0 C-6.33694766 -0.74926071 -3.57644848 -1.2380014 0 0 Z " fill="#FFFFFF" transform="translate(203,416)"/>
<path d="M0 0 C3.63 0 7.26 0 11 0 C11 0.33 11 0.66 11 1 C7.37 1 3.74 1 0 1 C0 0.67 0 0.34 0 0 Z " fill="#FFFFFF" transform="translate(86,415)"/>
<path d="M0 0 C3.63 0 7.26 0 11 0 C11 0.33 11 0.66 11 1 C7.37 1 3.74 1 0 1 C0 0.67 0 0.34 0 0 Z " fill="#FFFFFF" transform="translate(488,385)"/>
<path d="M0 0 C0.33 0 0.66 0 1 0 C1 3.63 1 7.26 1 11 C0.67 11 0.34 11 0 11 C0 7.37 0 3.74 0 0 Z " fill="#FFFFFF" transform="translate(44,365)"/>
<path d="M0 0 C3.63 0 7.26 0 11 0 C11 0.33 11 0.66 11 1 C7.37 1 3.74 1 0 1 C0 0.67 0 0.34 0 0 Z " fill="#FFFFFF" transform="translate(330,338)"/>
<path d="M0 0 C-4.43076923 2.09230769 -4.43076923 2.09230769 -7.3125 1.625 C-7.869375 1.41875 -8.42625 1.2125 -9 1 C-3.375 -1.125 -3.375 -1.125 0 0 Z " fill="#FFFFFF" transform="translate(328,254)"/>
<path d="M0 0 C4.455 0.99 4.455 0.99 9 2 C4.70600835 3.07349791 3.80504787 2.79682816 0 1 C0 0.67 0 0.34 0 0 Z " fill="#FFFFFF" transform="translate(264,238)"/>
<path d="M0 0 C3.3 0 6.6 0 10 0 C10 0.33 10 0.66 10 1 C6.7 1 3.4 1 0 1 C0 0.67 0 0.34 0 0 Z " fill="#FFFFFF" transform="translate(350,415)"/>
<path d="M0 0 C3.3 0 6.6 0 10 0 C10 0.33 10 0.66 10 1 C6.7 1 3.4 1 0 1 C0 0.67 0 0.34 0 0 Z " fill="#FFFFFF" transform="translate(152,377)"/>
<path d="M0 0 C0.33 0 0.66 0 1 0 C1 3.3 1 6.6 1 10 C0.67 10 0.34 10 0 10 C0 6.7 0 3.4 0 0 Z " fill="#FFFFFF" transform="translate(163,365)"/>
<path d="M0 0 C3.16115776 1.36983503 3.9927092 1.9890638 6 5 C2.83884224 3.63016497 2.0072908 3.0109362 0 0 Z " fill="#FFFFFF" transform="translate(288,172)"/>
<path d="M0 0 C3.16115776 1.36983503 3.9927092 1.9890638 6 5 C2.83884224 3.63016497 2.0072908 3.0109362 0 0 Z " fill="#FFFFFF" transform="translate(260,144)"/>
<path d="M0 0 C3.16115776 1.36983503 3.9927092 1.9890638 6 5 C2.83884224 3.63016497 2.0072908 3.0109362 0 0 Z " fill="#FFFFFF" transform="translate(262,130)"/>
<path d="M0 0 C3.16115776 1.36983503 3.9927092 1.9890638 6 5 C2.83884224 3.63016497 2.0072908 3.0109362 0 0 Z " fill="#FFFFFF" transform="translate(234,102)"/>
<path d="M0 0 C-2.35438733 1.42944945 -3.48032433 2.08661261 -6.25 1.625 C-6.8275 1.41875 -7.405 1.2125 -8 1 C-5.07175348 0.02391783 -3.04386724 -0.08226668 0 0 Z " fill="#FFFFFF" transform="translate(420,375)"/>
<path d="M0 0 C2.64 0.33 5.28 0.66 8 1 C5.39417629 1.93065133 4.35801776 2.14917407 1.75 1.0625 C1.1725 0.711875 0.595 0.36125 0 0 Z " fill="#FFFFFF" transform="translate(192,375)"/>
<path d="M0 0 C2.97 0 5.94 0 9 0 C9 0.33 9 0.66 9 1 C6.03 1 3.06 1 0 1 C0 0.67 0 0.34 0 0 Z " fill="#FFFFFF" transform="translate(152,363)"/>
<path d="M0 0 C2.31 0 4.62 0 7 0 C6.67 0.66 6.34 1.32 6 2 C4.35 2 2.7 2 1 2 C0.67 1.34 0.34 0.68 0 0 Z " fill="#FFFFFF" transform="translate(327,231)"/>
<path d="M0 0 C1.65 1.65 3.3 3.3 5 5 C3.0625 4.1875 3.0625 4.1875 1 3 C0.67 2.01 0.34 1.02 0 0 Z " fill="#FFFFFF" transform="translate(300,183)"/>
<path d="M0 0 C1.65 1.65 3.3 3.3 5 5 C3.0625 4.1875 3.0625 4.1875 1 3 C0.67 2.01 0.34 1.02 0 0 Z " fill="#FFFFFF" transform="translate(294,177)"/>
<path d="M0 0 C1.42944945 2.35438733 2.08661261 3.48032433 1.625 6.25 C1.41875 6.8275 1.2125 7.405 1 8 C0.67 5.36 0.34 2.72 0 0 Z " fill="#FFFFFF" transform="translate(202,167)"/>
<path d="M0 0 C1.65 1.65 3.3 3.3 5 5 C3.0625 4.1875 3.0625 4.1875 1 3 C0.67 2.01 0.34 1.02 0 0 Z " fill="#FFFFFF" transform="translate(283,166)"/>
<path d="M0 0 C1.65 1.65 3.3 3.3 5 5 C3.0625 4.1875 3.0625 4.1875 1 3 C0.67 2.01 0.34 1.02 0 0 Z " fill="#FFFFFF" transform="translate(296,163)"/>
<path d="M0 0 C1.65 1.65 3.3 3.3 5 5 C3.0625 4.1875 3.0625 4.1875 1 3 C0.67 2.01 0.34 1.02 0 0 Z " fill="#FFFFFF" transform="translate(272,155)"/>
<path d="M0 0 C1.65 1.65 3.3 3.3 5 5 C3.0625 4.1875 3.0625 4.1875 1 3 C0.67 2.01 0.34 1.02 0 0 Z " fill="#FFFFFF" transform="translate(285,152)"/>
<path d="M0 0 C1.65 1.65 3.3 3.3 5 5 C3.0625 4.1875 3.0625 4.1875 1 3 C0.67 2.01 0.34 1.02 0 0 Z " fill="#FFFFFF" transform="translate(279,146)"/>
<path d="M0 0 C1.65 1.65 3.3 3.3 5 5 C3.0625 4.1875 3.0625 4.1875 1 3 C0.67 2.01 0.34 1.02 0 0 Z " fill="#FFFFFF" transform="translate(274,141)"/>
<path d="M0 0 C1.65 1.65 3.3 3.3 5 5 C3.0625 4.1875 3.0625 4.1875 1 3 C0.67 2.01 0.34 1.02 0 0 Z " fill="#FFFFFF" transform="translate(268,135)"/>
<path d="M0 0 C1.65 1.65 3.3 3.3 5 5 C3.0625 4.1875 3.0625 4.1875 1 3 C0.67 2.01 0.34 1.02 0 0 Z " fill="#FFFFFF" transform="translate(257,124)"/>
<path d="M0 0 C1.98 0.99 1.98 0.99 4 2 C4 2.99 4 3.98 4 5 C2.68 3.35 1.36 1.7 0 0 Z " fill="#FFFFFF" transform="translate(251,119)"/>
<path d="M0 0 C0.33 0 0.66 0 1 0 C1 2.97 1 5.94 1 9 C0.67 9 0.34 9 0 9 C0 6.03 0 3.06 0 0 Z " fill="#FFFFFF" transform="translate(296,113)"/>
<path d="M0 0 C1.65 1.65 3.3 3.3 5 5 C3.0625 4.1875 3.0625 4.1875 1 3 C0.67 2.01 0.34 1.02 0 0 Z " fill="#FFFFFF" transform="translate(246,113)"/>
<path d="M0 0 C1.98 0.99 1.98 0.99 4 2 C4 2.99 4 3.98 4 5 C2.68 3.35 1.36 1.7 0 0 Z " fill="#FFFFFF" transform="translate(240,108)"/>
<path d="M0 0 C1.98 0.99 1.98 0.99 4 2 C4 2.99 4 3.98 4 5 C2.68 3.35 1.36 1.7 0 0 Z " fill="#FFFFFF" transform="translate(229,97)"/>
<path d="M0 0 C1.98 0.99 1.98 0.99 4 2 C4 2.99 4 3.98 4 5 C2.68 3.35 1.36 1.7 0 0 Z " fill="#FFFFFF" transform="translate(223,91)"/>
<path d="M0 0 C0.33 0 0.66 0 1 0 C1 2.64 1 5.28 1 8 C0.67 8 0.34 8 0 8 C0 5.36 0 2.72 0 0 Z " fill="#FFFFFF" transform="translate(272,292)"/>
<path d="M0 0 C0.66 0.33 1.32 0.66 2 1 C1.01 1.66 0.02 2.32 -1 3 C-1.99 2.67 -2.98 2.34 -4 2 C-2.125 0.9375 -2.125 0.9375 0 0 Z " fill="#FFFFFF" transform="translate(338,248)"/>
<path d="M0 0 C0.598125 0.20625 1.19625 0.4125 1.8125 0.625 C-0.4975 0.955 -2.8075 1.285 -5.1875 1.625 C-2.1875 -0.375 -2.1875 -0.375 0 0 Z " fill="#FFFFFF" transform="translate(319.1875,239.375)"/>
<path d="M0 0 C0.66 0.33 1.32 0.66 2 1 C1.01 1.99 0.02 2.98 -1 4 C-1.66 3.67 -2.32 3.34 -3 3 C-2.01 2.01 -1.02 1.02 0 0 Z " fill="#FFFFFF" transform="translate(365,230)"/>
<path d="M0 0 C3.875 1.75 3.875 1.75 5 4 C1.125 2.25 1.125 2.25 0 0 Z " fill="#FFFFFF" transform="translate(277,161)"/>
<path d="M0 0 C3.875 1.75 3.875 1.75 5 4 C1.125 2.25 1.125 2.25 0 0 Z " fill="#FFFFFF" transform="translate(266,150)"/>
<path d="M0 0 C2.97 0.495 2.97 0.495 6 1 C5.01 1.33 4.02 1.66 3 2 C2.01 1.34 1.02 0.68 0 0 Z " fill="#FFFFFF" transform="translate(476,402)"/>
<path d="M0 0 C2.97 0.495 2.97 0.495 6 1 C5.01 1.33 4.02 1.66 3 2 C2.01 1.34 1.02 0.68 0 0 Z " fill="#FFFFFF" transform="translate(477,389)"/>
<path d="M0 0 C2.31 0 4.62 0 7 0 C7 0.33 7 0.66 7 1 C4.69 1 2.38 1 0 1 C0 0.67 0 0.34 0 0 Z " fill="#FFFFFF" transform="translate(306,357)"/>
<path d="M0 0 C2.31 0 4.62 0 7 0 C7 0.33 7 0.66 7 1 C4.69 1 2.38 1 0 1 C0 0.67 0 0.34 0 0 Z " fill="#FFFFFF" transform="translate(215,252)"/>
<path d="M0 0 C2.31 0 4.62 0 7 0 C7 0.33 7 0.66 7 1 C4.69 1 2.38 1 0 1 C0 0.67 0 0.34 0 0 Z " fill="#FFFFFF" transform="translate(300,242)"/>
<path d="M0 0 C2.31 0 4.62 0 7 0 C7 0.33 7 0.66 7 1 C4.69 1 2.38 1 0 1 C0 0.67 0 0.34 0 0 Z " fill="#FFFFFF" transform="translate(280,242)"/>
<path d="M0 0 C1.32 1.32 2.64 2.64 4 4 C2.68 3.34 1.36 2.68 0 2 C0 1.34 0 0.68 0 0 Z " fill="#FFFFFF" transform="translate(324,191)"/>
<path d="M0 0 C1.32 1.32 2.64 2.64 4 4 C2.68 3.34 1.36 2.68 0 2 C0 1.34 0 0.68 0 0 Z " fill="#FFFFFF" transform="translate(307,174)"/>
<path d="M0 0 C2.31 0 4.62 0 7 0 C7 0.33 7 0.66 7 1 C4.69 1 2.38 1 0 1 C0 0.67 0 0.34 0 0 Z " fill="#FFFFFF" transform="translate(322,131)"/>
<path d="M0 0 C1.98 0.99 1.98 0.99 4 2 C3.67 2.66 3.34 3.32 3 4 C2.01 2.68 1.02 1.36 0 0 Z " fill="#FFFFFF" transform="translate(234,118)"/>
<path d="M0 0 C0.66 0.33 1.32 0.66 2 1 C0.68 1.99 -0.64 2.98 -2 4 C-1.34 2.68 -0.68 1.36 0 0 Z " fill="#FFFFFF" transform="translate(305,97)"/>
<path d="M0 0 C0.33 0.99 0.66 1.98 1 3 C0.34 3.66 -0.32 4.32 -1 5 C-0.67 3.35 -0.34 1.7 0 0 Z " fill="#FFFFFF" transform="translate(275,357)"/>
<path d="M0 0 C1.98 0 3.96 0 6 0 C6 0.33 6 0.66 6 1 C4.02 1 2.04 1 0 1 C0 0.67 0 0.34 0 0 Z " fill="#FFFFFF" transform="translate(219,192)"/>
<path d="M0 0 C1.98 0 3.96 0 6 0 C6 0.33 6 0.66 6 1 C4.02 1 2.04 1 0 1 C0 0.67 0 0.34 0 0 Z " fill="#FFFFFF" transform="translate(232,136)"/>
<path d="M0 0 C0.66 0.33 1.32 0.66 2 1 C0.68 1.33 -0.64 1.66 -2 2 C-1.34 1.34 -0.68 0.68 0 0 Z " fill="#FFFFFF" transform="translate(209,425)"/>
<path d="M0 0 C0.99 0.99 1.98 1.98 3 3 C2.01 2.67 1.02 2.34 0 2 C0 1.34 0 0.68 0 0 Z " fill="#FFFFFF" transform="translate(72,421)"/>
<path d="M0 0 C0.99 0.99 1.98 1.98 3 3 C2.01 2.67 1.02 2.34 0 2 C0 1.34 0 0.68 0 0 Z " fill="#FFFFFF" transform="translate(398,420)"/>
<path d="M0 0 C0.99 0.99 1.98 1.98 3 3 C2.01 2.67 1.02 2.34 0 2 C0 1.34 0 0.68 0 0 Z " fill="#FFFFFF" transform="translate(454,419)"/>
<path d="M0 0 C0.66 1.32 1.32 2.64 2 4 C1.34 3.67 0.68 3.34 0 3 C0 2.01 0 1.02 0 0 Z " fill="#FFFFFF" transform="translate(246,410)"/>
<path d="M0 0 C0.33 0 0.66 0 1 0 C1 1.65 1 3.3 1 5 C0.67 5 0.34 5 0 5 C0 3.35 0 1.7 0 0 Z " fill="#FFFFFF" transform="translate(382,403)"/>
<path d="M0 0 C0.33 0 0.66 0 1 0 C1 1.65 1 3.3 1 5 C0.67 5 0.34 5 0 5 C0 3.35 0 1.7 0 0 Z " fill="#FFFFFF" transform="translate(382,384)"/>
<path d="M0 0 C0.33 0 0.66 0 1 0 C1 1.65 1 3.3 1 5 C0.67 5 0.34 5 0 5 C0 3.35 0 1.7 0 0 Z " fill="#FFFFFF" transform="translate(451,380)"/>
<path d="M0 0 C1.65 0 3.3 0 5 0 C5 0.33 5 0.66 5 1 C3.35 1 1.7 1 0 1 C0 0.67 0 0.34 0 0 Z " fill="#FFFFFF" transform="translate(355,362)"/>
<path d="M0 0 C1.32 0.33 2.64 0.66 4 1 C3.01 1.495 3.01 1.495 2 2 C1.34 1.34 0.68 0.68 0 0 Z " fill="#FFFFFF" transform="translate(41,345)"/>
<path d="M0 0 C1.65 0 3.3 0 5 0 C5 0.33 5 0.66 5 1 C3.35 1 1.7 1 0 1 C0 0.67 0 0.34 0 0 Z " fill="#FFFFFF" transform="translate(308,257)"/>
<path d="M0 0 C1.65 0 3.3 0 5 0 C5 0.33 5 0.66 5 1 C3.35 1 1.7 1 0 1 C0 0.67 0 0.34 0 0 Z " fill="#FFFFFF" transform="translate(274,257)"/>
<path d="M0 0 C1.65 0 3.3 0 5 0 C5 0.33 5 0.66 5 1 C3.35 1 1.7 1 0 1 C0 0.67 0 0.34 0 0 Z " fill="#FFFFFF" transform="translate(309,241)"/>
<path d="M0 0 C1.65 0 3.3 0 5 0 C5 0.33 5 0.66 5 1 C3.35 1 1.7 1 0 1 C0 0.67 0 0.34 0 0 Z " fill="#FFFFFF" transform="translate(273,241)"/>
<path d="M0 0 C0 0.99 0 1.98 0 3 C-0.66 2.67 -1.32 2.34 -2 2 C-1.34 1.34 -0.68 0.68 0 0 Z " fill="#FFFFFF" transform="translate(337,227)"/>
<path d="M0 0 C0.33 0 0.66 0 1 0 C1 1.65 1 3.3 1 5 C0.67 5 0.34 5 0 5 C0 3.35 0 1.7 0 0 Z " fill="#FFFFFF" transform="translate(338,222)"/>
<path d="M0 0 C0.33 0 0.66 0 1 0 C1 1.65 1 3.3 1 5 C0.67 5 0.34 5 0 5 C0 3.35 0 1.7 0 0 Z " fill="#FFFFFF" transform="translate(248,215)"/>
<path d="M0 0 C0.99 0.99 1.98 1.98 3 3 C2.01 2.67 1.02 2.34 0 2 C0 1.34 0 0.68 0 0 Z " fill="#FFFFFF" transform="translate(314,181)"/>
<path d="M0 0 C0.99 0.99 1.98 1.98 3 3 C2.01 2.67 1.02 2.34 0 2 C0 1.34 0 0.68 0 0 Z " fill="#FFFFFF" transform="translate(303,170)"/>
<path d="M0 0 C0.99 0.99 1.98 1.98 3 3 C2.01 2.67 1.02 2.34 0 2 C0 1.34 0 0.68 0 0 Z " fill="#FFFFFF" transform="translate(292,159)"/>
<path d="M0 0 C0 0.99 0 1.98 0 3 C-0.66 2.67 -1.32 2.34 -2 2 C-1.34 1.34 -0.68 0.68 0 0 Z " fill="#FFFFFF" transform="translate(320,148)"/>
<path d="M0 0 C0.99 0.33 1.98 0.66 3 1 C1.68 1.33 0.36 1.66 -1 2 C-0.67 1.34 -0.34 0.68 0 0 Z " fill="#FFFFFF" transform="translate(249,139)"/>
<path d="M0 0 C1.98 0.99 1.98 0.99 4 2 C2.68 1.67 1.36 1.34 0 1 C0 0.67 0 0.34 0 0 Z " fill="#FFFFFF" transform="translate(252,138)"/>
<path d="M0 0 C0.33 0 0.66 0 1 0 C1 1.65 1 3.3 1 5 C0.67 5 0.34 5 0 5 C0 3.35 0 1.7 0 0 Z " fill="#FFFFFF" transform="translate(221,121)"/>
<path d="M0 0 C0.99 0.33 1.98 0.66 3 1 C2.67 1.66 2.34 2.32 2 3 C1.34 2.01 0.68 1.02 0 0 Z " fill="#FFFFFF" transform="translate(345,98)"/>
<path d="M0 0 C0.66 0.33 1.32 0.66 2 1 C1.01 1 0.02 1 -1 1 C-0.67 0.67 -0.34 0.34 0 0 Z " fill="#FFFFFF" transform="translate(490,425)"/>
<path d="M0 0 C0.99 0.33 1.98 0.66 3 1 C2.01 1 1.02 1 0 1 C0 0.67 0 0.34 0 0 Z " fill="#FFFFFF" transform="translate(459,424)"/>
<path d="M0 0 C0.99 0.33 1.98 0.66 3 1 C2.01 1 1.02 1 0 1 C0 0.67 0 0.34 0 0 Z " fill="#FFFFFF" transform="translate(402,424)"/>
<path d="M0 0 C0.66 0.66 1.32 1.32 2 2 C1.01 2.495 1.01 2.495 0 3 C0 2.01 0 1.02 0 0 Z " fill="#FFFFFF" transform="translate(342,423)"/>
<path d="M0 0 C4 1 4 1 4 1 Z " fill="#FFFFFF" transform="translate(469,415)"/>
<path d="M0 0 C0.99 0.33 1.98 0.66 3 1 C2.01 1 1.02 1 0 1 C0 0.67 0 0.34 0 0 Z " fill="#FFFFFF" transform="translate(214,410)"/>
<path d="M0 0 C0.99 0.33 1.98 0.66 3 1 C2.01 1 1.02 1 0 1 C0 0.67 0 0.34 0 0 Z " fill="#FFFFFF" transform="translate(436,409)"/>
<path d="M0 0 C0.99 0.33 1.98 0.66 3 1 C2.01 1 1.02 1 0 1 C0 0.67 0 0.34 0 0 Z " fill="#FFFFFF" transform="translate(490,393)"/>
<path d="M0 0 C0.66 0.33 1.32 0.66 2 1 C1.01 1 0.02 1 -1 1 C-0.67 0.67 -0.34 0.34 0 0 Z " fill="#FFFFFF" transform="translate(47,392)"/>
<path d="M0 0 C4 1 4 1 4 1 Z " fill="#FFFFFF" transform="translate(473,388)"/>
<path d="M0 0 C1 4 1 4 1 4 Z " fill="#FFFFFF" transform="translate(443,383)"/>
<path d="M0 0 C0.99 0.33 1.98 0.66 3 1 C2.01 1 1.02 1 0 1 C0 0.67 0 0.34 0 0 Z " fill="#FFFFFF" transform="translate(492,368)"/>
<path d="M0 0 C0.66 0.66 1.32 1.32 2 2 C1.01 2.495 1.01 2.495 0 3 C0 2.01 0 1.02 0 0 Z " fill="#FFFFFF" transform="translate(144,366)"/>
<path d="M0 0 C0.99 0.33 1.98 0.66 3 1 C2.01 1 1.02 1 0 1 C0 0.67 0 0.34 0 0 Z " fill="#FFFFFF" transform="translate(488,365)"/>
<path d="M0 0 C0.99 0.33 1.98 0.66 3 1 C2.01 1 1.02 1 0 1 C0 0.67 0 0.34 0 0 Z " fill="#FFFFFF" transform="translate(429,365)"/>
<path d="M0 0 C0.66 0.33 1.32 0.66 2 1 C1.01 1 0.02 1 -1 1 C-0.67 0.67 -0.34 0.34 0 0 Z " fill="#FFFFFF" transform="translate(405,365)"/>
<path d="M0 0 C4 1 4 1 4 1 Z " fill="#FFFFFF" transform="translate(360,363)"/>
<path d="M0 0 C4 1 4 1 4 1 Z " fill="#FFFFFF" transform="translate(351,363)"/>
<path d="M0 0 C1 4 1 4 1 4 Z " fill="#FFFFFF" transform="translate(317,348)"/>
<path d="M0 0 C4 1 4 1 4 1 Z " fill="#FFFFFF" transform="translate(37,344)"/>
<path d="M0 0 C0.99 0.33 1.98 0.66 3 1 C2.01 1 1.02 1 0 1 C0 0.67 0 0.34 0 0 Z " fill="#FFFFFF" transform="translate(171,309)"/>
<path d="M0 0 C4 1 4 1 4 1 Z " fill="#FFFFFF" transform="translate(315,256)"/>
<path d="M0 0 C4 1 4 1 4 1 Z " fill="#FFFFFF" transform="translate(268,256)"/>
<path d="M0 0 C1.485 0.99 1.485 0.99 3 2 C2.01 2 1.02 2 0 2 C0 1.34 0 0.68 0 0 Z " fill="#FFFFFF" transform="translate(205,249)"/>
<path d="M0 0 C0.66 0.33 1.32 0.66 2 1 C1.01 1 0.02 1 -1 1 C-0.67 0.67 -0.34 0.34 0 0 Z " fill="#FFFFFF" transform="translate(349,242)"/>
<path d="M0 0 C1 4 1 4 1 4 Z " fill="#FFFFFF" transform="translate(202,129)"/>
<path d="M0 0 C0.66 0.33 1.32 0.66 2 1 C1.01 1 0.02 1 -1 1 C-0.67 0.67 -0.34 0.34 0 0 Z " fill="#FFFFFF" transform="translate(333,128)"/>
<path d="M0 0 C0 3 0 3 0 3 Z " fill="#FFFFFF" transform="translate(336,125)"/>
<path d="M0 0 C4 1 4 1 4 1 Z " fill="#FFFFFF" transform="translate(227,115)"/>
<path d="M0 0 C3 1 3 1 3 1 Z " fill="#FFFFFF" transform="translate(413,415)"/>
<path d="M0 0 C3 1 3 1 3 1 Z " fill="#FFFFFF" transform="translate(190,415)"/>
<path d="M0 0 C3 1 3 1 3 1 Z " fill="#FFFFFF" transform="translate(347,414)"/>
<path d="" fill="#FFFFFF" transform="translate(0,0)"/>
<path d="" fill="#FFFFFF" transform="translate(0,0)"/>
<path d="" fill="#FFFFFF" transform="translate(0,0)"/>
<path d="M0 0 C3 1 3 1 3 1 Z " fill="#FFFFFF" transform="translate(473,401)"/>
<path d="M0 0 C3 1 3 1 3 1 Z " fill="#FFFFFF" transform="translate(467,400)"/>
<path d="" fill="#FFFFFF" transform="translate(0,0)"/>
<path d="" fill="#FFFFFF" transform="translate(0,0)"/>
<path d="" fill="#FFFFFF" transform="translate(0,0)"/>
<path d="" fill="#FFFFFF" transform="translate(0,0)"/>
<path d="" fill="#FFFFFF" transform="translate(0,0)"/>
<path d="M0 0 C3 1 3 1 3 1 Z " fill="#FFFFFF" transform="translate(420,376)"/>
<path d="M0 0 C3 1 3 1 3 1 Z " fill="#FFFFFF" transform="translate(189,376)"/>
<path d="M0 0 C0.99 0.495 0.99 0.495 2 1 C1.01 1.495 1.01 1.495 0 2 C0 1.34 0 0.68 0 0 Z " fill="#FFFFFF" transform="translate(454,372)"/>
<path d="M0 0 C3 1 3 1 3 1 Z " fill="#FFFFFF" transform="translate(35,357)"/>
<path d="" fill="#FFFFFF" transform="translate(0,0)"/>
<path d="" fill="#FFFFFF" transform="translate(0,0)"/>
<path d="M0 0 C3 1 3 1 3 1 Z " fill="#FFFFFF" transform="translate(259,311)"/>
<path d="M0 0 C3 1 3 1 3 1 Z " fill="#FFFFFF" transform="translate(174,311)"/>
<path d="M0 0 C3 1 3 1 3 1 Z " fill="#FFFFFF" transform="translate(265,255)"/>
<path d="M0 0 C3 1 3 1 3 1 Z " fill="#FFFFFF" transform="translate(262,254)"/>
<path d="M0 0 C3 1 3 1 3 1 Z " fill="#FFFFFF" transform="translate(259,253)"/>
<path d="M0 0 C3 1 3 1 3 1 Z " fill="#FFFFFF" transform="translate(321,238)"/>
<path d="M0 0 C3 1 3 1 3 1 Z " fill="#FFFFFF" transform="translate(221,236)"/>
<path d="M0 0 C3 1 3 1 3 1 Z " fill="#FFFFFF" transform="translate(213,236)"/>
<path d="" fill="#FFFFFF" transform="translate(0,0)"/>
<path d="M0 0 C0.66 0.66 1.32 1.32 2 2 C1.34 2 0.68 2 0 2 C0 1.34 0 0.68 0 0 Z " fill="#FFFFFF" transform="translate(342,209)"/>
<path d="M0 0 C0.66 0.66 1.32 1.32 2 2 C1.34 2 0.68 2 0 2 C0 1.34 0 0.68 0 0 Z " fill="#FFFFFF" transform="translate(335,202)"/>
<path d="M0 0 C0.66 0.66 1.32 1.32 2 2 C1.34 2 0.68 2 0 2 C0 1.34 0 0.68 0 0 Z " fill="#FFFFFF" transform="translate(331,198)"/>
<path d="M0 0 C0.66 0.66 1.32 1.32 2 2 C1.34 2 0.68 2 0 2 C0 1.34 0 0.68 0 0 Z " fill="#FFFFFF" transform="translate(320,187)"/>
<path d="" fill="#FFFFFF" transform="translate(0,0)"/>
<path d="M0 0 C0.33 0.66 0.66 1.32 1 2 C0.34 1.67 -0.32 1.34 -1 1 C-0.67 0.67 -0.34 0.34 0 0 Z " fill="#FFFFFF" transform="translate(298,140)"/>
<path d="M0 0 C3 1 3 1 3 1 Z " fill="#FFFFFF" transform="translate(329,130)"/>
<path d="M0 0 C3 1 3 1 3 1 Z " fill="#FFFFFF" transform="translate(319,130)"/>
<path d="" fill="#FFFFFF" transform="translate(0,0)"/>
<path d="" fill="#FFFFFF" transform="translate(0,0)"/>
<path d="M0 0 C0.66 0 1.32 0 2 0 C1.67 0.66 1.34 1.32 1 2 C0.67 1.34 0.34 0.68 0 0 Z " fill="#FFFFFF" transform="translate(240,124)"/>
<path d="" fill="#FFFFFF" transform="translate(0,0)"/>
<path d="M0 0 C0.66 0 1.32 0 2 0 C1.67 0.66 1.34 1.32 1 2 C0.67 1.34 0.34 0.68 0 0 Z " fill="#FFFFFF" transform="translate(342,95)"/>
<path d="M0 0 C3 1 3 1 3 1 Z " fill="#FFFFFF" transform="translate(332,90)"/>
<path d="M0 0 C3 1 3 1 3 1 Z " fill="#FFFFFF" transform="translate(316,90)"/>
<path d="M0 0 C2 1 2 1 2 1 Z " fill="#FFFFFF" transform="translate(462,426)"/>
<path d="M0 0 C2 1 2 1 2 1 Z " fill="#FFFFFF" transform="translate(431,426)"/>
<path d="M0 0 C2 1 2 1 2 1 Z " fill="#FFFFFF" transform="translate(405,426)"/>
<path d="M0 0 C2 1 2 1 2 1 Z " fill="#FFFFFF" transform="translate(345,426)"/>
<path d="M0 0 C2 1 2 1 2 1 Z " fill="#FFFFFF" transform="translate(182,426)"/>
<path d="M0 0 C2 1 2 1 2 1 Z " fill="#FFFFFF" transform="translate(77,426)"/>
<path d="M0 0 C2 1 2 1 2 1 Z " fill="#FFFFFF" transform="translate(369,425)"/>
<path d="M0 0 C2 1 2 1 2 1 Z " fill="#FFFFFF" transform="translate(180,425)"/>
<path d="M0 0 C2 1 2 1 2 1 Z " fill="#FFFFFF" transform="translate(102,425)"/>
<path d="M0 0 C2 1 2 1 2 1 Z " fill="#FFFFFF" transform="translate(493,423)"/>
<path d="" fill="#FFFFFF" transform="translate(0,0)"/>
<path d="M0 0 C2 1 2 1 2 1 Z " fill="#FFFFFF" transform="translate(467,414)"/>
<path d="M0 0 C2 1 2 1 2 1 Z " fill="#FFFFFF" transform="translate(427,414)"/>
<path d="M0 0 C2 1 2 1 2 1 Z " fill="#FFFFFF" transform="translate(411,414)"/>
<path d="M0 0 C2 1 2 1 2 1 Z " fill="#FFFFFF" transform="translate(203,414)"/>
<path d="M0 0 C2 1 2 1 2 1 Z " fill="#FFFFFF" transform="translate(97,414)"/>
<path d="M0 0 C2 1 2 1 2 1 Z " fill="#FFFFFF" transform="translate(100,413)"/>
<path d="" fill="#FFFFFF" transform="translate(0,0)"/>
<path d="" fill="#FFFFFF" transform="translate(0,0)"/>
<path d="M0 0 C2 1 2 1 2 1 Z " fill="#FFFFFF" transform="translate(484,405)"/>
<path d="M0 0 C2 1 2 1 2 1 Z " fill="#FFFFFF" transform="translate(482,404)"/>
<path d="M0 0 C2 1 2 1 2 1 Z " fill="#FFFFFF" transform="translate(465,399)"/>
<path d="" fill="#FFFFFF" transform="translate(0,0)"/>
<path d="M0 0 C2 1 2 1 2 1 Z " fill="#FFFFFF" transform="translate(463,398)"/>
<path d="" fill="#FFFFFF" transform="translate(0,0)"/>
<path d="M0 0 C2 1 2 1 2 1 Z " fill="#FFFFFF" transform="translate(461,397)"/>
<path d="" fill="#FFFFFF" transform="translate(0,0)"/>
<path d="" fill="#FFFFFF" transform="translate(0,0)"/>
<path d="M0 0 C2 1 2 1 2 1 Z " fill="#FFFFFF" transform="translate(41,395)"/>
<path d="M0 0 C2 1 2 1 2 1 Z " fill="#FFFFFF" transform="translate(44,394)"/>
<path d="" fill="#FFFFFF" transform="translate(0,0)"/>
<path d="M0 0 C2 1 2 1 2 1 Z " fill="#FFFFFF" transform="translate(488,392)"/>
<path d="M0 0 C2 1 2 1 2 1 Z " fill="#FFFFFF" transform="translate(484,391)"/>
<path d="M0 0 C2 1 2 1 2 1 Z " fill="#FFFFFF" transform="translate(471,387)"/>
<path d="M0 0 C2 1 2 1 2 1 Z " fill="#FFFFFF" transform="translate(468,386)"/>
<path d="" fill="#FFFFFF" transform="translate(0,0)"/>
<path d="" fill="#FFFFFF" transform="translate(0,0)"/>
<path d="" fill="#FFFFFF" transform="translate(0,0)"/>
<path d="" fill="#FFFFFF" transform="translate(0,0)"/>
<path d="M0 0 C2 1 2 1 2 1 Z " fill="#FFFFFF" transform="translate(39,381)"/>
<path d="" fill="#FFFFFF" transform="translate(0,0)"/>
<path d="" fill="#FFFFFF" transform="translate(0,0)"/>
<path d="" fill="#FFFFFF" transform="translate(0,0)"/>
<path d="" fill="#FFFFFF" transform="translate(0,0)"/>
<path d="M0 0 C2 1 2 1 2 1 Z " fill="#FFFFFF" transform="translate(150,378)"/>
<path d="M0 0 C2 1 2 1 2 1 Z " fill="#FFFFFF" transform="translate(468,377)"/>
<path d="M0 0 C2 1 2 1 2 1 Z " fill="#FFFFFF" transform="translate(423,377)"/>
<path d="M0 0 C2 1 2 1 2 1 Z " fill="#FFFFFF" transform="translate(410,377)"/>
<path d="M0 0 C2 1 2 1 2 1 Z " fill="#FFFFFF" transform="translate(361,377)"/>
<path d="M0 0 C2 1 2 1 2 1 Z " fill="#FFFFFF" transform="translate(347,377)"/>
<path d="M0 0 C2 1 2 1 2 1 Z " fill="#FFFFFF" transform="translate(200,377)"/>
<path d="M0 0 C2 1 2 1 2 1 Z " fill="#FFFFFF" transform="translate(187,377)"/>
<path d="" fill="#FFFFFF" transform="translate(0,0)"/>
<path d="" fill="#FFFFFF" transform="translate(0,0)"/>
<path d="" fill="#FFFFFF" transform="translate(0,0)"/>
<path d="M0 0 C2 1 2 1 2 1 Z " fill="#FFFFFF" transform="translate(461,366)"/>
<path d="M0 0 C2 1 2 1 2 1 Z " fill="#FFFFFF" transform="translate(207,366)"/>
<path d="M0 0 C2 1 2 1 2 1 Z " fill="#FFFFFF" transform="translate(368,365)"/>
<path d="M0 0 C2 1 2 1 2 1 Z " fill="#FFFFFF" transform="translate(345,365)"/>
<path d="" fill="#FFFFFF" transform="translate(0,0)"/>
<path d="M0 0 C2 1 2 1 2 1 Z " fill="#FFFFFF" transform="translate(182,365)"/>
<path d="M0 0 C2 1 2 1 2 1 Z " fill="#FFFFFF" transform="translate(366,364)"/>
<path d="M0 0 C2 1 2 1 2 1 Z " fill="#FFFFFF" transform="translate(203,364)"/>
<path d="M0 0 C2 1 2 1 2 1 Z " fill="#FFFFFF" transform="translate(184,364)"/>
<path d="" fill="#FFFFFF" transform="translate(0,0)"/>
<path d="" fill="#FFFFFF" transform="translate(0,0)"/>
<path d="M0 0 C2 1 2 1 2 1 Z " fill="#FFFFFF" transform="translate(38,358)"/>
<path d="" fill="#FFFFFF" transform="translate(0,0)"/>
<path d="" fill="#FFFFFF" transform="translate(0,0)"/>
<path d="" fill="#FFFFFF" transform="translate(0,0)"/>
<path d="M0 0 C2 1 2 1 2 1 Z " fill="#FFFFFF" transform="translate(262,310)"/>
<path d="" fill="#FFFFFF" transform="translate(0,0)"/>
<path d="" fill="#FFFFFF" transform="translate(0,0)"/>
<path d="" fill="#FFFFFF" transform="translate(0,0)"/>
<path d="" fill="#FFFFFF" transform="translate(0,0)"/>
<path d="" fill="#FFFFFF" transform="translate(0,0)"/>
<path d="" fill="#FFFFFF" transform="translate(0,0)"/>
<path d="M0 0 C2 1 2 1 2 1 Z " fill="#FFFFFF" transform="translate(328,252)"/>
<path d="M0 0 C2 1 2 1 2 1 Z " fill="#FFFFFF" transform="translate(257,252)"/>
<path d="M0 0 C2 1 2 1 2 1 Z " fill="#FFFFFF" transform="translate(332,251)"/>
<path d="M0 0 C2 1 2 1 2 1 Z " fill="#FFFFFF" transform="translate(253,251)"/>
<path d="M0 0 C2 1 2 1 2 1 Z " fill="#FFFFFF" transform="translate(226,251)"/>
<path d="M0 0 C2 1 2 1 2 1 Z " fill="#FFFFFF" transform="translate(209,251)"/>
<path d="M0 0 C2 1 2 1 2 1 Z " fill="#FFFFFF" transform="translate(251,250)"/>
<path d="M0 0 C2 1 2 1 2 1 Z " fill="#FFFFFF" transform="translate(228,250)"/>
<path d="M0 0 C2 1 2 1 2 1 Z " fill="#FFFFFF" transform="translate(340,247)"/>
<path d="M0 0 C2 1 2 1 2 1 Z " fill="#FFFFFF" transform="translate(342,246)"/>
<path d="M0 0 C2 1 2 1 2 1 Z " fill="#FFFFFF" transform="translate(346,244)"/>
<path d="M0 0 C2 1 2 1 2 1 Z " fill="#FFFFFF" transform="translate(354,239)"/>
<path d="M0 0 C2 1 2 1 2 1 Z " fill="#FFFFFF" transform="translate(324,237)"/>
<path d="M0 0 C2 1 2 1 2 1 Z " fill="#FFFFFF" transform="translate(261,237)"/>
<path d="M0 0 C2 1 2 1 2 1 Z " fill="#FFFFFF" transform="translate(328,236)"/>
<path d="M0 0 C2 1 2 1 2 1 Z " fill="#FFFFFF" transform="translate(257,236)"/>
<path d="M0 0 C2 1 2 1 2 1 Z " fill="#FFFFFF" transform="translate(330,235)"/>
<path d="M0 0 C2 1 2 1 2 1 Z " fill="#FFFFFF" transform="translate(255,235)"/>
<path d="M0 0 C2 1 2 1 2 1 Z " fill="#FFFFFF" transform="translate(224,235)"/>
<path d="M0 0 C2 1 2 1 2 1 Z " fill="#FFFFFF" transform="translate(211,235)"/>
<path d="M0 0 C2 1 2 1 2 1 Z " fill="#FFFFFF" transform="translate(332,234)"/>
<path d="M0 0 C2 1 2 1 2 1 Z " fill="#FFFFFF" transform="translate(253,234)"/>
<path d="M0 0 C2 1 2 1 2 1 Z " fill="#FFFFFF" transform="translate(209,234)"/>
<path d="M0 0 C2 1 2 1 2 1 Z " fill="#FFFFFF" transform="translate(334,233)"/>
<path d="M0 0 C2 1 2 1 2 1 Z " fill="#FFFFFF" transform="translate(251,233)"/>
<path d="M0 0 C2 1 2 1 2 1 Z " fill="#FFFFFF" transform="translate(336,232)"/>
<path d="" fill="#FFFFFF" transform="translate(0,0)"/>
<path d="M0 0 C2 1 2 1 2 1 Z " fill="#FFFFFF" transform="translate(340,230)"/>
<path d="M0 0 C2 1 2 1 2 1 Z " fill="#FFFFFF" transform="translate(343,228)"/>
<path d="M0 0 C2 1 2 1 2 1 Z " fill="#FFFFFF" transform="translate(346,226)"/>
<path d="M0 0 C2 1 2 1 2 1 Z " fill="#FFFFFF" transform="translate(349,224)"/>
<path d="" fill="#FFFFFF" transform="translate(0,0)"/>
<path d="" fill="#FFFFFF" transform="translate(0,0)"/>
<path d="M0 0 C2 1 2 1 2 1 Z " fill="#FFFFFF" transform="translate(225,209)"/>
<path d="M0 0 C2 1 2 1 2 1 Z " fill="#FFFFFF" transform="translate(223,208)"/>
<path d="M0 0 C2 1 2 1 2 1 Z " fill="#FFFFFF" transform="translate(211,208)"/>
<path d="M0 0 C2 1 2 1 2 1 Z " fill="#FFFFFF" transform="translate(233,196)"/>
<path d="M0 0 C2 1 2 1 2 1 Z " fill="#FFFFFF" transform="translate(230,194)"/>
<path d="M0 0 C2 1 2 1 2 1 Z " fill="#FFFFFF" transform="translate(228,193)"/>
<path d="" fill="#FFFFFF" transform="translate(0,0)"/>
<path d="" fill="#FFFFFF" transform="translate(0,0)"/>
<path d="" fill="#FFFFFF" transform="translate(0,0)"/>
<path d="M0 0 C2 1 2 1 2 1 Z " fill="#FFFFFF" transform="translate(331,146)"/>
<path d="M0 0 C2 1 2 1 2 1 Z " fill="#FFFFFF" transform="translate(334,145)"/>
<path d="M0 0 C2 1 2 1 2 1 Z " fill="#FFFFFF" transform="translate(336,144)"/>
<path d="M0 0 C2 1 2 1 2 1 Z " fill="#FFFFFF" transform="translate(338,143)"/>
<path d="M0 0 C2 1 2 1 2 1 Z " fill="#FFFFFF" transform="translate(258,142)"/>
<path d="" fill="#FFFFFF" transform="translate(0,0)"/>
<path d="M0 0 C2 1 2 1 2 1 Z " fill="#FFFFFF" transform="translate(316,128)"/>
<path d="" fill="#FFFFFF" transform="translate(0,0)"/>
<path d="" fill="#FFFFFF" transform="translate(0,0)"/>
<path d="" fill="#FFFFFF" transform="translate(0,0)"/>
<path d="" fill="#FFFFFF" transform="translate(0,0)"/>
<path d="M0 0 C2 1 2 1 2 1 Z " fill="#FFFFFF" transform="translate(319,106)"/>
<path d="M0 0 C2 1 2 1 2 1 Z " fill="#FFFFFF" transform="translate(337,92)"/>
<path d="M0 0 C2 1 2 1 2 1 Z " fill="#FFFFFF" transform="translate(335,91)"/>
<path d="M0 0 C2 1 2 1 2 1 Z " fill="#FFFFFF" transform="translate(314,91)"/>
<path d="" fill="#FFFFFF" transform="translate(0,0)"/>
<path d="" fill="#FFFFFF" transform="translate(0,0)"/>
<path d="" fill="#FFFFFF" transform="translate(0,0)"/>
<path d="" fill="#FFFFFF" transform="translate(0,0)"/>
<path d="" fill="#FFFFFF" transform="translate(0,0)"/>
<path d="" fill="#FFFFFF" transform="translate(0,0)"/>
<path d="" fill="#FFFFFF" transform="translate(0,0)"/>
<path d="" fill="#FFFFFF" transform="translate(0,0)"/>
<path d="" fill="#FFFFFF" transform="translate(0,0)"/>
<path d="" fill="#FFFFFF" transform="translate(0,0)"/>
<path d="" fill="#FFFFFF" transform="translate(0,0)"/>
<path d="" fill="#FFFFFF" transform="translate(0,0)"/>
<path d="" fill="#FFFFFF" transform="translate(0,0)"/>
<path d="" fill="#FFFFFF" transform="translate(0,0)"/>
<path d="" fill="#FFFFFF" transform="translate(0,0)"/>
<path d="" fill="#FFFFFF" transform="translate(0,0)"/>
<path d="" fill="#FFFFFF" transform="translate(0,0)"/>
<path d="" fill="#FFFFFF" transform="translate(0,0)"/>
<path d="" fill="#FFFFFF" transform="translate(0,0)"/>
<path d="" fill="#FFFFFF" transform="translate(0,0)"/>
<path d="" fill="#FFFFFF" transform="translate(0,0)"/>
<path d="" fill="#FFFFFF" transform="translate(0,0)"/>
<path d="" fill="#FFFFFF" transform="translate(0,0)"/>
<path d="" fill="#FFFFFF" transform="translate(0,0)"/>
<path d="" fill="#FFFFFF" transform="translate(0,0)"/>
<path d="" fill="#FFFFFF" transform="translate(0,0)"/>
<path d="" fill="#FFFFFF" transform="translate(0,0)"/>
<path d="" fill="#FFFFFF" transform="translate(0,0)"/>
<path d="" fill="#FFFFFF" transform="translate(0,0)"/>
<path d="" fill="#FFFFFF" transform="translate(0,0)"/>
<path d="" fill="#FFFFFF" transform="translate(0,0)"/>
<path d="" fill="#FFFFFF" transform="translate(0,0)"/>
<path d="" fill="#FFFFFF" transform="translate(0,0)"/>
<path d="" fill="#FFFFFF" transform="translate(0,0)"/>
<path d="" fill="#FFFFFF" transform="translate(0,0)"/>
<path d="" fill="#FFFFFF" transform="translate(0,0)"/>
<path d="" fill="#FFFFFF" transform="translate(0,0)"/>
<path d="" fill="#FFFFFF" transform="translate(0,0)"/>
<path d="" fill="#FFFFFF" transform="translate(0,0)"/>
<path d="" fill="#FFFFFF" transform="translate(0,0)"/>
<path d="" fill="#FFFFFF" transform="translate(0,0)"/>
<path d="" fill="#FFFFFF" transform="translate(0,0)"/>
<path d="" fill="#FFFFFF" transform="translate(0,0)"/>
<path d="" fill="#FFFFFF" transform="translate(0,0)"/>
<path d="" fill="#FFFFFF" transform="translate(0,0)"/>
<path d="" fill="#FFFFFF" transform="translate(0,0)"/>
<path d="" fill="#FFFFFF" transform="translate(0,0)"/>
<path d="" fill="#FFFFFF" transform="translate(0,0)"/>
<path d="" fill="#FFFFFF" transform="translate(0,0)"/>
<path d="" fill="#FFFFFF" transform="translate(0,0)"/>
<path d="" fill="#FFFFFF" transform="translate(0,0)"/>
<path d="" fill="#FFFFFF" transform="translate(0,0)"/>
<path d="" fill="#FFFFFF" transform="translate(0,0)"/>
<path d="" fill="#FFFFFF" transform="translate(0,0)"/>
<path d="" fill="#FFFFFF" transform="translate(0,0)"/>
<path d="" fill="#FFFFFF" transform="translate(0,0)"/>
<path d="" fill="#FFFFFF" transform="translate(0,0)"/>
<path d="" fill="#FFFFFF" transform="translate(0,0)"/>
<path d="" fill="#FFFFFF" transform="translate(0,0)"/>
<path d="" fill="#FFFFFF" transform="translate(0,0)"/>
<path d="" fill="#FFFFFF" transform="translate(0,0)"/>
<path d="" fill="#FFFFFF" transform="translate(0,0)"/>
<path d="" fill="#FFFFFF" transform="translate(0,0)"/>
<path d="" fill="#FFFFFF" transform="translate(0,0)"/>
<path d="" fill="#FFFFFF" transform="translate(0,0)"/>
<path d="" fill="#FFFFFF" transform="translate(0,0)"/>
<path d="" fill="#FFFFFF" transform="translate(0,0)"/>
<path d="" fill="#FFFFFF" transform="translate(0,0)"/>
<path d="" fill="#FFFFFF" transform="translate(0,0)"/>
<path d="" fill="#FFFFFF" transform="translate(0,0)"/>
<path d="" fill="#FFFFFF" transform="translate(0,0)"/>
<path d="" fill="#FFFFFF" transform="translate(0,0)"/>
<path d="" fill="#FFFFFF" transform="translate(0,0)"/>
<path d="" fill="#FFFFFF" transform="translate(0,0)"/>
<path d="" fill="#FFFFFF" transform="translate(0,0)"/>
<path d="" fill="#FFFFFF" transform="translate(0,0)"/>
<path d="" fill="#FFFFFF" transform="translate(0,0)"/>
<path d="" fill="#FFFFFF" transform="translate(0,0)"/>
<path d="" fill="#FFFFFF" transform="translate(0,0)"/>
<path d="" fill="#FFFFFF" transform="translate(0,0)"/>
<path d="" fill="#FFFFFF" transform="translate(0,0)"/>
<path d="" fill="#FFFFFF" transform="translate(0,0)"/>
<path d="" fill="#FFFFFF" transform="translate(0,0)"/>
<path d="" fill="#FFFFFF" transform="translate(0,0)"/>
<path d="" fill="#FFFFFF" transform="translate(0,0)"/>
<path d="" fill="#FFFFFF" transform="translate(0,0)"/>
<path d="" fill="#FFFFFF" transform="translate(0,0)"/>
<path d="" fill="#FFFFFF" transform="translate(0,0)"/>
<path d="" fill="#FFFFFF" transform="translate(0,0)"/>
<path d="" fill="#FFFFFF" transform="translate(0,0)"/>
<path d="" fill="#FFFFFF" transform="translate(0,0)"/>
<path d="" fill="#FFFFFF" transform="translate(0,0)"/>
<path d="" fill="#FFFFFF" transform="translate(0,0)"/>
<path d="" fill="#FFFFFF" transform="translate(0,0)"/>
<path d="" fill="#FFFFFF" transform="translate(0,0)"/>
<path d="" fill="#FFFFFF" transform="translate(0,0)"/>
<path d="" fill="#FFFFFF" transform="translate(0,0)"/>
<path d="" fill="#FFFFFF" transform="translate(0,0)"/>
<path d="" fill="#FFFFFF" transform="translate(0,0)"/>
<path d="" fill="#FFFFFF" transform="translate(0,0)"/>
<path d="" fill="#FFFFFF" transform="translate(0,0)"/>
<path d="" fill="#FFFFFF" transform="translate(0,0)"/>
<path d="" fill="#FFFFFF" transform="translate(0,0)"/>
<path d="" fill="#FFFFFF" transform="translate(0,0)"/>
<path d="" fill="#FFFFFF" transform="translate(0,0)"/>
<path d="" fill="#FFFFFF" transform="translate(0,0)"/>
<path d="" fill="#FFFFFF" transform="translate(0,0)"/>
<path d="" fill="#FFFFFF" transform="translate(0,0)"/>
<path d="" fill="#FFFFFF" transform="translate(0,0)"/>
<path d="" fill="#FFFFFF" transform="translate(0,0)"/>
<path d="" fill="#FFFFFF" transform="translate(0,0)"/>
<path d="" fill="#FFFFFF" transform="translate(0,0)"/>
<path d="" fill="#FFFFFF" transform="translate(0,0)"/>
<path d="" fill="#FFFFFF" transform="translate(0,0)"/>
<path d="" fill="#FFFFFF" transform="translate(0,0)"/>
<path d="" fill="#FFFFFF" transform="translate(0,0)"/>
<path d="" fill="#FFFFFF" transform="translate(0,0)"/>
<path d="" fill="#FFFFFF" transform="translate(0,0)"/>
<path d="" fill="#FFFFFF" transform="translate(0,0)"/>
<path d="" fill="#FFFFFF" transform="translate(0,0)"/>
<path d="" fill="#FFFFFF" transform="translate(0,0)"/>
<path d="" fill="#FFFFFF" transform="translate(0,0)"/>
<path d="" fill="#FFFFFF" transform="translate(0,0)"/>
<path d="" fill="#FFFFFF" transform="translate(0,0)"/>
<path d="" fill="#FFFFFF" transform="translate(0,0)"/>
<path d="" fill="#FFFFFF" transform="translate(0,0)"/>
<path d="" fill="#FFFFFF" transform="translate(0,0)"/>
<path d="" fill="#FFFFFF" transform="translate(0,0)"/>
<path d="" fill="#FFFFFF" transform="translate(0,0)"/>
<path d="" fill="#FFFFFF" transform="translate(0,0)"/>
<path d="" fill="#FFFFFF" transform="translate(0,0)"/>
<path d="" fill="#FFFFFF" transform="translate(0,0)"/>
<path d="" fill="#FFFFFF" transform="translate(0,0)"/>
<path d="" fill="#FFFFFF" transform="translate(0,0)"/>
<path d="" fill="#FFFFFF" transform="translate(0,0)"/>
<path d="" fill="#FFFFFF" transform="translate(0,0)"/>
<path d="" fill="#FFFFFF" transform="translate(0,0)"/>
<path d="" fill="#FFFFFF" transform="translate(0,0)"/>
<path d="" fill="#FFFFFF" transform="translate(0,0)"/>
<path d="" fill="#FFFFFF" transform="translate(0,0)"/>
<path d="" fill="#FFFFFF" transform="translate(0,0)"/>
<path d="" fill="#FFFFFF" transform="translate(0,0)"/>
<path d="" fill="#FFFFFF" transform="translate(0,0)"/>
<path d="" fill="#FFFFFF" transform="translate(0,0)"/>
<path d="" fill="#FFFFFF" transform="translate(0,0)"/>
<path d="" fill="#FFFFFF" transform="translate(0,0)"/>
<path d="" fill="#FFFFFF" transform="translate(0,0)"/>
<path d="" fill="#FFFFFF" transform="translate(0,0)"/>
<path d="" fill="#FFFFFF" transform="translate(0,0)"/>
<path d="" fill="#FFFFFF" transform="translate(0,0)"/>
<path d="" fill="#FFFFFF" transform="translate(0,0)"/>
<path d="" fill="#FFFFFF" transform="translate(0,0)"/>
<path d="" fill="#FFFFFF" transform="translate(0,0)"/>
<path d="" fill="#FFFFFF" transform="translate(0,0)"/>
<path d="" fill="#FFFFFF" transform="translate(0,0)"/>
<path d="" fill="#FFFFFF" transform="translate(0,0)"/>
<path d="" fill="#FFFFFF" transform="translate(0,0)"/>
<path d="" fill="#FFFFFF" transform="translate(0,0)"/>
<path d="" fill="#FFFFFF" transform="translate(0,0)"/>
<path d="" fill="#FFFFFF" transform="translate(0,0)"/>
<path d="" fill="#FFFFFF" transform="translate(0,0)"/>
<path d="" fill="#FFFFFF" transform="translate(0,0)"/>
<path d="" fill="#FFFFFF" transform="translate(0,0)"/>
<path d="" fill="#FFFFFF" transform="translate(0,0)"/>
<path d="" fill="#FFFFFF" transform="translate(0,0)"/>
<path d="" fill="#FFFFFF" transform="translate(0,0)"/>
<path d="" fill="#FFFFFF" transform="translate(0,0)"/>
<path d="" fill="#FFFFFF" transform="translate(0,0)"/>
<path d="" fill="#FFFFFF" transform="translate(0,0)"/>
<path d="" fill="#FFFFFF" transform="translate(0,0)"/>
<path d="" fill="#FFFFFF" transform="translate(0,0)"/>
<path d="" fill="#FFFFFF" transform="translate(0,0)"/>
<path d="" fill="#FFFFFF" transform="translate(0,0)"/>
<path d="" fill="#FFFFFF" transform="translate(0,0)"/>
<path d="" fill="#FFFFFF" transform="translate(0,0)"/>
<path d="" fill="#FFFFFF" transform="translate(0,0)"/>
<path d="" fill="#FFFFFF" transform="translate(0,0)"/>
<path d="" fill="#FFFFFF" transform="translate(0,0)"/>
<path d="" fill="#FFFFFF" transform="translate(0,0)"/>
<path d="" fill="#FFFFFF" transform="translate(0,0)"/>
<path d="" fill="#FFFFFF" transform="translate(0,0)"/>
<path d="" fill="#FFFFFF" transform="translate(0,0)"/>
<path d="" fill="#FFFFFF" transform="translate(0,0)"/>
<path d="" fill="#FFFFFF" transform="translate(0,0)"/>
<path d="" fill="#FFFFFF" transform="translate(0,0)"/>
<path d="" fill="#FFFFFF" transform="translate(0,0)"/>
<path d="" fill="#FFFFFF" transform="translate(0,0)"/>
<path d="" fill="#FFFFFF" transform="translate(0,0)"/>
<path d="" fill="#FFFFFF" transform="translate(0,0)"/>
<path d="" fill="#FFFFFF" transform="translate(0,0)"/>
<path d="" fill="#FFFFFF" transform="translate(0,0)"/>
<path d="" fill="#FFFFFF" transform="translate(0,0)"/>
<path d="" fill="#FFFFFF" transform="translate(0,0)"/>
<path d="" fill="#FFFFFF" transform="translate(0,0)"/>
<path d="" fill="#FFFFFF" transform="translate(0,0)"/>
<path d="" fill="#FFFFFF" transform="translate(0,0)"/>
<path d="" fill="#FFFFFF" transform="translate(0,0)"/>
<path d="" fill="#FFFFFF" transform="translate(0,0)"/>
<path d="" fill="#FFFFFF" transform="translate(0,0)"/>
<path d="" fill="#FFFFFF" transform="translate(0,0)"/>
<path d="" fill="#FFFFFF" transform="translate(0,0)"/>
<path d="" fill="#FFFFFF" transform="translate(0,0)"/>
<path d="" fill="#FFFFFF" transform="translate(0,0)"/>
<path d="" fill="#FFFFFF" transform="translate(0,0)"/>
<path d="" fill="#FFFFFF" transform="translate(0,0)"/>
<path d="" fill="#FFFFFF" transform="translate(0,0)"/>
<path d="" fill="#FFFFFF" transform="translate(0,0)"/>
<path d="" fill="#FFFFFF" transform="translate(0,0)"/>
<path d="" fill="#FFFFFF" transform="translate(0,0)"/>
<path d="" fill="#FFFFFF" transform="translate(0,0)"/>
<path d="" fill="#FFFFFF" transform="translate(0,0)"/>
<path d="" fill="#FFFFFF" transform="translate(0,0)"/>
<path d="" fill="#FFFFFF" transform="translate(0,0)"/>
<path d="" fill="#FFFFFF" transform="translate(0,0)"/>
<path d="" fill="#FFFFFF" transform="translate(0,0)"/>
<path d="" fill="#FFFFFF" transform="translate(0,0)"/>
<path d="" fill="#FFFFFF" transform="translate(0,0)"/>
<path d="" fill="#FFFFFF" transform="translate(0,0)"/>
<path d="" fill="#FFFFFF" transform="translate(0,0)"/>
<path d="" fill="#FFFFFF" transform="translate(0,0)"/>
<path d="" fill="#FFFFFF" transform="translate(0,0)"/>
<path d="" fill="#FFFFFF" transform="translate(0,0)"/>
<path d="" fill="#FFFFFF" transform="translate(0,0)"/>
<path d="" fill="#FFFFFF" transform="translate(0,0)"/>
<path d="" fill="#FFFFFF" transform="translate(0,0)"/>
<path d="" fill="#FFFFFF" transform="translate(0,0)"/>
<path d="" fill="#FFFFFF" transform="translate(0,0)"/>
<path d="" fill="#FFFFFF" transform="translate(0,0)"/>
<path d="" fill="#FFFFFF" transform="translate(0,0)"/>
<path d="" fill="#FFFFFF" transform="translate(0,0)"/>
<path d="" fill="#FFFFFF" transform="translate(0,0)"/>
<path d="" fill="#FFFFFF" transform="translate(0,0)"/>
<path d="" fill="#FFFFFF" transform="translate(0,0)"/>
<path d="" fill="#FFFFFF" transform="translate(0,0)"/>
<path d="" fill="#FFFFFF" transform="translate(0,0)"/>
<path d="" fill="#FFFFFF" transform="translate(0,0)"/>
<path d="" fill="#FFFFFF" transform="translate(0,0)"/>
<path d="" fill="#FFFFFF" transform="translate(0,0)"/>
<path d="" fill="#FFFFFF" transform="translate(0,0)"/>
<path d="" fill="#FFFFFF" transform="translate(0,0)"/>
<path d="" fill="#FFFFFF" transform="translate(0,0)"/>
<path d="" fill="#FFFFFF" transform="translate(0,0)"/>
<path d="" fill="#FFFFFF" transform="translate(0,0)"/>
<path d="" fill="#FFFFFF" transform="translate(0,0)"/>
<path d="" fill="#FFFFFF" transform="translate(0,0)"/>
<path d="" fill="#FFFFFF" transform="translate(0,0)"/>
<path d="" fill="#FFFFFF" transform="translate(0,0)"/>
<path d="" fill="#FFFFFF" transform="translate(0,0)"/>
<path d="" fill="#FFFFFF" transform="translate(0,0)"/>
<path d="" fill="#FFFFFF" transform="translate(0,0)"/>
<path d="" fill="#FFFFFF" transform="translate(0,0)"/>
<path d="" fill="#FFFFFF" transform="translate(0,0)"/>
<path d="" fill="#FFFFFF" transform="translate(0,0)"/>
<path d="" fill="#FFFFFF" transform="translate(0,0)"/>
<path d="" fill="#FFFFFF" transform="translate(0,0)"/>
<path d="" fill="#FFFFFF" transform="translate(0,0)"/>
<path d="" fill="#FFFFFF" transform="translate(0,0)"/>
<path d="" fill="#FFFFFF" transform="translate(0,0)"/>
<path d="" fill="#FFFFFF" transform="translate(0,0)"/>
<path d="" fill="#FFFFFF" transform="translate(0,0)"/>
<path d="" fill="#FFFFFF" transform="translate(0,0)"/>
<path d="" fill="#FFFFFF" transform="translate(0,0)"/>
<path d="" fill="#FFFFFF" transform="translate(0,0)"/>
<path d="" fill="#FFFFFF" transform="translate(0,0)"/>
<path d="" fill="#FFFFFF" transform="translate(0,0)"/>
<path d="" fill="#FFFFFF" transform="translate(0,0)"/>
<path d="" fill="#FFFFFF" transform="translate(0,0)"/>
<path d="" fill="#FFFFFF" transform="translate(0,0)"/>
<path d="" fill="#FFFFFF" transform="translate(0,0)"/>
<path d="" fill="#FFFFFF" transform="translate(0,0)"/>
<path d="" fill="#FFFFFF" transform="translate(0,0)"/>
<path d="" fill="#FFFFFF" transform="translate(0,0)"/>
<path d="" fill="#FFFFFF" transform="translate(0,0)"/>
<path d="" fill="#FFFFFF" transform="translate(0,0)"/>
<path d="" fill="#FFFFFF" transform="translate(0,0)"/>
<path d="" fill="#FFFFFF" transform="translate(0,0)"/>
<path d="" fill="#FFFFFF" transform="translate(0,0)"/>
<path d="" fill="#FFFFFF" transform="translate(0,0)"/>
<path d="" fill="#FFFFFF" transform="translate(0,0)"/>
<path d="" fill="#FFFFFF" transform="translate(0,0)"/>
<path d="" fill="#FFFFFF" transform="translate(0,0)"/>
<path d="" fill="#FFFFFF" transform="translate(0,0)"/>
<path d="" fill="#FFFFFF" transform="translate(0,0)"/>
<path d="" fill="#FFFFFF" transform="translate(0,0)"/>
<path d="" fill="#FFFFFF" transform="translate(0,0)"/>
<path d="" fill="#FFFFFF" transform="translate(0,0)"/>
<path d="" fill="#FFFFFF" transform="translate(0,0)"/>
<path d="" fill="#FFFFFF" transform="translate(0,0)"/>
<path d="" fill="#FFFFFF" transform="translate(0,0)"/>
<path d="" fill="#FFFFFF" transform="translate(0,0)"/>
<path d="" fill="#FFFFFF" transform="translate(0,0)"/>
<path d="" fill="#FFFFFF" transform="translate(0,0)"/>
<path d="" fill="#FFFFFF" transform="translate(0,0)"/>
<path d="" fill="#FFFFFF" transform="translate(0,0)"/>
<path d="" fill="#FFFFFF" transform="translate(0,0)"/>
<path d="" fill="#FFFFFF" transform="translate(0,0)"/>
<path d="" fill="#FFFFFF" transform="translate(0,0)"/>
<path d="" fill="#FFFFFF" transform="translate(0,0)"/>
<path d="" fill="#FFFFFF" transform="translate(0,0)"/>
<path d="" fill="#FFFFFF" transform="translate(0,0)"/>
<path d="" fill="#FFFFFF" transform="translate(0,0)"/>
<path d="" fill="#FFFFFF" transform="translate(0,0)"/>
<path d="" fill="#FFFFFF" transform="translate(0,0)"/>
<path d="" fill="#FFFFFF" transform="translate(0,0)"/>
<path d="" fill="#FFFFFF" transform="translate(0,0)"/>
<path d="" fill="#FFFFFF" transform="translate(0,0)"/>
<path d="" fill="#FFFFFF" transform="translate(0,0)"/>
<path d="" fill="#FFFFFF" transform="translate(0,0)"/>
<path d="" fill="#FFFFFF" transform="translate(0,0)"/>
<path d="" fill="#FFFFFF" transform="translate(0,0)"/>
<path d="" fill="#FFFFFF" transform="translate(0,0)"/>
<path d="" fill="#FFFFFF" transform="translate(0,0)"/>
<path d="" fill="#FFFFFF" transform="translate(0,0)"/>
<path d="" fill="#FFFFFF" transform="translate(0,0)"/>
<path d="" fill="#FFFFFF" transform="translate(0,0)"/>
<path d="" fill="#FFFFFF" transform="translate(0,0)"/>
<path d="" fill="#FFFFFF" transform="translate(0,0)"/>
<path d="" fill="#FFFFFF" transform="translate(0,0)"/>
<path d="" fill="#FFFFFF" transform="translate(0,0)"/>
<path d="" fill="#FFFFFF" transform="translate(0,0)"/>
<path d="" fill="#FFFFFF" transform="translate(0,0)"/>
<path d="" fill="#FFFFFF" transform="translate(0,0)"/>
<path d="" fill="#FFFFFF" transform="translate(0,0)"/>
<path d="" fill="#FFFFFF" transform="translate(0,0)"/>
<path d="" fill="#FFFFFF" transform="translate(0,0)"/>
<path d="" fill="#FFFFFF" transform="translate(0,0)"/>
<path d="" fill="#FFFFFF" transform="translate(0,0)"/>
<path d="" fill="#FFFFFF" transform="translate(0,0)"/>
<path d="" fill="#FFFFFF" transform="translate(0,0)"/>
<path d="" fill="#FFFFFF" transform="translate(0,0)"/>
<path d="" fill="#FFFFFF" transform="translate(0,0)"/>
<path d="" fill="#FFFFFF" transform="translate(0,0)"/>
<path d="" fill="#FFFFFF" transform="translate(0,0)"/>
<path d="" fill="#FFFFFF" transform="translate(0,0)"/>
<path d="" fill="#FFFFFF" transform="translate(0,0)"/>
<path d="" fill="#FFFFFF" transform="translate(0,0)"/>
<path d="" fill="#FFFFFF" transform="translate(0,0)"/>
<path d="" fill="#FFFFFF" transform="translate(0,0)"/>
<path d="" fill="#FFFFFF" transform="translate(0,0)"/>
<path d="" fill="#FFFFFF" transform="translate(0,0)"/>
<path d="" fill="#FFFFFF" transform="translate(0,0)"/>
<path d="" fill="#FFFFFF" transform="translate(0,0)"/>
<path d="" fill="#FFFFFF" transform="translate(0,0)"/>
<path d="" fill="#FFFFFF" transform="translate(0,0)"/>
<path d="" fill="#FFFFFF" transform="translate(0,0)"/>
<path d="" fill="#FFFFFF" transform="translate(0,0)"/>
<path d="" fill="#FFFFFF" transform="translate(0,0)"/>
<path d="" fill="#FFFFFF" transform="translate(0,0)"/>
<path d="" fill="#FFFFFF" transform="translate(0,0)"/>
<path d="" fill="#FFFFFF" transform="translate(0,0)"/>
<path d="" fill="#FFFFFF" transform="translate(0,0)"/>
<path d="" fill="#FFFFFF" transform="translate(0,0)"/>
<path d="" fill="#FFFFFF" transform="translate(0,0)"/>
<path d="" fill="#FFFFFF" transform="translate(0,0)"/>
<path d="" fill="#FFFFFF" transform="translate(0,0)"/>
<path d="" fill="#FFFFFF" transform="translate(0,0)"/>
<path d="" fill="#FFFFFF" transform="translate(0,0)"/>
<path d="" fill="#FFFFFF" transform="translate(0,0)"/>
<path d="" fill="#FFFFFF" transform="translate(0,0)"/>
<path d="" fill="#FFFFFF" transform="translate(0,0)"/>
<path d="" fill="#FFFFFF" transform="translate(0,0)"/>
<path d="" fill="#FFFFFF" transform="translate(0,0)"/>
<path d="" fill="#FFFFFF" transform="translate(0,0)"/>
<path d="" fill="#FFFFFF" transform="translate(0,0)"/>
<path d="" fill="#FFFFFF" transform="translate(0,0)"/>
<path d="" fill="#FFFFFF" transform="translate(0,0)"/>
<path d="" fill="#FFFFFF" transform="translate(0,0)"/>
<path d="" fill="#FFFFFF" transform="translate(0,0)"/>
<path d="" fill="#FFFFFF" transform="translate(0,0)"/>
<path d="" fill="#FFFFFF" transform="translate(0,0)"/>
<path d="" fill="#FFFFFF" transform="translate(0,0)"/>
<path d="" fill="#FFFFFF" transform="translate(0,0)"/>
<path d="" fill="#FFFFFF" transform="translate(0,0)"/>
<path d="" fill="#FFFFFF" transform="translate(0,0)"/>
<path d="" fill="#FFFFFF" transform="translate(0,0)"/>
<path d="" fill="#FFFFFF" transform="translate(0,0)"/>
<path d="" fill="#FFFFFF" transform="translate(0,0)"/>
<path d="" fill="#FFFFFF" transform="translate(0,0)"/>
<path d="" fill="#FFFFFF" transform="translate(0,0)"/>
<path d="" fill="#FFFFFF" transform="translate(0,0)"/>
<path d="" fill="#FFFFFF" transform="translate(0,0)"/>
<path d="" fill="#FFFFFF" transform="translate(0,0)"/>
<path d="" fill="#FFFFFF" transform="translate(0,0)"/>
<path d="" fill="#FFFFFF" transform="translate(0,0)"/>
<path d="" fill="#FFFFFF" transform="translate(0,0)"/>
<path d="" fill="#FFFFFF" transform="translate(0,0)"/>
<path d="" fill="#FFFFFF" transform="translate(0,0)"/>
<path d="" fill="#FFFFFF" transform="translate(0,0)"/>
<path d="" fill="#FFFFFF" transform="translate(0,0)"/>
<path d="" fill="#FFFFFF" transform="translate(0,0)"/>
<path d="" fill="#FFFFFF" transform="translate(0,0)"/>
<path d="" fill="#FFFFFF" transform="translate(0,0)"/>
<path d="" fill="#FFFFFF" transform="translate(0,0)"/>
<path d="" fill="#FFFFFF" transform="translate(0,0)"/>
<path d="" fill="#FFFFFF" transform="translate(0,0)"/>
<path d="" fill="#FFFFFF" transform="translate(0,0)"/>
<path d="" fill="#FFFFFF" transform="translate(0,0)"/>
<path d="" fill="#FFFFFF" transform="translate(0,0)"/>
<path d="" fill="#FFFFFF" transform="translate(0,0)"/>
<path d="" fill="#FFFFFF" transform="translate(0,0)"/>
<path d="" fill="#FFFFFF" transform="translate(0,0)"/>
<path d="" fill="#FFFFFF" transform="translate(0,0)"/>
<path d="" fill="#FFFFFF" transform="translate(0,0)"/>
<path d="" fill="#FFFFFF" transform="translate(0,0)"/>
<path d="" fill="#FFFFFF" transform="translate(0,0)"/>
<path d="" fill="#FFFFFF" transform="translate(0,0)"/>
<path d="" fill="#FFFFFF" transform="translate(0,0)"/>
<path d="" fill="#FFFFFF" transform="translate(0,0)"/>
<path d="" fill="#FFFFFF" transform="translate(0,0)"/>
<path d="" fill="#FFFFFF" transform="translate(0,0)"/>
<path d="" fill="#FFFFFF" transform="translate(0,0)"/>
<path d="" fill="#FFFFFF" transform="translate(0,0)"/>
<path d="" fill="#FFFFFF" transform="translate(0,0)"/>
<path d="" fill="#FFFFFF" transform="translate(0,0)"/>
<path d="" fill="#FFFFFF" transform="translate(0,0)"/>
<path d="" fill="#FFFFFF" transform="translate(0,0)"/>
<path d="" fill="#FFFFFF" transform="translate(0,0)"/>
<path d="" fill="#FFFFFF" transform="translate(0,0)"/>
<path d="" fill="#FFFFFF" transform="translate(0,0)"/>
<path d="" fill="#FFFFFF" transform="translate(0,0)"/>
<path d="" fill="#FFFFFF" transform="translate(0,0)"/>
<path d="" fill="#FFFFFF" transform="translate(0,0)"/>
<path d="" fill="#FFFFFF" transform="translate(0,0)"/>
<path d="" fill="#FFFFFF" transform="translate(0,0)"/>
<path d="" fill="#FFFFFF" transform="translate(0,0)"/>
<path d="" fill="#FFFFFF" transform="translate(0,0)"/>
<path d="" fill="#FFFFFF" transform="translate(0,0)"/>
<path d="" fill="#FFFFFF" transform="translate(0,0)"/>
<path d="" fill="#FFFFFF" transform="translate(0,0)"/>
<path d="" fill="#FFFFFF" transform="translate(0,0)"/>
<path d="" fill="#FFFFFF" transform="translate(0,0)"/>
<path d="" fill="#FFFFFF" transform="translate(0,0)"/>
<path d="" fill="#FFFFFF" transform="translate(0,0)"/>
<path d="" fill="#FFFFFF" transform="translate(0,0)"/>
<path d="" fill="#FFFFFF" transform="translate(0,0)"/>
<path d="" fill="#FFFFFF" transform="translate(0,0)"/>
<path d="" fill="#FFFFFF" transform="translate(0,0)"/>
<path d="" fill="#FFFFFF" transform="translate(0,0)"/>
<path d="" fill="#FFFFFF" transform="translate(0,0)"/>
<path d="" fill="#FFFFFF" transform="translate(0,0)"/>
<path d="" fill="#FFFFFF" transform="translate(0,0)"/>
<path d="" fill="#FFFFFF" transform="translate(0,0)"/>
<path d="" fill="#FFFFFF" transform="translate(0,0)"/>
<path d="" fill="#FFFFFF" transform="translate(0,0)"/>
<path d="" fill="#FFFFFF" transform="translate(0,0)"/>
<path d="" fill="#FFFFFF" transform="translate(0,0)"/>
<path d="" fill="#FFFFFF" transform="translate(0,0)"/>
<path d="" fill="#FFFFFF" transform="translate(0,0)"/>
<path d="" fill="#FFFFFF" transform="translate(0,0)"/>
<path d="" fill="#FFFFFF" transform="translate(0,0)"/>
<path d="" fill="#FFFFFF" transform="translate(0,0)"/>
</svg>
