<?xml version="1.0" encoding="UTF-8"?>
<svg version="1.1" xmlns="http://www.w3.org/2000/svg" width="338" height="336">
<path d="M0 0 C111.54 0 223.08 0 338 0 C338 110.88 338 221.76 338 336 C226.46 336 114.92 336 0 336 C0 225.12 0 114.24 0 0 Z " fill="#2D3C47" transform="translate(0,0)"/>
<path d="M0 0 C111.54 0 223.08 0 338 0 C338 110.88 338 221.76 338 336 C226.46 336 114.92 336 0 336 C0 225.12 0 114.24 0 0 Z M209.578125 17.3515625 C207.04148005 23.21598424 207.58551337 29.06757031 207.75 35.375 C207.76804688 36.68339844 207.78609375 37.99179687 207.8046875 39.33984375 C207.85170652 42.56064689 207.91741819 45.77994474 208 49 C207.37824198 48.99815641 206.75648396 48.99631283 206.11588478 48.99441338 C191.00203306 48.9502857 175.88820103 48.9171685 160.77430153 48.89637566 C153.46539627 48.88605368 146.15653395 48.87197583 138.84765625 48.84912109 C132.4788254 48.82921533 126.11002565 48.81629027 119.74116457 48.81182301 C116.3674595 48.80921084 112.99384339 48.80305215 109.62016678 48.78853989 C105.85821413 48.77410991 102.09644833 48.77201849 98.33447266 48.77294922 C97.21022385 48.76575867 96.08597504 48.75856812 94.92765808 48.75115967 C93.90679611 48.753909 92.88593414 48.75665833 91.83413696 48.75949097 C90.49845893 48.75672559 90.49845893 48.75672559 89.1357975 48.75390434 C86.78506553 48.80058866 86.78506553 48.80058866 85 51 C84.81208085 53.62025721 84.74814215 56.13391315 84.77294922 58.75439453 C84.77265717 59.55447937 84.77236511 60.35456421 84.77206421 61.17889404 C84.77346044 63.83030953 84.7890353 66.48144594 84.8046875 69.1328125 C84.80841659 70.96841274 84.81126405 72.80401498 84.81326294 74.63961792 C84.8209076 79.47627232 84.8405632 84.31280703 84.8626709 89.14941406 C84.88311143 94.08266582 84.89226081 99.01593687 84.90234375 103.94921875 C84.92380833 113.63286515 84.95795428 123.31642263 85 133 C83.82493896 132.97905273 82.64987793 132.95810547 81.43920898 132.93652344 C77.05782371 132.86383723 72.6764912 132.8180966 68.29467773 132.78027344 C66.4023338 132.76022297 64.51005132 132.73297523 62.61791992 132.69824219 C59.88965649 132.64943348 57.16221585 132.62696558 54.43359375 132.609375 C53.59477158 132.58872986 52.7559494 132.56808472 51.89170837 132.54681396 C45.25975794 132.54431032 41.10257983 134.2078764 36.08959961 138.71923828 C34.42056652 142.21287644 34.5523386 145.69816805 34.56640625 149.4921875 C34.5611644 150.31574738 34.55592255 151.13930725 34.55052185 151.98782349 C34.54410757 153.72771072 34.54543099 155.46764135 34.55395508 157.20751953 C34.56244936 159.85919183 34.53372334 162.50869755 34.50195312 165.16015625 C34.50034047 166.85416602 34.50091988 168.54817959 34.50390625 170.2421875 C34.49267227 171.02987518 34.48143829 171.81756287 34.46986389 172.62911987 C34.53568645 177.87351328 35.57070515 180.81751626 39 185 C43.31120162 188.65265218 47.44019998 188.36312423 52.8125 188.1875 C53.60076172 188.17396484 54.38902344 188.16042969 55.20117188 188.14648438 C57.13441169 188.11133456 59.06729682 188.05753361 61 188 C61 189.98 61 191.96 61 194 C59.92621094 193.95359375 58.85242188 193.9071875 57.74609375 193.859375 C47.11847813 193.26286986 47.11847813 193.26286986 38 198 C34.71016977 202.25313716 34.54647378 206.17890736 34.56640625 211.37109375 C34.5611644 212.17104263 34.55592255 212.97099152 34.55052185 213.79518127 C34.54411703 215.48201338 34.54541869 217.16889023 34.55395508 218.85571289 C34.5624623 221.42610823 34.53368977 223.99427722 34.50195312 226.56445312 C34.50034074 228.20833267 34.50091935 229.85221613 34.50390625 231.49609375 C34.48705528 232.64010902 34.48705528 232.64010902 34.46986389 233.80723572 C34.53684845 238.97820612 35.63800551 241.8704411 39 246 C43.38847447 249.7717159 47.82030472 249.35655731 53.3125 249.1875 C54.14845703 249.17396484 54.98441406 249.16042969 55.84570312 249.14648438 C57.89741498 249.11131217 59.94879275 249.05751048 62 249 C62 251.31 62 253.62 62 256 C61.42032471 255.97905273 60.84064941 255.95810547 60.2434082 255.93652344 C57.59995076 255.85303193 54.9567712 255.80123847 52.3125 255.75 C51.40048828 255.71648437 50.48847656 255.68296875 49.54882812 255.6484375 C45.28660069 255.58644146 42.72146562 255.57813395 38.98046875 257.765625 C34.86973342 262.40337768 34.6699723 266.42929563 34.62890625 272.4921875 C34.61987778 273.31574738 34.6108493 274.13930725 34.60154724 274.98782349 C34.58706126 276.72768529 34.57816211 278.46760136 34.57446289 280.20751953 C34.56257023 282.85933919 34.5133757 285.50882768 34.46289062 288.16015625 C34.4534251 289.85415536 34.44619068 291.5481687 34.44140625 293.2421875 C34.42187393 294.02987518 34.40234161 294.81756287 34.38221741 295.62911987 C34.41478499 299.63420439 34.76260759 302.22535483 37.28491211 305.42236328 C41.68811043 309.60264993 44.45491077 310.25004926 50.51486206 310.26069641 C51.16741474 310.26452196 51.81996742 310.26834751 52.49229443 310.27228898 C54.677074 310.28260087 56.86158987 310.27863035 59.04638672 310.2746582 C60.61357873 310.27900572 62.18076861 310.28418901 63.74795532 310.29014587 C68.00420785 310.30354378 72.26037163 310.3041136 76.51664114 310.30158257 C80.07030297 310.30051326 83.62394681 310.30539529 87.17760479 310.310188 C95.56226452 310.32128622 103.94687945 310.32171901 112.33154297 310.31567383 C120.97936936 310.30963471 129.62703303 310.32194272 138.27483165 310.3432439 C145.7008575 310.36086258 153.12683157 310.36686078 160.55287755 310.36360615 C164.98747437 310.36179336 169.42195516 310.36442899 173.85653305 310.37832069 C178.02787331 310.39089854 182.1989601 310.38895542 186.37029648 310.37590981 C187.89970994 310.37354426 189.42914123 310.37627796 190.95853424 310.38453293 C193.0497064 310.39500459 195.14002871 310.38689741 197.23117065 310.3742218 C198.98492414 310.37447341 198.98492414 310.37447341 200.77410698 310.37473011 C205.82737758 309.78772594 209.02242517 308.11676595 212.359375 304.3046875 C214.27765124 300.44073108 214.46186964 297.32979745 214.25 293.125 C214.23195312 292.43664062 214.21390625 291.74828125 214.1953125 291.0390625 C214.14863748 289.3587619 214.07690939 287.67918837 214 286 C214.65954681 286.00444122 215.31909363 286.00888245 215.99862671 286.01345825 C222.84378906 286.05759777 229.68891121 286.08782726 236.53417969 286.10986328 C239.09116253 286.11994038 241.64813379 286.13360226 244.20507812 286.15087891 C247.87372692 286.17505217 251.54222379 286.18646585 255.2109375 286.1953125 C256.35992523 286.20563507 257.50891296 286.21595764 258.69271851 286.22659302 C259.7536673 286.22674408 260.81461609 286.22689514 261.90771484 286.22705078 C262.84481293 286.231492 263.78191101 286.23593323 264.74740601 286.24050903 C267.20176071 286.2169323 267.20176071 286.2169323 269 284 C269.29984628 281.17212435 269.29984628 281.17212435 269.24050903 277.79916382 C269.24221788 277.15633725 269.24392673 276.51351068 269.24568737 275.85120451 C269.24899328 273.6876378 269.23796078 271.5243782 269.22705078 269.36083984 C269.2264869 267.81376655 269.22680277 266.26669273 269.22793579 264.71961975 C269.22851122 260.51114815 269.21672621 256.30278982 269.20278788 252.09434462 C269.19031215 247.69942767 269.18911252 243.30450833 269.18673706 238.90957642 C269.18051298 230.58332398 269.16408965 222.25712386 269.14403808 213.93089449 C269.1217079 204.45340579 269.11069291 194.97591462 269.10064721 185.49840617 C269.0797242 165.99890775 269.04453024 146.49945808 269 127 C270.27117676 127.02094727 271.54235352 127.04189453 272.85205078 127.06347656 C277.58191603 127.13604256 282.31173235 127.18186025 287.04199219 127.21972656 C289.0866728 127.2398042 291.13129627 127.26707225 293.17578125 127.30175781 C296.11993537 127.35044519 299.06332834 127.37300744 302.0078125 127.390625 C302.9174173 127.41127014 303.82702209 127.43191528 304.76419067 127.45318604 C310.36561104 127.45515285 313.56853123 126.76258402 318 123 C322.74150396 117.61775226 323.15511224 114.25945981 323.17700195 107.23925781 C323.18357315 106.33176788 323.19014435 105.42427795 323.19691467 104.48928833 C323.21667252 101.4772331 323.22831627 98.4652278 323.23828125 95.453125 C323.24235678 94.42538719 323.2464323 93.39764938 323.25063133 92.33876801 C323.27150343 86.89837341 323.28579979 81.45800412 323.29516602 76.01757812 C323.30622828 70.39733943 323.34062301 64.7774969 323.38033772 59.15739822 C323.40648254 54.83708967 323.41485601 50.51687576 323.41844749 46.19649506 C323.42331955 44.12485837 323.4349511 42.05322607 323.45348549 39.98166656 C323.4778295 37.08023205 323.47692036 34.17982566 323.4699707 31.27832031 C323.48278076 30.42406464 323.49559082 29.56980896 323.50878906 28.68966675 C323.45400922 22.40774148 321.61706518 19.05324271 317.5 14.25 C313.07615489 10.56346241 308.68425769 10.70349876 303.11987305 10.70947266 C302.22345093 10.70275543 301.32702881 10.69603821 300.40344238 10.68911743 C297.43947813 10.67011736 294.47574012 10.66621206 291.51171875 10.6640625 C289.44912116 10.65763543 287.3865245 10.65090714 285.32392883 10.64389038 C280.99889005 10.6319122 276.67393116 10.62821006 272.34887695 10.62939453 C266.81395733 10.62959763 261.27955171 10.60230753 255.74475384 10.56785011 C251.48358317 10.54558188 247.22253614 10.54155699 242.96131325 10.54261398 C240.92121422 10.54025745 238.88111182 10.53143101 236.84107018 10.51594925 C233.98312073 10.49629332 231.12627887 10.50212614 228.26831055 10.51416016 C227.43014297 10.50292114 226.5919754 10.49168213 225.72840881 10.48010254 C218.71783057 10.55489234 214.69678595 12.38150783 209.578125 17.3515625 Z " fill="#FDFEFE" transform="translate(0,0)"/>
<path d="M0 0 C38.28 0 76.56 0 116 0 C116.25 30.625 116.25 30.625 116.29785156 40.26806641 C116.3272213 42.79591698 116.35804708 45.32375124 116.390625 47.8515625 C116.39231689 49.81355591 116.39231689 49.81355591 116.39404297 51.81518555 C116.34852956 60.80166786 116.34852956 60.80166786 121 68 C135.65757294 75.32878647 153.61676496 71.61899453 170 72 C170 122.16 170 172.32 170 224 C154.16 224 138.32 224 122 224 C121.505 216.575 121.505 216.575 121 209 C119.6290756 203.98565669 119.6290756 203.98565669 116.5625 202.75 C115.2940625 202.37875 115.2940625 202.37875 114 202 C113.01 201.67 112.02 201.34 111 201 C108.26710707 200.77202438 105.54957796 200.58331813 102.8125 200.4375 C101.68811523 200.37272461 101.68811523 200.37272461 100.54101562 200.30664062 C98.69421625 200.20077315 96.84713166 200.0999024 95 200 C95 198.02 95 196.04 95 194 C96.14597656 193.97421875 97.29195313 193.9484375 98.47265625 193.921875 C100.0026403 193.86555657 101.53258675 193.8082101 103.0625 193.75 C103.81466797 193.73582031 104.56683594 193.72164062 105.34179688 193.70703125 C110.94949833 193.46427361 114.41538013 192.29391797 119 189 C121.68392118 185.29647929 121.30595337 181.07808114 121.30078125 176.69140625 C121.30720894 175.48580299 121.30720894 175.48580299 121.31376648 174.25584412 C121.31949992 172.55883728 121.3200173 170.86180588 121.31567383 169.16479492 C121.31251516 166.57492956 121.33597969 163.98620849 121.36132812 161.39648438 C121.36360143 159.7447931 121.36430447 158.09309877 121.36328125 156.44140625 C121.372491 155.67043106 121.38170074 154.89945587 121.39118958 154.1051178 C121.35229778 149.56282632 120.87466353 146.57531039 118 143 C112.87043272 140.12769595 108.37106369 139.49850158 102.5625 139.3125 C101.83095703 139.27833984 101.09941406 139.24417969 100.34570312 139.20898438 C98.56430438 139.12748247 96.78218251 139.06204477 95 139 C95 137.02 95 135.04 95 133 C96.14597656 132.97421875 97.29195313 132.9484375 98.47265625 132.921875 C100.0026403 132.86555657 101.53258675 132.8082101 103.0625 132.75 C103.81466797 132.73582031 104.56683594 132.72164062 105.34179688 132.70703125 C110.94949833 132.46427361 114.41538013 131.29391797 119 128 C121.68392118 124.29647929 121.30595337 120.07808114 121.30078125 115.69140625 C121.30720894 114.48580299 121.30720894 114.48580299 121.31376648 113.25584412 C121.31949992 111.55883728 121.3200173 109.86180588 121.31567383 108.16479492 C121.31251516 105.57492956 121.33597969 102.98620849 121.36132812 100.39648438 C121.36360143 98.7447931 121.36430447 97.09309877 121.36328125 95.44140625 C121.372491 94.67043106 121.38170074 93.89945587 121.39118958 93.1051178 C121.35233754 88.56746969 120.91802976 85.54329239 118 82 C114.98968621 80.14510464 112.70089954 79.7447196 109.19110107 79.7215271 C108.22638885 79.71036362 107.26167664 79.69920013 106.26773071 79.68769836 C105.21612762 79.68553818 104.16452454 79.68337799 103.08105469 79.68115234 C101.96856354 79.67110672 100.85607239 79.6610611 99.70986938 79.65071106 C96.03054321 79.6198058 92.35129004 79.60282329 88.671875 79.5859375 C86.12167733 79.56723179 83.57148589 79.54765883 81.02130127 79.5272522 C74.99366126 79.48111543 68.96602833 79.44372985 62.938308 79.41057932 C55.40151541 79.3685935 47.86482875 79.31323072 40.328125 79.2578125 C26.88547477 79.15902626 13.44280005 79.08047045 0 79 C0 52.93 0 26.86 0 0 Z " fill="#FBFBFC" transform="translate(92,55)"/>
<path d="M0 0 C0.88187988 -0.00408875 1.76375977 -0.00817749 2.67236328 -0.01239014 C5.58117217 -0.01839612 8.48770176 0.0185092 11.39624023 0.05664062 C13.41974832 0.06275791 15.44326483 0.06650855 17.46678162 0.06799316 C21.7045828 0.07719292 25.94162249 0.10601834 30.17919922 0.15039062 C35.61227331 0.20699151 41.0447484 0.2288179 46.47808933 0.23775482 C50.65510553 0.24606651 54.83200062 0.26570355 59.008955 0.289505 C61.01243052 0.30090193 63.01591763 0.31042215 65.01941109 0.31803894 C67.81783635 0.33178271 70.61578862 0.35905421 73.4140625 0.390625 C74.24274338 0.39286072 75.07142426 0.39509644 75.92521667 0.3973999 C83.15562609 0.50548575 83.15562609 0.50548575 86.14233398 2.71289062 C88.73873655 6.60749447 88.45259112 9.89888683 88.46459961 14.41943359 C88.47949432 15.75403625 88.47949432 15.75403625 88.49468994 17.11560059 C88.52392592 20.06212443 88.53753497 23.008433 88.54858398 25.95507812 C88.5600868 28.00147509 88.57160227 30.04787198 88.58312988 32.0942688 C88.60414727 36.38658656 88.61583449 40.67882942 88.62280273 44.97119141 C88.63377714 50.47180699 88.68184116 55.97143359 88.73874664 61.47173882 C88.77599006 65.69938045 88.78640997 69.92678351 88.78947449 74.15457535 C88.79553006 76.18240903 88.81159606 78.21023839 88.83784485 80.23791122 C88.8719551 83.07522653 88.86821279 85.91012152 88.85522461 88.74755859 C88.88286896 90.00392624 88.88286896 90.00392624 88.91107178 91.28567505 C88.8484979 95.64876063 88.51906638 97.25594308 85.65174866 100.73377991 C81.73506523 103.43145246 77.90500864 103.41059655 73.27880859 103.34399414 C72.40814255 103.35114944 71.5374765 103.35830475 70.64042664 103.36567688 C67.77463639 103.38252742 64.91041839 103.36318453 62.04467773 103.34179688 C60.04740774 103.34262583 58.05013782 103.34508624 56.0528717 103.34910583 C51.8724406 103.35196124 47.69254605 103.3372862 43.51220703 103.30981445 C38.15641623 103.27571021 32.80158327 103.28175977 27.44574642 103.30047703 C23.32357308 103.31104931 19.20162232 103.30210744 15.07946968 103.28709221 C13.10472843 103.28191312 11.12996391 103.28238888 9.15522575 103.28863716 C6.39513078 103.29409296 3.63640388 103.27370361 0.87646484 103.24633789 C0.06230103 103.25286377 -0.75186279 103.25938965 -1.59069824 103.26611328 C-5.53898471 103.19961245 -7.42914164 102.98699903 -10.84104919 100.80455017 C-14.53655484 96.97152667 -14.02438118 93.38449581 -14.05053711 88.31933594 C-14.0587146 87.45086029 -14.06689209 86.58238464 -14.07531738 85.68759155 C-14.10018653 82.80540663 -14.11669198 79.92327104 -14.13110352 77.04101562 C-14.13642719 76.05740807 -14.14175087 75.07380051 -14.14723587 74.06038666 C-14.17397506 68.85341674 -14.19334682 63.64647085 -14.20776367 58.43945312 C-14.22440629 53.06124805 -14.26917879 47.68365637 -14.32013512 42.30568314 C-14.35379529 38.1706675 -14.36533982 34.0357976 -14.37099075 29.90065765 C-14.37770746 27.91831529 -14.39294038 25.93598266 -14.41688156 23.9537735 C-14.4485073 21.17668242 -14.44857375 18.40124738 -14.44116211 15.62402344 C-14.45756744 14.80717072 -14.47397278 13.99031799 -14.49087524 13.14871216 C-14.44878287 9.2897183 -14.10094772 6.42444579 -11.87480164 3.20050049 C-7.81296247 -0.14846105 -5.11510392 -0.11403664 0 0 Z " fill="#FBFBFC" transform="translate(227.857666015625,17.287109375)"/>
<path d="M0 0 C0.96385137 -0.00958323 0.96385137 -0.00958323 1.94717449 -0.01936007 C4.09261585 -0.03457753 6.23620058 -0.01417434 8.38157654 0.00622559 C9.92260855 0.00272339 11.46363694 -0.00293631 13.00465393 -0.0105896 C17.1844856 -0.02483212 21.36365899 -0.00778245 25.54342771 0.01569557 C29.91777374 0.03580623 34.29209249 0.02992497 38.66647339 0.02758789 C46.01123408 0.02764145 53.35573745 0.04739489 60.70042419 0.07946777 C69.19326265 0.116374 77.68576419 0.12514138 86.17867237 0.11817026 C94.34846967 0.11186675 102.51815137 0.12261583 110.68792534 0.14213562 C114.16512129 0.15031266 117.6422582 0.15301862 121.11946297 0.15144348 C125.21288579 0.15056501 129.30598806 0.16477037 133.39932632 0.19067001 C134.90215056 0.19783627 136.40500889 0.19991322 137.90784645 0.19655228 C139.95779188 0.19284201 142.00774425 0.20941588 144.05761719 0.22705078 C145.77900327 0.23264385 145.77900327 0.23264385 147.53516483 0.23834991 C150.79391836 0.6644238 152.19617369 1.26527283 154.46531677 3.62145996 C154.87117278 6.37056008 155.02662535 8.71552296 154.99656677 11.46520996 C155.00039368 12.23071167 155.00422058 12.99621338 155.00816345 13.78491211 C155.01088344 15.40215369 155.00351595 17.01943919 154.98680115 18.63659668 C154.96538977 21.11301689 154.98659663 23.5865363 155.01219177 26.06286621 C155.00954851 27.6344872 155.00442355 29.20610639 154.99656677 30.77770996 C155.0046637 31.51839722 155.01276062 32.25908447 155.02110291 33.0222168 C154.92768668 38.14041101 154.92768668 38.14041101 152.83624268 40.31634617 C149.73965284 42.02091319 147.54428363 42.00171884 144.01292419 42.00914001 C143.36712749 42.01452555 142.72133078 42.01991109 142.05596447 42.02545983 C139.89404379 42.03975677 137.7327339 42.03263187 135.57078552 42.0255127 C134.02005012 42.03121534 132.46931893 42.03817919 130.91859436 42.04631042 C126.70789271 42.06426752 122.49739915 42.06306885 118.28667068 42.05736804 C114.77257755 42.05428026 111.25852463 42.06036397 107.74443722 42.06640679 C99.4557251 42.0804584 91.16711604 42.07888508 82.87840271 42.06750488 C74.32363992 42.05601906 65.76919046 42.07010558 57.21446896 42.09690136 C49.87168892 42.11904094 42.52900737 42.1256998 35.18619633 42.11982495 C30.79969849 42.11645045 26.41340158 42.11890314 22.02693176 42.13607597 C17.90312727 42.15151572 13.77978796 42.14762302 9.65600204 42.12877083 C8.14187587 42.12507684 6.62771545 42.12821698 5.11362076 42.13865662 C3.04777715 42.15181409 0.98348564 42.14036885 -1.08229065 42.12266541 C-2.23855453 42.12245612 -3.39481842 42.12224684 -4.58612061 42.12203121 C-8.18634526 41.51082867 -9.36676257 40.51503908 -11.53468323 37.62145996 C-12.06813049 34.3092041 -12.06813049 34.3092041 -12.10108948 30.40661621 C-12.10728806 29.71386093 -12.11348663 29.02110565 -12.11987305 28.30735779 C-12.1269598 26.8457479 -12.12381696 25.38405709 -12.11109924 23.92248535 C-12.09724358 21.69366816 -12.13129447 19.46906248 -12.16944885 17.24060059 C-12.17040028 15.81677144 -12.16853994 14.39293707 -12.16358948 12.96911621 C-12.16431458 11.68013428 -12.16503967 10.39115234 -12.16578674 9.06311035 C-10.89995908 2.16006486 -6.63286378 -0.00411682 0 0 Z " fill="#F9FAFA" transform="translate(52.53468322753906,261.3785400390625)"/>
<path d="M0 0 C0.96385137 -0.00958323 0.96385137 -0.00958323 1.94717449 -0.01936007 C4.09261585 -0.03457753 6.23620058 -0.01417434 8.38157654 0.00622559 C9.92260855 0.00272339 11.46363694 -0.00293631 13.00465393 -0.0105896 C17.1844856 -0.02483212 21.36365899 -0.00778245 25.54342771 0.01569557 C29.91777374 0.03580623 34.29209249 0.02992497 38.66647339 0.02758789 C46.01123408 0.02764145 53.35573745 0.04739489 60.70042419 0.07946777 C69.19326265 0.116374 77.68576419 0.12514138 86.17867237 0.11817026 C94.34846967 0.11186675 102.51815137 0.12261583 110.68792534 0.14213562 C114.16512129 0.15031266 117.6422582 0.15301862 121.11946297 0.15144348 C125.21288579 0.15056501 129.30598806 0.16477037 133.39932632 0.19067001 C134.90215056 0.19783627 136.40500889 0.19991322 137.90784645 0.19655228 C139.95779188 0.19284201 142.00774425 0.20941588 144.05761719 0.22705078 C145.77900327 0.23264385 145.77900327 0.23264385 147.53516483 0.23834991 C150.79367275 0.66439168 152.19694805 1.26464447 154.46531677 3.62145996 C154.8588433 6.37135823 155.00309852 8.71660494 154.96141052 11.46520996 C154.96286575 12.23071167 154.96432098 12.99621338 154.96582031 13.78491211 C154.9641615 15.40217904 154.95260201 17.01946179 154.93186951 18.63659668 C154.90291917 21.1127016 154.91125815 23.58666497 154.92430115 26.06286621 C154.91806343 27.6344912 154.90967222 29.20610943 154.89891052 30.77770996 C154.90184616 31.51839722 154.9047818 32.25908447 154.9078064 33.0222168 C154.81464046 38.09630206 154.81464046 38.09630206 153.33819485 40.3159256 C150.58827663 42.23282172 148.42778316 42.00519885 145.09521484 42.01586914 C144.12167609 42.0250058 144.12167609 42.0250058 143.12846988 42.03432703 C140.94964102 42.05100095 138.77139375 42.04617526 136.59251404 42.04138184 C135.03207286 42.04871965 133.47163712 42.05730504 131.91120911 42.06704712 C127.66947003 42.0893021 123.42792498 42.09219183 119.18613553 42.09029961 C115.64723698 42.09018009 112.10837982 42.09873648 108.56949276 42.10707712 C100.22183256 42.12632548 91.87427238 42.12918979 83.52659607 42.12243652 C74.90988473 42.11579399 66.29360128 42.13866515 57.67697674 42.17575026 C50.28325921 42.2064195 42.88967951 42.21781033 35.49589962 42.21391344 C31.07803306 42.21184308 26.66049939 42.21736906 22.24269295 42.24180603 C18.08846288 42.26402513 13.93492976 42.26223634 9.78069687 42.24187851 C8.25527725 42.23845983 6.72981115 42.24359451 5.20445442 42.25786209 C3.12295236 42.27598956 1.04383121 42.26335977 -1.03759766 42.24291992 C-2.2025347 42.24363243 -3.36747175 42.24434494 -4.56770992 42.24507904 C-7.53468323 41.62145996 -7.53468323 41.62145996 -9.90741062 39.29099274 C-11.99646246 35.86391338 -12.06602748 33.52737526 -12.10108948 29.52770996 C-12.10728806 28.85856567 -12.11348663 28.18942139 -12.11987305 27.5 C-12.12694703 26.09144539 -12.12383942 24.68280675 -12.11109924 23.27429199 C-12.09721725 21.12672345 -12.13134303 18.98350562 -12.16944885 16.83630371 C-12.17040008 15.46260474 -12.168541 14.08890034 -12.16358948 12.71520996 C-12.16431458 11.4744873 -12.16503967 10.23376465 -12.16578674 8.95544434 C-10.87129452 2.11691987 -6.5571559 -0.00406983 0 0 Z " fill="#F9FAFA" transform="translate(52.53468322753906,200.3785400390625)"/>
<path d="M0 0 C0.64256758 -0.0055344 1.28513516 -0.01106879 1.94717449 -0.0167709 C4.09237302 -0.03034434 6.2364013 -0.01542802 8.38157654 -0.00050354 C9.92260735 -0.00428792 11.46363477 -0.00978895 13.00465393 -0.01687622 C17.18439001 -0.03083155 21.3637145 -0.01966121 25.54342771 -0.00316501 C29.91777953 0.01068923 34.29210755 0.00422508 38.66647339 0.0007019 C46.01119112 -0.00199964 53.35574536 0.01147153 60.70042419 0.03465271 C69.1932555 0.06127203 77.68581364 0.06300622 86.17867237 0.05126435 C94.34845893 0.04048811 102.51814663 0.04667177 110.68792534 0.06081963 C114.1651283 0.06657979 117.64225893 0.06649654 121.11946297 0.06175423 C125.21286956 0.0569845 129.3059767 0.06708572 133.39932632 0.08870888 C134.90215609 0.09427665 136.40501464 0.09474212 137.90784645 0.08975601 C139.95777671 0.08380728 142.00773606 0.09813587 144.05761719 0.11352539 C145.20520791 0.11595529 146.35279863 0.11838518 147.53516483 0.12088871 C150.79537835 0.54404552 152.19576085 1.14400473 154.46531677 3.50120544 C154.87117278 6.25030557 155.02662535 8.59526845 154.99656677 11.34495544 C155.00039368 12.11045715 155.00422058 12.87595886 155.00816345 13.66465759 C155.01088344 15.28189917 155.00351595 16.89918468 154.98680115 18.51634216 C154.96538977 20.99276237 154.98659663 23.46628178 155.01219177 25.94261169 C155.00954851 27.51423269 155.00442355 29.08585187 154.99656677 30.65745544 C155.0046637 31.3981427 155.01276062 32.13882996 155.02110291 32.90196228 C154.92768446 38.02027817 154.92768446 38.02027817 152.83624268 40.19567108 C149.74078514 41.9001639 147.54330944 41.88422986 144.01292419 41.89561462 C143.36712749 41.90170573 142.72133078 41.90779683 142.05596447 41.91407251 C139.89405892 41.93070917 137.73274191 41.92592608 135.57078552 41.92112732 C134.02004891 41.92846721 132.46931776 41.93705321 130.91859436 41.9467926 C126.70790481 41.96902353 122.49741086 41.97193859 118.28667068 41.97004509 C114.77257515 41.96992548 111.2585212 41.97848534 107.74443722 41.98682261 C99.45573088 42.00606157 91.16712526 42.00893837 82.87840271 42.00218201 C74.32358542 41.99553723 65.76919887 42.01842181 57.21446896 42.05549574 C49.87168608 42.08616436 42.52904199 42.09755597 35.18619633 42.09365892 C30.79964285 42.09158883 26.41342467 42.09711067 22.02693176 42.12155151 C17.90305545 42.14377012 13.77988121 42.14198228 9.65600204 42.12162399 C8.14186943 42.11820544 6.62769 42.12333945 5.11362076 42.13760757 C3.04749294 42.15573613 0.98376346 42.14310473 -1.08229065 42.12266541 C-2.23855453 42.12337791 -3.39481842 42.12409042 -4.58612061 42.12482452 C-7.53468323 41.50120544 -7.53468323 41.50120544 -9.90461731 39.17746735 C-12.03408242 35.68128582 -12.06666829 33.23284187 -12.10108948 29.15354919 C-12.10728806 28.45983719 -12.11348663 27.76612518 -12.11987305 27.0513916 C-12.12694789 25.59156186 -12.12383795 24.13165104 -12.11109924 22.67185974 C-12.09719716 20.44094151 -12.13136781 18.21419387 -12.16944885 15.98362732 C-12.17039985 14.56110025 -12.16854224 13.13856795 -12.16358948 11.71604919 C-12.16467712 9.78426819 -12.16467712 9.78426819 -12.16578674 7.8134613 C-11.53468323 4.50120544 -11.53468323 4.50120544 -9.40365696 2.32551479 C-5.96429771 0.13851142 -4.05126655 0.00073858 0 0 Z " fill="#F9FAFA" transform="translate(52.53468322753906,139.49879455566406)"/>
<path d="M0 0 C2.14313875 0.10362161 4.28937217 0.14645701 6.4349823 0.15821838 C7.41887978 0.16562535 7.41887978 0.16562535 8.42265397 0.17318195 C10.62445881 0.18856175 12.82623447 0.19691885 15.02807617 0.20532227 C16.60485593 0.21490041 18.18163311 0.22491046 19.75840759 0.23532104 C24.04320083 0.26238304 28.32800509 0.2833856 32.6128366 0.30332303 C37.08918635 0.32517459 41.56550205 0.35256734 46.04182434 0.37937927 C54.52028839 0.42931739 62.99877132 0.47425207 71.47727233 0.51740164 C81.12893405 0.56676445 90.78056161 0.62168612 100.4321903 0.67708123 C120.28809505 0.79091845 140.1440324 0.89775371 160 1 C159.01 2.32 158.02 3.64 157 5 C157.99 5.66 158.98 6.32 160 7 C159 8 159 8 155.18359375 8.09765625 C153.60153318 8.09098089 152.01948841 8.07901875 150.4375 8.0625 C149.63119141 8.05798828 148.82488281 8.05347656 147.99414062 8.04882812 C145.99606244 8.03700518 143.99802217 8.01906914 142 8 C142 9.98 142 11.96 142 14 C143.0621875 13.95359375 144.124375 13.9071875 145.21875 13.859375 C159.67785919 13.41334882 159.67785919 13.41334882 166 18 C169.32508424 22.21837596 169.45347251 26.19289819 169.43359375 31.37109375 C169.4388356 32.17104263 169.44407745 32.97099152 169.44947815 33.79518127 C169.45588297 35.48201338 169.45458131 37.16889023 169.44604492 38.85571289 C169.4375377 41.42610823 169.46631023 43.99427722 169.49804688 46.56445312 C169.49965926 48.20833267 169.49908065 49.85221613 169.49609375 51.49609375 C169.50732773 52.2587706 169.51856171 53.02144745 169.53013611 53.80723572 C169.46326333 58.9695775 168.39137624 61.89858462 165 66 C160.1193471 69.37401657 155.82926296 69.37603072 150.125 69.1875 C148.949375 69.16719727 148.949375 69.16719727 147.75 69.14648438 C145.83303218 69.11141789 143.91642249 69.05762072 142 69 C142 70.98 142 72.96 142 75 C143.0621875 74.95359375 144.124375 74.9071875 145.21875 74.859375 C159.63397048 74.41645875 159.63397048 74.41645875 166 79 C167.1953125 81.140625 167.1953125 81.140625 168 83 C164 83 164 83 161.66036987 82.50961876 C158.53774859 81.91145142 155.61417271 81.86145493 152.43408203 81.84609985 C151.78813646 81.8417176 151.1421909 81.83733535 150.47667122 81.8328203 C148.32038188 81.81950574 146.16413333 81.81327025 144.0078125 81.80712891 C142.45855528 81.79922256 140.90929988 81.79095328 139.36004639 81.78234863 C134.2817153 81.7562048 129.20337625 81.74083536 124.125 81.7265625 C122.37518306 81.72120094 120.62536616 81.71582343 118.87554932 81.71043015 C111.59919956 81.68881864 104.32285196 81.67008 97.04647827 81.65880775 C86.62236578 81.64255097 76.19862489 81.60931174 65.77465248 81.55240691 C58.4412008 81.51373713 51.10784869 81.49417899 43.77429771 81.48888719 C39.39495593 81.48523159 35.0160112 81.47318717 30.63677979 81.44078445 C26.51950227 81.41075324 22.40286319 81.40437394 18.28549957 81.41616821 C16.7749926 81.41638932 15.26445637 81.4080534 13.75405121 81.39051437 C11.69056981 81.36785721 9.62941096 81.37609691 7.56591797 81.39199829 C6.41187469 81.38868814 5.25783142 81.385378 4.06881714 81.38196754 C0.09584507 82.18208876 -1.42272877 83.9634619 -4 87 C-4.125 79.375 -4.125 79.375 -3 76 C3.6 76 10.2 76 17 76 C17 73.69 17 71.38 17 69 C15.77023438 69.04640625 14.54046875 69.0928125 13.2734375 69.140625 C11.6406494 69.17816036 10.00783489 69.21455862 8.375 69.25 C7.56675781 69.28351563 6.75851563 69.31703125 5.92578125 69.3515625 C0.44707439 69.44064716 -2.73163993 68.76846204 -7 65 C-10.28452429 60.74173854 -10.45353393 56.82310092 -10.43359375 51.62890625 C-10.4388356 50.82895737 -10.44407745 50.02900848 -10.44947815 49.20481873 C-10.45588297 47.51798662 -10.45458131 45.83110977 -10.44604492 44.14428711 C-10.4375377 41.57389177 -10.46631023 39.00572278 -10.49804688 36.43554688 C-10.49965926 34.79166733 -10.49908065 33.14778387 -10.49609375 31.50390625 C-10.50732773 30.7412294 -10.51856171 29.97855255 -10.53013611 29.19276428 C-10.46326972 24.03091577 -9.39310461 21.0997594 -6 17 C-1.23164856 13.7413988 2.81901679 13.61658377 8.375 13.8125 C9.11105469 13.82603516 9.84710938 13.83957031 10.60546875 13.85351562 C12.40396743 13.88855131 14.20208422 13.94234712 16 14 C16 12.02 16 10.04 16 8 C14.81921875 8.02320313 13.6384375 8.04640625 12.421875 8.0703125 C10.86458967 8.08907497 9.30729748 8.10727466 7.75 8.125 C6.97269531 8.14175781 6.19539063 8.15851563 5.39453125 8.17578125 C-2.16997664 8.24043516 -2.16997664 8.24043516 -5 6 C-5.75 2.875 -5.75 2.875 -6 0 C-3 -1 -3 -1 0 0 Z M-4 26 C-4.74798124 29.38414662 -4.74798124 29.38414662 -4.62890625 33.09375 C-4.63131821 33.76289429 -4.63373016 34.43203857 -4.63621521 35.12145996 C-4.63523979 36.53008985 -4.62191848 37.93875951 -4.59692383 39.34716797 C-4.56258798 41.49449807 -4.57627926 43.63771249 -4.59570312 45.78515625 C-4.58880411 47.15887155 -4.57913119 48.53257631 -4.56640625 49.90625 C-4.55552979 51.14697266 -4.54465332 52.38769531 -4.53344727 53.66601562 C-3.89037904 57.68511847 -2.88882392 59.16262835 0 62 C3.03744408 62.74494774 3.03744408 62.74494774 6.49708557 62.62145996 C7.47296431 62.63104319 7.47296431 62.63104319 8.46855778 62.64082003 C10.64706484 62.65607269 12.82375377 62.63561066 15.00219727 62.61523438 C16.56440839 62.61873551 18.12661596 62.62439401 19.68881226 62.63204956 C23.93061354 62.64630735 28.17176736 62.62922745 32.41350675 62.60576439 C36.84971975 62.58567377 41.2859054 62.59153395 45.72215271 62.59387207 C53.17124121 62.59381848 60.62007616 62.57405202 68.0690918 62.54199219 C76.68632814 62.5050852 85.30323247 62.49631831 93.92053753 62.5032897 C102.20513181 62.50959011 110.48961201 62.49884987 118.77418327 62.47932434 C122.30244507 62.47114073 125.83064864 62.46844255 129.35891914 62.47001648 C133.51141979 62.47089404 137.66360383 62.45671436 141.81602097 62.43078995 C143.34184039 62.42361494 144.86769347 62.42155093 146.39352608 62.42490768 C148.47266264 62.42860989 150.55086872 62.41392086 152.62989807 62.39440918 C154.3767381 62.38881611 154.3767381 62.38881611 156.15886784 62.38311005 C158.98511392 62.22238637 158.98511392 62.22238637 160.87287807 60.69446564 C162.79668212 57.80230307 162.44690912 54.51583315 162.43359375 51.15625 C162.4388356 50.39074829 162.44407745 49.62524658 162.44947815 48.83654785 C162.45589682 47.21933199 162.4545633 45.60206944 162.44604492 43.98486328 C162.43752956 41.50859653 162.46630278 39.03463281 162.49804688 36.55859375 C162.49965886 34.98697986 162.49908141 33.41536188 162.49609375 31.84375 C162.51294472 30.73271912 162.51294472 30.73271912 162.53013611 29.59924316 C162.51992581 25.55639798 162.51992581 25.55639798 160.36912441 22.30553436 C157.2862407 20.60667439 155.10891209 20.61701688 151.59230042 20.60559082 C150.27300537 20.59424103 148.95371033 20.58289124 147.59443665 20.57119751 C146.13400208 20.5738408 144.67356807 20.57681202 143.21313477 20.58007812 C141.67387271 20.57273811 140.13461617 20.56415208 138.59536743 20.55441284 C134.41560113 20.53218138 130.23603188 20.52926694 126.05621457 20.53116035 C122.56706645 20.53127998 119.07796021 20.52271932 115.58882374 20.51438284 C107.35760868 20.49514307 99.12649505 20.4922671 90.89526367 20.49902344 C82.402949 20.50566576 73.9110685 20.48279368 65.4188419 20.44570971 C58.12784747 20.41502623 50.83699281 20.40365117 43.54593509 20.40754652 C39.19120678 20.40961535 34.83681633 20.40411437 30.48214912 20.37965393 C26.38699541 20.35741128 22.29254829 20.35924331 18.19739151 20.37958145 C16.69496679 20.38299591 15.19249473 20.3778835 13.69013405 20.36359787 C11.63749189 20.34542733 9.58725267 20.35813207 7.53468323 20.37854004 C6.38671548 20.37782753 5.23874773 20.37711502 4.05599308 20.37638092 C0.03135154 21.19766657 -1.46988024 22.83052353 -4 26 Z " fill="#2D3B47" transform="translate(45,180)"/>
<path d="M0 0 C0.92717331 -0.00043808 1.85434662 -0.00087616 2.80961609 -0.00132751 C5.8723155 0.00076146 8.9344666 0.02409789 11.99707031 0.04760742 C14.12127381 0.05320298 16.24548119 0.05747327 18.36968994 0.06047058 C23.95931699 0.07192245 29.54871001 0.10139276 35.13824463 0.13458252 C40.8424564 0.16527592 46.546706 0.17897437 52.25097656 0.1940918 C63.44248561 0.22626197 74.633821 0.27746261 85.82519531 0.34057617 C85.82519531 0.67057617 85.82519531 1.00057617 85.82519531 1.34057617 C84.14389778 1.35603737 84.14389778 1.35603737 82.42863464 1.37181091 C71.87803822 1.46946438 61.32750183 1.57219082 50.77700329 1.67991543 C45.35257702 1.73513698 39.92814536 1.78855583 34.50366211 1.83789062 C29.27112893 1.8855454 24.03866194 1.93788873 18.80620766 1.99351692 C16.80749466 2.01393541 14.80876352 2.03264933 12.81001854 2.04965019 C10.01577556 2.07370531 7.22165785 2.1037585 4.42749023 2.13525391 C3.18131927 2.1438871 3.18131927 2.1438871 1.90997314 2.1526947 C-1.36594391 2.19481113 -4.04571588 2.29754657 -7.17480469 3.34057617 C-7.11292969 4.08307617 -7.05105469 4.82557617 -6.98730469 5.59057617 C-7.17480469 8.34057617 -7.17480469 8.34057617 -8.66325378 9.97167969 C-10.90168403 13.47973854 -10.58464775 16.96252526 -10.54711914 20.99291992 C-10.55076981 21.86490021 -10.55442047 22.73688049 -10.55818176 23.63528442 C-10.56628487 26.51641338 -10.55267909 29.39697951 -10.53808594 32.27807617 C-10.5375673 34.28059895 -10.53808514 36.28312225 -10.53959656 38.28564453 C-10.53950684 42.48209231 -10.52907924 46.67834794 -10.51098633 50.87475586 C-10.4882993 56.25514287 -10.4877552 61.6352491 -10.49450397 67.01567078 C-10.49784469 71.15061948 -10.49121191 75.28550412 -10.48137474 79.42044067 C-10.47752423 81.40438502 -10.47637391 83.38833649 -10.47796059 85.37228394 C-10.47833124 88.14440502 -10.46571079 90.91616549 -10.44946289 93.68823242 C-10.45194031 94.50913361 -10.45441772 95.33003479 -10.45697021 96.17581177 C-10.42093077 100.02652566 -10.37031559 103.08086744 -8.17480469 106.34057617 C-9.86230469 107.52807617 -9.86230469 107.52807617 -12.17480469 108.34057617 C-14.78385925 107.26835632 -14.78385925 107.26835632 -17.17480469 105.34057617 C-17.77607727 102.62605286 -17.77607727 102.62605286 -17.74243164 99.30859375 C-17.74182739 98.05018677 -17.74122314 96.79177979 -17.74060059 95.49523926 C-17.71542298 94.15851604 -17.68959008 92.821805 -17.66308594 91.48510742 C-17.65805054 90.26932007 -17.65301514 89.05353271 -17.64782715 87.80090332 C-17.62163087 83.25138836 -17.55182411 78.70220904 -17.48730469 74.15307617 C-17.38417969 63.98495117 -17.28105469 53.81682617 -17.17480469 43.34057617 C-55.45480469 43.34057617 -93.73480469 43.34057617 -133.17480469 43.34057617 C-133.17480469 69.41057617 -133.17480469 95.48057617 -133.17480469 122.34057617 C-120.91775391 122.28836914 -120.91775391 122.28836914 -108.41308594 122.23510742 C-102.58286433 122.21783256 -96.75266193 122.20245332 -90.92243099 122.18981457 C-83.36758208 122.17318437 -75.81283244 122.15206464 -68.25805664 122.11425781 C-61.63802 122.08114457 -55.01806263 122.06372935 -48.39793968 122.05594444 C-45.8705393 122.05039558 -43.34314489 122.03956022 -40.81579018 122.023386 C-37.27948866 122.00165216 -33.74363281 121.99860763 -30.20727539 122 C-29.15926758 121.98921417 -28.11125977 121.97842834 -27.03149414 121.96731567 C-18.14678255 122.00524237 -18.14678255 122.00524237 -14.17480469 125.34057617 C-10.76376066 129.47552835 -10.72143014 133.55899177 -10.74121094 138.71166992 C-10.73596909 139.5116188 -10.73072723 140.31156769 -10.72532654 141.13575745 C-10.71892172 142.82258955 -10.72022338 144.5094664 -10.72875977 146.19628906 C-10.73726698 148.76668441 -10.70849445 151.33485339 -10.67675781 153.9050293 C-10.67514543 155.54890884 -10.67572404 157.1927923 -10.67871094 158.83666992 C-10.66747696 159.59934677 -10.65624298 160.36202362 -10.64466858 161.14781189 C-10.71147405 166.30495749 -11.77962973 169.24596938 -15.17480469 173.34057617 C-18.1502293 175.09531377 -19.55925435 175.42264955 -22.98730469 174.96557617 C-23.70917969 174.75932617 -24.43105469 174.55307617 -25.17480469 174.34057617 C-24.51480469 174.01057617 -23.85480469 173.68057617 -23.17480469 173.34057617 C-23.03042969 172.53620117 -22.88605469 171.73182617 -22.73730469 170.90307617 C-22.17480469 168.34057617 -22.17480469 168.34057617 -19.17480469 166.34057617 C-18.87051803 163.66897759 -18.75469057 161.23284803 -18.77636719 158.55932617 C-18.77349701 157.79003784 -18.77062683 157.02074951 -18.76766968 156.22814941 C-18.76562706 154.60074122 -18.77117077 152.97330858 -18.78369141 151.34594727 C-18.79974337 148.85011068 -18.78385058 146.35589344 -18.76464844 143.86010742 C-18.76663084 142.28067675 -18.77047444 140.70124709 -18.77636719 139.12182617 C-18.76725815 137.99834778 -18.76725815 137.99834778 -18.75796509 136.85217285 C-18.75473362 134.5254719 -18.75473362 134.5254719 -19.17480469 131.34057617 C-22.73316784 128.96833407 -24.24711031 129.08741747 -28.46897888 129.07987976 C-30.44802719 129.06925255 -30.44802719 129.06925255 -32.46705627 129.05841064 C-33.93270908 129.06070456 -35.39836156 129.06321427 -36.86401367 129.06591797 C-38.40474698 129.06157165 -39.94547813 129.05638877 -41.48620605 129.0504303 C-45.67420423 129.03702039 -49.86211228 129.03646383 -54.05012774 129.0389936 C-57.54428018 129.04006197 -61.03841428 129.03518338 -64.53256279 129.03038818 C-72.7747335 129.01928609 -81.01685863 129.01885951 -89.2590332 129.02490234 C-97.76657434 129.03094375 -106.27395016 129.01862853 -114.78146309 128.99733227 C-122.08174872 128.97972881 -129.38198167 128.97371293 -136.68228775 128.97697002 C-141.04417765 128.97878504 -145.40594964 128.97612501 -149.76782036 128.96225548 C-153.86937679 128.94970212 -157.97067512 128.95159744 -162.07222748 128.96466637 C-163.57829182 128.96703716 -165.08437418 128.96427949 -166.59041786 128.95604324 C-168.64512894 128.94561598 -170.6989675 128.95364283 -172.75364685 128.96635437 C-173.90383521 128.96618663 -175.05402357 128.96601889 -176.23906612 128.96584606 C-179.49958905 129.38203302 -180.89823633 129.99344111 -183.17480469 132.34057617 C-183.74580261 135.67967526 -183.74580261 135.67967526 -183.60058594 139.52807617 C-183.59565376 140.57644653 -183.59565376 140.57644653 -183.59062195 141.64599609 C-183.58020883 143.12208379 -183.56027149 144.59813072 -183.53149414 146.07397461 C-183.48746523 148.33234166 -183.47006428 150.58964575 -183.45800781 152.84838867 C-183.57936747 160.20247752 -183.57936747 160.20247752 -182.17480469 167.34057617 C-183.49480469 167.67057617 -184.81480469 168.00057617 -186.17480469 168.34057617 C-185.51480469 169.66057617 -184.85480469 170.98057617 -184.17480469 172.34057617 C-185.16480469 172.34057617 -186.15480469 172.34057617 -187.17480469 172.34057617 C-190.68018129 168.20071662 -190.62765471 163.89567886 -190.60839844 158.71557617 C-190.61364029 157.89105957 -190.61888214 157.06654297 -190.62428284 156.21704102 C-190.63068806 154.47893395 -190.62938549 152.74078345 -190.62084961 151.00268555 C-190.61233142 148.34890404 -190.64113265 145.69727071 -190.67285156 143.04370117 C-190.67446361 141.35099348 -190.67388598 139.65828199 -190.67089844 137.96557617 C-190.6877494 136.7810083 -190.6877494 136.7810083 -190.7049408 135.57250977 C-190.65793719 131.84330479 -190.42562641 129.77247912 -188.51879883 126.48901367 C-182.97386073 121.40668316 -178.01025766 120.91603994 -170.83886719 121.04760742 C-169.51983902 121.05397469 -169.51983902 121.05397469 -168.17416382 121.06047058 C-165.38239126 121.07718156 -162.59135681 121.11481925 -159.79980469 121.15307617 C-157.90007557 121.16813283 -156.00033508 121.18181952 -154.10058594 121.1940918 C-149.4583771 121.22706019 -144.81671578 121.27878964 -140.17480469 121.34057617 C-140.17924591 120.31771515 -140.18368713 119.29485413 -140.18826294 118.24099731 C-140.22874735 108.61727552 -140.25875936 98.99357092 -140.27842903 89.3697834 C-140.28888122 84.42169785 -140.30306652 79.47368085 -140.32568359 74.52563477 C-140.34736091 69.75350136 -140.35936249 64.98143404 -140.36455917 60.20925522 C-140.36826415 58.38552688 -140.37549869 56.56180229 -140.3862648 54.73810196 C-140.4007119 52.19031105 -140.4027855 49.64279575 -140.40185547 47.0949707 C-140.40904602 46.3354007 -140.41623657 45.57583069 -140.42364502 44.79324341 C-140.40290901 39.56868049 -140.40290901 39.56868049 -138.17480469 37.34057617 C-136.03900719 37.09448051 -136.03900719 37.09448051 -133.34066772 37.10006714 C-132.31980576 37.09731781 -131.29894379 37.09456848 -130.24714661 37.09173584 C-129.1228978 37.09892639 -127.99864899 37.10611694 -126.84033203 37.11352539 C-125.0696209 37.11308731 -125.0696209 37.11308731 -123.26313782 37.11264038 C-120.02155549 37.113797 -116.78014467 37.1238444 -113.53859663 37.1377883 C-110.15266124 37.15027003 -106.76672267 37.15146413 -103.38076782 37.15383911 C-96.9669701 37.16006142 -90.55324036 37.17648235 -84.1394726 37.19653809 C-76.83848643 37.21887378 -69.53749706 37.22988464 -62.23648524 37.23992896 C-47.21588714 37.26084796 -32.19535271 37.29603847 -17.17480469 37.34057617 C-17.19575195 36.52379395 -17.21669922 35.70701172 -17.23828125 34.86547852 C-17.32165598 31.14897063 -17.37353457 27.43265985 -17.42480469 23.71557617 C-17.45832031 22.43038086 -17.49183594 21.14518555 -17.52636719 19.82104492 C-17.6496429 7.9249384 -17.6496429 7.9249384 -13.17480469 3.34057617 C-12.34490021 2.42298775 -12.34490021 2.42298775 -11.49822998 1.48686218 C-7.77161448 -0.3517023 -4.09724145 -0.05056662 0 0 Z " fill="#2D3C47" transform="translate(225.1748046875,11.659423828125)"/>
<path d="M0 0 C4.35448425 1.77641094 7.98029598 4.37635517 11 8 C11 8.66 11 9.32 11 10 C11.99 10.33 12.98 10.66 14 11 C14 11.66 14 12.32 14 13 C14.74443359 12.34644531 14.74443359 12.34644531 15.50390625 11.6796875 C16.92521534 10.43368218 18.35131086 9.19312301 19.78125 7.95703125 C21.16466196 6.73680344 22.52408895 5.48812498 23.84375 4.19921875 C26.87920014 1.30864236 28.37136588 0.09754667 32.625 -0.5625 C37.44450903 0.2407515 39.84792999 1.87906702 43.3125 5.25 C45.52726399 8.85924502 45.57674903 10.81856952 45 15 C42.48149113 20.64145988 38.81311551 25.09971674 34 29 C33.34 29 32.68 29 32 29 C32 29.66 32 30.32 32 31 C32.99 31.33 33.98 31.66 35 32 C39.80394846 36.29826967 45.13958528 41.25543072 45.6875 48 C45.42399139 52.22437237 43.40264259 54.62034544 40.60546875 57.65234375 C38.19028365 59.67968891 35.89065936 60.01715147 32.8125 60.5 C27.30325349 59.77747587 24.8615471 56.77858417 21 53 C19.67569632 51.84374243 18.34298907 50.69700085 17 49.5625 C15.515 48.2940625 15.515 48.2940625 14 47 C13.731875 47.639375 13.46375 48.27875 13.1875 48.9375 C12 51 12 51 9 52 C8.7525 52.598125 8.505 53.19625 8.25 53.8125 C6.34486277 57.14649016 3.46310386 58.61896465 0 60 C-3.4017744 60.53712227 -5.66351436 60.77552951 -8.703125 59.01171875 C-12.81735611 55.78624145 -14.709591 53.226469 -15.375 48.125 C-14.48439813 40.70331774 -8.13850188 35.91400422 -3 31 C-4.45463835 27.60584384 -6.32275672 25.51975838 -9 23 C-12.60222245 19.60967299 -14.7254536 17.10485571 -15.375 12.125 C-14.80338506 7.36154216 -12.45951804 4.50984625 -9.1875 1.125 C-5.90963325 -0.56076004 -3.64379289 -0.43231441 0 0 Z " fill="#2D3B45" transform="translate(250,39)"/>
<path d="M0 0 C2.14313875 0.10362161 4.28937217 0.14645701 6.4349823 0.15821838 C7.41887978 0.16562535 7.41887978 0.16562535 8.42265397 0.17318195 C10.62445881 0.18856175 12.82623447 0.19691885 15.02807617 0.20532227 C16.60485593 0.21490041 18.18163311 0.22491046 19.75840759 0.23532104 C24.04320083 0.26238304 28.32800509 0.2833856 32.6128366 0.30332303 C37.08918635 0.32517459 41.56550205 0.35256734 46.04182434 0.37937927 C54.52028839 0.42931739 62.99877132 0.47425207 71.47727233 0.51740164 C81.12893405 0.56676445 90.78056161 0.62168612 100.4321903 0.67708123 C120.28809505 0.79091845 140.1440324 0.89775371 160 1 C159.01 2.32 158.02 3.64 157 5 C157.99 5.66 158.98 6.32 160 7 C159 8 159 8 155.18359375 8.09765625 C153.60153318 8.09098089 152.01948841 8.07901875 150.4375 8.0625 C149.63119141 8.05798828 148.82488281 8.05347656 147.99414062 8.04882812 C145.99606244 8.03700518 143.99802217 8.01906914 142 8 C142 9.98 142 11.96 142 14 C143.0621875 13.95359375 144.124375 13.9071875 145.21875 13.859375 C159.67785919 13.41334882 159.67785919 13.41334882 166 18 C168.0625 20.5 168.0625 20.5 169 23 C168.6875 25.3125 168.6875 25.3125 168 27 C166.02 27.495 166.02 27.495 164 28 C163.67 37.57 163.34 47.14 163 57 C162.67 57 162.34 57 162 57 C161.97812622 55.52406372 161.97812622 55.52406372 161.95581055 54.01831055 C161.89783002 50.36706226 161.82059815 46.71643089 161.73754883 43.06567383 C161.70429812 41.48569757 161.67626654 39.90560248 161.65356445 38.32543945 C161.62001984 36.05368421 161.56770773 33.78301797 161.51171875 31.51171875 C161.50213387 30.45219246 161.50213387 30.45219246 161.49235535 29.3712616 C161.40899921 26.58997414 161.28577917 24.47248823 159.828125 22.0625 C157.25356929 20.56617702 155.20713297 20.56363282 152.23828125 20.48828125 C151.12001953 20.45283203 150.00175781 20.41738281 148.84960938 20.38085938 C147.68236328 20.35830078 146.51511719 20.33574219 145.3125 20.3125 C144.13365234 20.27833984 142.95480469 20.24417969 141.74023438 20.20898438 C138.82691775 20.12642075 135.91390534 20.05729678 133 20 C132.67 18.68 132.34 17.36 132 16 C131.44616229 15.99853344 130.89232458 15.99706688 130.32170391 15.99555588 C116.85134382 15.95851911 103.38123912 15.89929297 89.91108227 15.81609726 C83.39700988 15.77653778 76.88307439 15.74439085 70.36889648 15.72900391 C64.08584608 15.71389319 57.80317184 15.67954705 51.52028847 15.63169098 C49.11967546 15.61681944 46.71900876 15.6089557 44.31834984 15.60811615 C40.96336833 15.60576213 37.60943974 15.57880797 34.25463867 15.54589844 C32.75599777 15.55344398 32.75599777 15.55344398 31.2270813 15.56114197 C30.31422867 15.54722916 29.40137604 15.53331635 28.46086121 15.51898193 C27.27036557 15.51345118 27.27036557 15.51345118 26.05581951 15.50780869 C23.25429373 14.81580284 22.6378237 13.28759218 21 11 C20.01 11 19.02 11 18 11 C17.67 12.32 17.34 13.64 17 15 C11.39 15 5.78 15 0 15 C0 14.67 0 14.34 0 14 C5.28 14 10.56 14 16 14 C16 12.02 16 10.04 16 8 C14.81921875 8.02320313 13.6384375 8.04640625 12.421875 8.0703125 C10.86458967 8.08907497 9.30729748 8.10727466 7.75 8.125 C6.97269531 8.14175781 6.19539063 8.15851563 5.39453125 8.17578125 C-2.16997664 8.24043516 -2.16997664 8.24043516 -5 6 C-5.75 2.875 -5.75 2.875 -6 0 C-3 -1 -3 -1 0 0 Z " fill="#303E49" transform="translate(45,180)"/>
<path d="M0 0 C5.72064068 3.20137603 10.27723347 7.76460019 12.6875 13.9375 C13.55617261 23.19958074 12.99918429 29.85169913 7.9375 37.625 C2.6029073 43.10777583 -3.45169983 45.10033156 -11 45.3125 C-18.52902879 45.25040492 -22.45798351 43.62972106 -27.796875 38.515625 C-33.20510517 32.59838493 -34.91315173 26.46932976 -34.65625 18.64453125 C-33.69478175 11.07296876 -29.1351401 5.61044683 -23.3125 0.9375 C-15.92084331 -3.46906456 -7.75612454 -3.53931587 0 0 Z " fill="#F8FAFA" transform="translate(55.3125,37.0625)"/>
<path d="M0 0 C4.35578088 1.34386037 6.35210371 3.71961306 9.31640625 7.06640625 C12.93494314 11.3705783 12.93494314 11.3705783 17.9453125 13.5703125 C20.73024644 12.88703767 21.45319961 12.16936917 23.12890625 9.87890625 C26.10894899 6.13474998 29.08299892 2.46343232 33.25390625 0.00390625 C38.34824587 0.09824587 38.34824587 0.09824587 40.25390625 2.00390625 C40.7265625 4.65625 40.7265625 4.65625 40.25390625 8.00390625 C38.35318926 10.50398217 36.04789703 12.50174096 33.69140625 14.56640625 C29.02478165 18.29006256 29.02478165 18.29006256 26.96875 23.5390625 C29.1106709 27.64712356 32.64726875 30.40294677 36.125 33.3671875 C37.74223958 34.85319522 39.07831824 36.1460074 40.25390625 38.00390625 C40.12109375 41.88671875 40.12109375 41.88671875 39.25390625 45.00390625 C36.56640625 45.81640625 36.56640625 45.81640625 33.25390625 46.00390625 C30.81640625 44.00390625 30.81640625 44.00390625 28.25390625 41.00390625 C27.12601725 39.73769124 25.97922254 38.48812354 24.81640625 37.25390625 C24.28144531 36.6609375 23.74648438 36.06796875 23.1953125 35.45703125 C20.39193716 33.35873019 18.77452382 32.88741523 15.25390625 33.00390625 C12.70066852 34.81538473 10.74007482 37.088695 8.69140625 39.44140625 C3.0182567 45.87097574 3.0182567 45.87097574 -0.53125 46.48828125 C-2.74609375 46.00390625 -2.74609375 46.00390625 -4.62109375 44.81640625 C-5.74609375 43.00390625 -5.74609375 43.00390625 -5.69140625 40.76953125 C-4.33989727 36.81552977 -1.78026557 34.72040003 1.25390625 31.94140625 C6.13975088 27.78978575 6.13975088 27.78978575 8.25390625 22.00390625 C4.73199304 17.13537917 0.47484786 12.87417287 -4.12109375 9.00390625 C-5.74609375 7.00390625 -5.74609375 7.00390625 -5.62109375 4.37890625 C-4.37546005 0.99790048 -3.68675777 0.00524432 0 0 Z " fill="#F6F8F9" transform="translate(247.74609375,45.99609375)"/>
<path d="M0 0 C0.92717331 -0.00043808 1.85434662 -0.00087616 2.80961609 -0.00132751 C5.8723155 0.00076146 8.9344666 0.02409789 11.99707031 0.04760742 C14.12127381 0.05320298 16.24548119 0.05747327 18.36968994 0.06047058 C23.95931699 0.07192245 29.54871001 0.10139276 35.13824463 0.13458252 C40.8424564 0.16527592 46.546706 0.17897437 52.25097656 0.1940918 C63.44248561 0.22626197 74.633821 0.27746261 85.82519531 0.34057617 C85.82519531 0.67057617 85.82519531 1.00057617 85.82519531 1.34057617 C84.14389778 1.35603737 84.14389778 1.35603737 82.42863464 1.37181091 C71.87803822 1.46946438 61.32750183 1.57219082 50.77700329 1.67991543 C45.35257702 1.73513698 39.92814536 1.78855583 34.50366211 1.83789062 C29.27112893 1.8855454 24.03866194 1.93788873 18.80620766 1.99351692 C16.80749466 2.01393541 14.80876352 2.03264933 12.81001854 2.04965019 C10.01577556 2.07370531 7.22165785 2.1037585 4.42749023 2.13525391 C3.18131927 2.1438871 3.18131927 2.1438871 1.90997314 2.1526947 C-1.36594391 2.19481113 -4.04571588 2.29754657 -7.17480469 3.34057617 C-7.11292969 4.08307617 -7.05105469 4.82557617 -6.98730469 5.59057617 C-7.17480469 8.34057617 -7.17480469 8.34057617 -8.66325378 9.97167969 C-10.90168403 13.47973854 -10.58464775 16.96252526 -10.54711914 20.99291992 C-10.55076981 21.86490021 -10.55442047 22.73688049 -10.55818176 23.63528442 C-10.56628487 26.51641338 -10.55267909 29.39697951 -10.53808594 32.27807617 C-10.5375673 34.28059895 -10.53808514 36.28312225 -10.53959656 38.28564453 C-10.53950684 42.48209231 -10.52907924 46.67834794 -10.51098633 50.87475586 C-10.4882993 56.25514287 -10.4877552 61.6352491 -10.49450397 67.01567078 C-10.49784469 71.15061948 -10.49121191 75.28550412 -10.48137474 79.42044067 C-10.47752423 81.40438502 -10.47637391 83.38833649 -10.47796059 85.37228394 C-10.47833124 88.14440502 -10.46571079 90.91616549 -10.44946289 93.68823242 C-10.45194031 94.50913361 -10.45441772 95.33003479 -10.45697021 96.17581177 C-10.42093077 100.02652566 -10.37031559 103.08086744 -8.17480469 106.34057617 C-9.86230469 107.52807617 -9.86230469 107.52807617 -12.17480469 108.34057617 C-14.78385925 107.26835632 -14.78385925 107.26835632 -17.17480469 105.34057617 C-17.77607727 102.62605286 -17.77607727 102.62605286 -17.74243164 99.30859375 C-17.74182739 98.05018677 -17.74122314 96.79177979 -17.74060059 95.49523926 C-17.71542298 94.15851604 -17.68959008 92.821805 -17.66308594 91.48510742 C-17.65805054 90.26932007 -17.65301514 89.05353271 -17.64782715 87.80090332 C-17.62163087 83.25138836 -17.55182411 78.70220904 -17.48730469 74.15307617 C-17.33261719 58.90088867 -17.33261719 58.90088867 -17.17480469 43.34057617 C-55.45480469 43.34057617 -93.73480469 43.34057617 -133.17480469 43.34057617 C-133.17480469 69.08057617 -133.17480469 94.82057617 -133.17480469 121.34057617 C-133.50480469 121.34057617 -133.83480469 121.34057617 -134.17480469 121.34057617 C-134.17480469 95.27057617 -134.17480469 69.20057617 -134.17480469 42.34057617 C-77.24980469 41.84557617 -77.24980469 41.84557617 -19.17480469 41.34057617 C-19.17480469 40.68057617 -19.17480469 40.02057617 -19.17480469 39.34057617 C-58.11480469 39.01057617 -97.05480469 38.68057617 -137.17480469 38.34057617 C-137.17480469 38.01057617 -137.17480469 37.68057617 -137.17480469 37.34057617 C-97.57480469 37.34057617 -57.97480469 37.34057617 -17.17480469 37.34057617 C-17.17480469 28.10057617 -17.17480469 18.86057617 -17.17480469 9.34057617 C-11.55628826 0.91280154 -9.57708908 -0.11819684 0 0 Z " fill="#202F3A" transform="translate(225.1748046875,11.659423828125)"/>
<path d="M0 0 C4.62402962 2.56186725 8.02940687 6.06404318 10 11 C10.83752853 16.88445371 9.99059405 21.81630365 7 27 C2.79967864 31.42984712 -1.13464065 33.15577312 -7.1875 33.4375 C-12.45357324 33.38170055 -15.45752165 32.22466856 -19.40625 28.76953125 C-23.28312201 24.46506306 -24.5931405 19.65047707 -24.3515625 13.984375 C-23.50402991 9.20052437 -20.95384925 5.86300647 -17.375 2.625 C-11.99469771 -1.05625946 -6.35868283 -0.92004279 0 0 Z " fill="#2D3B46" transform="translate(306,273)"/>
<path d="M0 0 C5.72064068 3.20137603 10.27723347 7.76460019 12.6875 13.9375 C13.55617261 23.19958074 12.99918429 29.85169913 7.9375 37.625 C2.6029073 43.10777583 -3.45169983 45.10033156 -11 45.3125 C-18.52902879 45.25040492 -22.45798351 43.62972106 -27.796875 38.515625 C-33.20510517 32.59838493 -34.91315173 26.46932976 -34.65625 18.64453125 C-33.69478175 11.07296876 -29.1351401 5.61044683 -23.3125 0.9375 C-15.92084331 -3.46906456 -7.75612454 -3.53931587 0 0 Z M-25.25 12 C-28.27575036 16.64883499 -28.17733236 21.59493745 -27.3125 26.9375 C-24.95715564 31.82936906 -21.5951542 34.74828942 -17.3125 37.9375 C-12.20925799 39.63858067 -7.99376566 39.50271247 -3.125 37.25 C1.24134059 34.85146861 3.62303612 31.95998138 5.9375 27.5625 C7.23577939 23.01852214 7.17469059 19.34175524 5.625 14.875 C2.85261765 10.67171062 -0.77708236 7.20520882 -5.3125 4.9375 C-13.7929424 3.99178339 -19.62530197 5.46403804 -25.25 12 Z " fill="#2A3944" transform="translate(55.3125,37.0625)"/>
<path d="M0 0 C0.33 0 0.66 0 1 0 C1.33 2.31 1.66 4.62 2 7 C38.63 7.33 75.26 7.66 113 8 C112.01 8.33 111.02 8.66 110 9 C110.33 10.32 110.66 11.64 111 13 C119.58 13 128.16 13 137 13 C137 13.33 137 13.66 137 14 C84.53 14 32.06 14 -22 14 C-22 13.67 -22 13.34 -22 13 C-20.73542969 12.92652344 -20.73542969 12.92652344 -19.4453125 12.8515625 C-18.34960938 12.77679688 -17.25390625 12.70203125 -16.125 12.625 C-14.48917969 12.52058594 -14.48917969 12.52058594 -12.8203125 12.4140625 C-9.86953526 12.26746509 -9.86953526 12.26746509 -8 10 C-14.93 9.505 -14.93 9.505 -22 9 C-22 8.67 -22 8.34 -22 8 C-16.39 8 -10.78 8 -5 8 C-5 6.02 -5 4.04 -5 2 C-4.67 2.66 -4.34 3.32 -4 4 C-3.01 3.67 -2.02 3.34 -1 3 C-0.67 2.01 -0.34 1.02 0 0 Z " fill="#22313C" transform="translate(67,187)"/>
<path d="M0 0 C36.63 0 73.26 0 111 0 C111 1.98 111 3.96 111 6 C74.37 6 37.74 6 0 6 C0 4.02 0 2.04 0 0 Z " fill="#FCFEFE" transform="translate(69,249)"/>
<path d="M0 0 C36.63 0 73.26 0 111 0 C111 1.98 111 3.96 111 6 C74.37 6 37.74 6 0 6 C0 4.02 0 2.04 0 0 Z " fill="#FCFEFD" transform="translate(69,188)"/>
<path d="M0 0 C12.02200339 -0.09271225 24.04392161 -0.16377146 36.06620979 -0.20724869 C41.64876058 -0.22811644 47.23106663 -0.25641969 52.81347656 -0.30175781 C58.20161212 -0.34524388 63.58951239 -0.36914322 68.97780991 -0.37950897 C71.03271056 -0.38689533 73.08759845 -0.40131919 75.14239883 -0.42292023 C78.02246094 -0.45199056 80.90155288 -0.45595444 83.78173828 -0.45410156 C85.05380882 -0.47567322 85.05380882 -0.47567322 86.35157776 -0.49768066 C91.71650109 -0.46037514 94.73286585 0.45294634 99 4 C100.875 6.25 100.875 6.25 102 8 C101.34 8.66 100.68 9.32 100 10 C98.98758315 11.32392972 97.98560611 12.65599167 97 14 C96.7525 13.195625 96.505 12.39125 96.25 11.5625 C95.30571457 8.86915443 95.30571457 8.86915443 93.17260361 8.34735966 C91.06687951 8.01069281 89.11925444 7.87686587 86.98834229 7.87974548 C86.2003273 7.87837082 85.41231232 7.87699615 84.60041809 7.87557983 C83.31756172 7.88097275 83.31756172 7.88097275 82.00878906 7.88647461 C81.10112289 7.88632858 80.19345673 7.88618256 79.25828552 7.8860321 C76.26070763 7.88672829 73.26319202 7.89450698 70.265625 7.90234375 C68.1862593 7.90420897 66.10689315 7.90563238 64.02752686 7.90663147 C58.55636378 7.91044843 53.08522728 7.92027174 47.61407471 7.93133545 C42.03048054 7.94156719 36.44688209 7.94613287 30.86328125 7.95117188 C19.9088425 7.96189472 8.95442346 7.97896132 -2 8 C-1.6875 6.125 -1.6875 6.125 -1 4 C-0.01 3.34 0.98 2.68 2 2 C1.34 1.34 0.68 0.68 0 0 Z " fill="#32414C" transform="translate(219,11)"/>
<path d="M0 0 C0.71884369 -0.00350464 1.43768738 -0.00700928 2.17831421 -0.01062012 C4.56037991 -0.01944059 6.9421499 -0.0135873 9.32421875 -0.00683594 C10.9756679 -0.0081825 12.62711666 -0.01012296 14.27856445 -0.01263428 C17.74206308 -0.01558596 21.20545865 -0.01128651 24.66894531 -0.00195312 C29.11467186 0.00944148 33.56015695 0.00288224 38.00587463 -0.00909805 C41.41672596 -0.01631548 44.82751977 -0.01402928 48.2383728 -0.00884247 C49.87787911 -0.00750564 51.5173906 -0.00915483 53.15689087 -0.01380157 C55.44588101 -0.01886494 57.73447683 -0.01115956 60.0234375 0 C61.97963013 0.00238678 61.97963013 0.00238678 63.9753418 0.00482178 C67.01171875 0.25878906 67.01171875 0.25878906 69.01171875 2.25878906 C68.47600446 5.79450335 68.47600446 5.79450335 67.01171875 7.25878906 C64.66918093 7.35371628 62.35625771 7.38438697 60.01342773 7.37231445 C58.91593201 7.37253349 58.91593201 7.37253349 57.79626465 7.37275696 C55.36675091 7.37205773 52.93731292 7.36426491 50.5078125 7.35644531 C48.82772361 7.35458117 47.14763418 7.35315725 45.46754456 7.35215759 C41.03698232 7.34833214 36.60645265 7.33850162 32.17590332 7.32745361 C27.65828899 7.31724009 23.14066941 7.3126601 18.62304688 7.30761719 C9.75258982 7.29687937 0.88215699 7.27980262 -7.98828125 7.25878906 C-8.61328125 4.88378906 -8.61328125 4.88378906 -8.98828125 2.25878906 C-6.10148036 -0.62801183 -4.04173892 0.00493139 0 0 Z " fill="#2E3C47" transform="translate(63.98828125,278.7412109375)"/>
<path d="M0 0 C0.71884369 -0.00350464 1.43768738 -0.00700928 2.17831421 -0.01062012 C4.56037991 -0.01944059 6.9421499 -0.0135873 9.32421875 -0.00683594 C10.9756679 -0.0081825 12.62711666 -0.01012296 14.27856445 -0.01263428 C17.74206308 -0.01558596 21.20545865 -0.01128651 24.66894531 -0.00195312 C29.11467186 0.00944148 33.56015695 0.00288224 38.00587463 -0.00909805 C41.41672596 -0.01631548 44.82751977 -0.01402928 48.2383728 -0.00884247 C49.87787911 -0.00750564 51.5173906 -0.00915483 53.15689087 -0.01380157 C55.44588101 -0.01886494 57.73447683 -0.01115956 60.0234375 0 C61.97963013 0.00238678 61.97963013 0.00238678 63.9753418 0.00482178 C67.01171875 0.25878906 67.01171875 0.25878906 69.01171875 2.25878906 C68.47600446 5.79450335 68.47600446 5.79450335 67.01171875 7.25878906 C64.66918093 7.35371628 62.35625771 7.38438697 60.01342773 7.37231445 C58.91593201 7.37253349 58.91593201 7.37253349 57.79626465 7.37275696 C55.36675091 7.37205773 52.93731292 7.36426491 50.5078125 7.35644531 C48.82772361 7.35458117 47.14763418 7.35315725 45.46754456 7.35215759 C41.03698232 7.34833214 36.60645265 7.33850162 32.17590332 7.32745361 C27.65828899 7.31724009 23.14066941 7.3126601 18.62304688 7.30761719 C9.75258982 7.29687937 0.88215699 7.27980262 -7.98828125 7.25878906 C-8.61328125 4.88378906 -8.61328125 4.88378906 -8.98828125 2.25878906 C-6.10148036 -0.62801183 -4.04173892 0.00493139 0 0 Z " fill="#2D3B45" transform="translate(63.98828125,217.7412109375)"/>
<path d="M0 0 C0.71884369 -0.00350464 1.43768738 -0.00700928 2.17831421 -0.01062012 C4.56037991 -0.01944059 6.9421499 -0.0135873 9.32421875 -0.00683594 C10.9756679 -0.0081825 12.62711666 -0.01012296 14.27856445 -0.01263428 C17.74206308 -0.01558596 21.20545865 -0.01128651 24.66894531 -0.00195312 C29.11467186 0.00944148 33.56015695 0.00288224 38.00587463 -0.00909805 C41.41672596 -0.01631548 44.82751977 -0.01402928 48.2383728 -0.00884247 C49.87787911 -0.00750564 51.5173906 -0.00915483 53.15689087 -0.01380157 C55.44588101 -0.01886494 57.73447683 -0.01115956 60.0234375 0 C61.97963013 0.00238678 61.97963013 0.00238678 63.9753418 0.00482178 C67.01171875 0.25878906 67.01171875 0.25878906 69.01171875 2.25878906 C68.47600446 5.79450335 68.47600446 5.79450335 67.01171875 7.25878906 C64.66918093 7.35371628 62.35625771 7.38438697 60.01342773 7.37231445 C58.91593201 7.37253349 58.91593201 7.37253349 57.79626465 7.37275696 C55.36675091 7.37205773 52.93731292 7.36426491 50.5078125 7.35644531 C48.82772361 7.35458117 47.14763418 7.35315725 45.46754456 7.35215759 C41.03698232 7.34833214 36.60645265 7.33850162 32.17590332 7.32745361 C27.65828899 7.31724009 23.14066941 7.3126601 18.62304688 7.30761719 C9.75258982 7.29687937 0.88215699 7.27980262 -7.98828125 7.25878906 C-8.61328125 4.88378906 -8.61328125 4.88378906 -8.98828125 2.25878906 C-6.10148036 -0.62801183 -4.04173892 0.00493139 0 0 Z " fill="#2E3B47" transform="translate(63.98828125,156.7412109375)"/>
<path d="M0 0 C1.29099861 0.00022659 1.29099861 0.00022659 2.608078 0.00045776 C3.99571098 0.01594162 3.99571098 0.01594162 5.41137695 0.03173828 C6.36156204 0.03456818 7.31174713 0.03739807 8.29072571 0.04031372 C11.32716435 0.05151363 14.36330863 0.0766179 17.3996582 0.10205078 C19.45759665 0.11208082 21.51553972 0.12120663 23.57348633 0.12939453 C28.6198238 0.15145236 33.66594108 0.18598096 38.7121582 0.22705078 C38.7121582 0.55705078 38.7121582 0.88705078 38.7121582 1.22705078 C37.61226562 1.25210693 36.51237305 1.27716309 35.37915039 1.30297852 C31.29391055 1.39723285 27.20883359 1.49740944 23.1237793 1.59936523 C21.35656548 1.64264592 19.58931171 1.68432583 17.82202148 1.72436523 C15.2800696 1.78223429 12.73831761 1.8458806 10.1965332 1.91064453 C9.01350616 1.93571327 9.01350616 1.93571327 7.80657959 1.96128845 C4.29256271 2.05594219 1.09696189 2.28978602 -2.2878418 3.22705078 C1.03552149 4.33483854 3.53125073 4.36570493 7.0332489 4.38526917 C7.99877039 4.39267613 7.99877039 4.39267613 8.98379737 4.40023273 C11.14414355 4.41561062 13.30446001 4.42396911 15.46484375 4.43237305 C17.01206728 4.44195135 18.55928819 4.4519614 20.10650635 4.46237183 C24.31072333 4.48943219 28.51495155 4.51043563 32.71920753 4.53037381 C37.11147601 4.55222637 41.50370981 4.57961863 45.89595032 4.60643005 C54.21504216 4.65636681 62.53415324 4.701302 70.85328275 4.74445242 C80.32356986 4.79381639 89.79382218 4.84873763 99.26407564 4.90413201 C118.74673752 5.01796715 138.22943224 5.12480286 157.7121582 5.22705078 C157.7121582 5.55705078 157.7121582 5.88705078 157.7121582 6.22705078 C156.90155567 6.22943913 156.09095314 6.23182749 155.2557869 6.23428822 C135.54293289 6.29339338 115.83020161 6.36891461 96.11748123 6.46276569 C86.58459833 6.50775423 77.05175304 6.5471618 67.51879883 6.57348633 C59.21103463 6.59644168 50.90338917 6.62981202 42.5957191 6.67575234 C38.19580614 6.69971788 33.79601101 6.71842478 29.39603424 6.72466469 C25.25589078 6.73070054 21.11604894 6.75064569 16.976017 6.78132629 C15.45546435 6.79013067 13.93487231 6.79382415 12.4142952 6.79205894 C10.33966884 6.79041076 8.26596698 6.8070646 6.19146729 6.82832336 C4.44927855 6.83523681 4.44927855 6.83523681 2.67189407 6.84228992 C-0.59797361 7.26736741 -2.00570978 7.87106705 -4.2878418 10.22705078 C-4.85883971 13.56614987 -4.85883971 13.56614987 -4.71362305 17.41455078 C-4.70869087 18.46292114 -4.70869087 18.46292114 -4.70365906 19.5324707 C-4.69324594 21.0085584 -4.6733086 22.48460533 -4.64453125 23.96044922 C-4.60050234 26.21881627 -4.58310139 28.47612036 -4.57104492 30.73486328 C-4.69240458 38.08895213 -4.69240458 38.08895213 -3.2878418 45.22705078 C-5.2678418 45.72205078 -5.2678418 45.72205078 -7.2878418 46.22705078 C-6.6278418 47.54705078 -5.9678418 48.86705078 -5.2878418 50.22705078 C-6.2778418 50.22705078 -7.2678418 50.22705078 -8.2878418 50.22705078 C-11.7932184 46.08719122 -11.74069182 41.78215347 -11.72143555 36.60205078 C-11.7266774 35.77753418 -11.73191925 34.95301758 -11.73731995 34.10351562 C-11.74372517 32.36540856 -11.7424226 30.62725806 -11.73388672 28.88916016 C-11.72536853 26.23537865 -11.75416976 23.58374532 -11.78588867 20.93017578 C-11.78750072 19.23746809 -11.78692309 17.5447566 -11.78393555 15.85205078 C-11.79516953 15.06233887 -11.8064035 14.27262695 -11.81797791 13.45898438 C-11.7691476 9.58485147 -11.56521735 7.66550326 -9.44433594 4.31298828 C-6.28701708 1.25897126 -4.34063115 -0.02545825 0 0 Z " fill="#24323D" transform="translate(46.287841796875,133.77294921875)"/>
<path d="M0 0 C37.29 0 74.58 0 113 0 C113 1.32 113 2.64 113 4 C76.04 4 39.08 4 1 4 C0.67 2.68 0.34 1.36 0 0 Z " fill="#263642" transform="translate(93,50)"/>
<path d="M0 0 C1.65 0 3.3 0 5 0 C5.2165625 1.175625 5.2165625 1.175625 5.4375 2.375 C5.87798925 4.96421018 5.87798925 4.96421018 7 7 C8.31355469 6.96519531 9.62710938 6.93039063 10.98046875 6.89453125 C12.71613301 6.86638534 14.45181115 6.83908604 16.1875 6.8125 C17.48397461 6.77479492 17.48397461 6.77479492 18.80664062 6.73632812 C23.70536699 6.68002093 27.04473491 6.76177127 31 10 C32.875 12.4375 32.875 12.4375 34 15 C33.6875 17.3125 33.6875 17.3125 33 19 C31.02 19.495 31.02 19.495 29 20 C28.67 29.57 28.34 39.14 28 49 C27.67 49 27.34 49 27 49 C26.97812622 47.52406372 26.97812622 47.52406372 26.95581055 46.01831055 C26.89783002 42.36706226 26.82059815 38.71643089 26.73754883 35.06567383 C26.70429812 33.48569757 26.67626654 31.90560248 26.65356445 30.32543945 C26.62001984 28.05368421 26.56770773 25.78301797 26.51171875 23.51171875 C26.50213387 22.45219246 26.50213387 22.45219246 26.49235535 21.3712616 C26.40899921 18.58997414 26.28577917 16.47248823 24.828125 14.0625 C22.25356929 12.56617702 20.20713297 12.56363282 17.23828125 12.48828125 C16.12001953 12.45283203 15.00175781 12.41738281 13.84960938 12.38085938 C12.68236328 12.35830078 11.51511719 12.33574219 10.3125 12.3125 C9.13365234 12.27833984 7.95480469 12.24417969 6.74023438 12.20898438 C3.82691775 12.12642075 0.91390534 12.05729678 -2 12 C-2.495 10.02 -2.495 10.02 -3 8 C-38.64 7.67 -74.28 7.34 -111 7 C-111 6.67 -111 6.34 -111 6 C-74.37 6 -37.74 6 0 6 C0 4.02 0 2.04 0 0 Z " fill="#4D5964" transform="translate(180,188)"/>
<path d="M0 0 C2.70567626 1.82339052 4.53728718 3.07457436 6 6 C6.04053539 10.19946671 5.67640997 13.87265006 3.5 17.5 C-0.19326544 19.71595926 -3.7083642 20.34424886 -8 20 C-10.92143417 18.23496686 -12.47923817 17.04152365 -14 14 C-14.42071592 10.94079426 -14.48514117 8.0532254 -14 5 C-9.54542867 -0.62682695 -6.93538616 -1.52813593 0 0 Z " fill="#2D3C47" transform="translate(161,212)"/>
<path d="M0 0 C2.87029869 1.79393668 4.49131638 2.98263276 6 6 C6.67660495 11.86390959 6.67660495 11.86390959 4.953125 14.7578125 C3.16405507 16.93626824 1.54084375 18.72957812 -1 20 C-5.18144011 20.39447548 -7.30946048 20.45035186 -10.875 18.125 C-13.71941408 15.28058592 -14.20354172 13.6112568 -14.375 9.6875 C-14.31189983 6.13094468 -14.04355638 5.06884718 -12.0625 1.9375 C-7.95859581 -0.65884755 -4.73725096 -0.95259938 0 0 Z " fill="#2E3C47" transform="translate(161,273)"/>
<path d="M0 0 C2.87029869 1.79393668 4.49131638 2.98263276 6 6 C6.50533836 10.37959914 6.27875307 12.51443013 4.0625 16.375 C1.17978496 19.43018517 -1.73359447 20.03373571 -5.84375 20.24609375 C-9.14735835 19.86905149 -10.80313804 18.40281776 -13 16 C-14.74601232 12.50797535 -14.55838804 8.81017721 -14 5 C-10.48991881 -0.54819285 -6.12196123 -1.23104655 0 0 Z " fill="#2C3A45" transform="translate(161,151)"/>
<path d="M0 0 C2.87029869 1.79393668 4.49131638 2.98263276 6 6 C6.67660495 11.86390959 6.67660495 11.86390959 4.953125 14.7578125 C2.24604405 18.05408165 0.50661589 19.82879365 -3.75 20.3125 C-7.80901885 19.92220973 -9.83301684 18.50412622 -13 16 C-14.74601232 12.50797535 -14.55838804 8.81017721 -14 5 C-10.48991881 -0.54819285 -6.12196123 -1.23104655 0 0 Z " fill="#2E3B46" transform="translate(188,151)"/>
<path d="M0 0 C2.87029869 1.79393668 4.49131638 2.98263276 6 6 C6.67660495 11.86390959 6.67660495 11.86390959 4.953125 14.7578125 C3.16405507 16.93626824 1.54084375 18.72957812 -1 20 C-5.18144011 20.39447548 -7.30946048 20.45035186 -10.875 18.125 C-13.71941408 15.28058592 -14.20354172 13.6112568 -14.375 9.6875 C-14.31189983 6.13094468 -14.04355638 5.06884718 -12.0625 1.9375 C-7.95859581 -0.65884755 -4.73725096 -0.95259938 0 0 Z " fill="#2A3742" transform="translate(188,273)"/>
<path d="M0 0 C2.87029869 1.79393668 4.49131638 2.98263276 6 6 C6.5098625 10.4188083 6.29172207 12.50771901 4 16.375 C0.75529083 19.21412052 -0.88218448 19.94661953 -5.0703125 20.17578125 C-8.00568196 19.90838929 -9.75032456 18.85267389 -12 17 C-14.68990329 12.96514506 -14.77993882 9.73771348 -14 5 C-10.48991881 -0.54819285 -6.12196123 -1.23104655 0 0 Z " fill="#293742" transform="translate(188,212)"/>
<path d="M0 0 C3.4886665 1.89464654 6.39767907 4.07867247 7.6171875 7.96875 C7.85820622 11.65491862 7.12447655 14.43235769 5.0625 17.5 C1.46212166 20.43908436 -0.32574711 20.76995019 -4.84375 20.46875 C-8.01247216 19.77989736 -9.80517228 18.33200445 -12 16 C-13.57455739 12.85088521 -13.34799118 10.47991184 -13 7 C-9.74857565 1.54051882 -6.38094903 -0.84276685 0 0 Z " fill="#F7F9F9" transform="translate(302,279)"/>
<path d="M0 0 C0.99 0 1.98 0 3 0 C3.02467917 5.23274388 3.04285003 10.46545403 3.05493164 15.69824219 C3.05996711 17.47917267 3.06679581 19.260099 3.07543945 21.04101562 C3.08753942 23.59766665 3.09323609 26.15426312 3.09765625 28.7109375 C3.10281754 29.50994476 3.10797882 30.30895203 3.11329651 31.13217163 C3.11387171 36.77225659 3.11387171 36.77225659 2 39 C0.0625 39.6875 0.0625 39.6875 -2 40 C-2.66 39.67 -3.32 39.34 -4 39 C-3.67 26.79 -3.34 14.58 -3 2 C-2.01 2.33 -1.02 2.66 0 3 C0 2.01 0 1.02 0 0 Z " fill="#23333F" transform="translate(211,142)"/>
<path d="M0 0 C0.66 0 1.32 0 2 0 C3.57455739 3.14911479 3.34799118 5.52008816 3 9 C1.22719439 11.97672584 -0.85608015 14.42804007 -4 16 C-6.3329866 16.04022391 -8.66706666 16.04320247 -11 16 C-10.67 15.34 -10.34 14.68 -10 14 C-7.4375 13.375 -7.4375 13.375 -5 13 C-5.33 11.68 -5.66 10.36 -6 9 C-7.32 8.67 -8.64 8.34 -10 8 C-10.625 6.125 -10.625 6.125 -11 4 C-10.34 3.34 -9.68 2.68 -9 2 C-6.06546739 2.36681658 -5.13562754 2.86437246 -3 5 C-2.01 4.67 -1.02 4.34 0 4 C0 2.68 0 1.36 0 0 Z " fill="#313E48" transform="translate(191,277)"/>
<path d="M0 0 C3.19838638 0.64199076 4.99075811 2.05425385 7.16015625 4.43359375 C7.16015625 5.09359375 7.16015625 5.75359375 7.16015625 6.43359375 C5.18015625 6.43359375 3.20015625 6.43359375 1.16015625 6.43359375 C0.83015625 7.09359375 0.50015625 7.75359375 0.16015625 8.43359375 C-1.15984375 8.10359375 -2.47984375 7.77359375 -3.83984375 7.43359375 C-4.48953125 8.42359375 -4.48953125 8.42359375 -5.15234375 9.43359375 C-5.70921875 10.09359375 -6.26609375 10.75359375 -6.83984375 11.43359375 C-8.50651042 11.43359375 -10.17317708 11.43359375 -11.83984375 11.43359375 C-12.29275489 7.53855797 -12.12501776 5.85675519 -9.90234375 2.55859375 C-6.30448561 0.06212075 -4.28314278 -0.23596613 0 0 Z " fill="#2D3A45" transform="translate(158.83984375,272.56640625)"/>
<path d="M0 0 C5.27405053 0.41365102 8.17729898 1.28973136 12 5 C13.35439668 7.70879335 13.06501451 10.00933268 13 13 C12.01 13 11.02 13 10 13 C9.34 12.34 8.68 11.68 8 11 C7.4225 11.515625 6.845 12.03125 6.25 12.5625 C4 14 4 14 1.75 13.6875 C1.1725 13.460625 0.595 13.23375 0 13 C-0.6875 11.1875 -0.6875 11.1875 -1 9 C0.1875 7.25 0.1875 7.25 2 6 C3.32 6 4.64 6 6 6 C4.95125002 3.37812506 4.35068687 2.20628639 1.875 0.75 C0.946875 0.37875 0.946875 0.37875 0 0 Z " fill="#37434D" transform="translate(154,211)"/>
<path d="M0 0 C0.556875 0.226875 1.11375 0.45375 1.6875 0.6875 C0.875 2.625 0.875 2.625 -0.3125 4.6875 C-1.3025 5.0175 -2.2925 5.3475 -3.3125 5.6875 C-3.56 6.285625 -3.8075 6.88375 -4.0625 7.5 C-5.95697152 10.81532516 -8.84133972 12.35457445 -12.3125 13.6875 C-16.25 13.9375 -16.25 13.9375 -19.3125 13.6875 C-19.3125 13.0275 -19.3125 12.3675 -19.3125 11.6875 C-17.3325 11.6875 -15.3525 11.6875 -13.3125 11.6875 C-13.3125 11.0275 -13.3125 10.3675 -13.3125 9.6875 C-13.9725 9.3575 -14.6325 9.0275 -15.3125 8.6875 C-15.6425 8.0275 -15.9725 7.3675 -16.3125 6.6875 C-13.6725 6.3575 -11.0325 6.0275 -8.3125 5.6875 C-7.9825 4.6975 -7.6525 3.7075 -7.3125 2.6875 C-3.19128788 -0.43125512 -3.19128788 -0.43125512 0 0 Z " fill="#323F4A" transform="translate(262.3125,85.3125)"/>
<path d="M0 0 C0.66 0 1.32 0 2 0 C3.54586876 3.09173752 3.29359521 5.59429552 3 9 C1 11.4375 1 11.4375 -1 13 C-4.33333333 11 -7.66666667 9 -11 7 C-10.67 5.68 -10.34 4.36 -10 3 C-8.1875 2.3125 -8.1875 2.3125 -6 2 C-4.25 3.4375 -4.25 3.4375 -3 5 C-2.54625 4.175 -2.0925 3.35 -1.625 2.5 C-1.08875 1.675 -0.5525 0.85 0 0 Z " fill="#33414C" transform="translate(164,155)"/>
<path d="M0 0 C-0.1875 2.375 -0.1875 2.375 -1 5 C-2.64551962 5.71727778 -4.31422289 6.38325228 -6 7 C-7.30065921 8.93383287 -7.30065921 8.93383287 -8 11 C-8.33 11.66 -8.66 12.32 -9 13 C-10.32 13 -11.64 13 -13 13 C-13.47047439 8.20116121 -13.660275 5.03167969 -11 0.875 C-6.80764247 -1.74522346 -4.74535149 -1.04558592 0 0 Z " fill="#293843" transform="translate(187,152)"/>
<path d="M0 0 C2.75 0.25 2.75 0.25 5 1 C3.52278578 4.45201639 1.56205999 6.64961936 -1.125 9.25 C-1.84945312 9.95640625 -2.57390625 10.6628125 -3.3203125 11.390625 C-3.87460938 11.92171875 -4.42890625 12.4528125 -5 13 C-5.99 12.01 -6.98 11.02 -8 10 C-10.5654594 12.5654594 -10.54046087 14.47686668 -11 18 C-11.66 18 -12.32 18 -13 18 C-13.21293182 14.87700004 -13.35931979 12.67871516 -11.875 9.875 C-9.49213475 7.49213475 -6.81789314 5.84025674 -4 4 C-3.319375 3.236875 -2.63875 2.47375 -1.9375 1.6875 C-1.298125 1.130625 -0.65875 0.57375 0 0 Z " fill="#35434D" transform="translate(248,72)"/>
<path d="M0 0 C2 2 2 2 2 5 C1.236875 5.2475 0.47375 5.495 -0.3125 5.75 C-3.2364045 7.10995558 -4.30004356 8.31585826 -6 11 C-6.66 10.67 -7.32 10.34 -8 10 C-8.33 10.66 -8.66 11.32 -9 12 C-9.66 12 -10.32 12 -11 12 C-11.4247346 7.6677071 -11.47048413 5.65037512 -8.875 2.0625 C-5.54095495 -0.32931492 -4.01298073 -0.62424145 0 0 Z " fill="#283641" transform="translate(158,212)"/>
<path d="M0 0 C2.4375 0.8125 2.4375 0.8125 4.4375 2.8125 C4.80546448 5.68262296 4.81259409 7.22024618 3.25 9.6875 C1.4375 10.8125 1.4375 10.8125 -1.125 10.625 C-3.5625 9.8125 -3.5625 9.8125 -5.5625 7.8125 C-5.93046448 4.94237704 -5.93759409 3.40475382 -4.375 0.9375 C-2.5625 -0.1875 -2.5625 -0.1875 0 0 Z " fill="#39454E" transform="translate(240.5625,311.1875)"/>
<path d="M0 0 C0.33 0 0.66 0 1 0 C1 11.55 1 23.1 1 35 C2.32 35.33 3.64 35.66 5 36 C3.98059612 38.7801924 3.30279713 39.82814217 0.6875 41.3125 C-2.2923726 42.07479299 -4.0709637 41.83686751 -7 41 C-6.01 40.505 -6.01 40.505 -5 40 C-4.855625 39.195625 -4.71125 38.39125 -4.5625 37.5625 C-4 35 -4 35 -1 33 C-0.66197325 30.45420623 -0.5112053 28.13850914 -0.48828125 25.5859375 C-0.47033005 24.85629791 -0.45237885 24.12665833 -0.43388367 23.37490845 C-0.37964868 21.04166465 -0.34584438 18.70862686 -0.3125 16.375 C-0.27933838 14.79424208 -0.2448498 13.21351139 -0.20898438 11.6328125 C-0.12391533 7.75535674 -0.05716822 3.87796345 0 0 Z " fill="#515C65" transform="translate(207,145)"/>
<path d="M0 0 C5.56818182 0.56818182 5.56818182 0.56818182 7 2 C7.1875 4.9375 7.1875 4.9375 7 8 C5 10 5 10 2 10.3125 C1.01 10.209375 0.02 10.10625 -1 10 C-3 7 -3 7 -2.75 4.4375 C-2 2 -2 2 0 0 Z " fill="#303C46" transform="translate(285,235)"/>
<path d="M0 0 C2.4375 0.75 2.4375 0.75 4.4375 2.75 C3.86931818 8.31818182 3.86931818 8.31818182 2.4375 9.75 C-0.5 9.9375 -0.5 9.9375 -3.5625 9.75 C-5.5625 7.75 -5.5625 7.75 -5.875 4.75 C-5.771875 3.76 -5.66875 2.77 -5.5625 1.75 C-2.5625 -0.25 -2.5625 -0.25 0 0 Z " fill="#303C46" transform="translate(67.5625,96.25)"/>
<path d="M0 0 C2.5 0.25 2.5 0.25 4.5 2.25 C4.75 5.25 4.75 5.25 4.5 8.25 C2.5 10.25 2.5 10.25 0.0625 10.5625 C-2.5 10.25 -2.5 10.25 -4.375 9.0625 C-5.5 7.25 -5.5 7.25 -5.3125 4.6875 C-4.22827241 1.43481722 -3.47807945 0.34780795 0 0 Z " fill="#2E3B45" transform="translate(19.5,241.75)"/>
<path d="M0 0 C3 0.25 3 0.25 5 2.25 C5.36796448 5.12012296 5.37509409 6.65774618 3.8125 9.125 C2 10.25 2 10.25 -0.5625 10.0625 C-3 9.25 -3 9.25 -5 7.25 C-5.25 4.75 -5.25 4.75 -5 2.25 C-3 0.25 -3 0.25 0 0 Z " fill="#313E48" transform="translate(311,160.75)"/>
<path d="M0 0 C0.66 0 1.32 0 2 0 C2.43795233 4.37952326 2.27222479 6.54062066 0 10.375 C-3.88240981 13.77210858 -5.93977615 13.82846699 -11 14 C-11 13.34 -11 12.68 -11 12 C-10.01 12 -9.02 12 -8 12 C-8 10.68 -8 9.36 -8 8 C-7.01 7.67 -6.02 7.34 -5 7 C-4.484375 6.484375 -3.96875 5.96875 -3.4375 5.4375 C-2.963125 4.963125 -2.48875 4.48875 -2 4 C-1.34 4 -0.68 4 0 4 C0 2.68 0 1.36 0 0 Z " fill="#303D48" transform="translate(192,218)"/>
<path d="M0 0 C0.99386719 0.00902344 1.98773438 0.01804688 3.01171875 0.02734375 C4.15060547 0.04474609 4.15060547 0.04474609 5.3125 0.0625 C5.3125 0.7225 5.3125 1.3825 5.3125 2.0625 C-0.1325 2.5575 -0.1325 2.5575 -5.6875 3.0625 C-5.3575 4.7125 -5.0275 6.3625 -4.6875 8.0625 C-7 9.1875 -7 9.1875 -9.6875 10.0625 C-10.6775 9.4025 -11.6675 8.7425 -12.6875 8.0625 C-12.6875 6.7425 -12.6875 5.4225 -12.6875 4.0625 C-8.75768811 0.40370962 -5.2151482 -0.06135468 0 0 Z " fill="#37444E" transform="translate(44.6875,34.9375)"/>
<path d="M0 0 C0.680625 0.28875 1.36125 0.5775 2.0625 0.875 C0.68061547 4.08543882 -0.86171903 5.92436365 -3.5625 8.125 C-4.19414062 8.64578125 -4.82578125 9.1665625 -5.4765625 9.703125 C-5.95867187 10.08984375 -6.44078125 10.4765625 -6.9375 10.875 C-7.5975 10.545 -8.2575 10.215 -8.9375 9.875 C-9.5625 7.8125 -9.5625 7.8125 -9.9375 5.875 C-3.86310175 -0.16438731 -3.86310175 -0.16438731 0 0 Z " fill="#34414B" transform="translate(289.9375,57.125)"/>
<path d="M0 0 C1.875 0.1875 1.875 0.1875 4 1 C4.69040574 2.65697379 5.3530635 4.3255761 6 6 C8.52056045 8.77152212 8.52056045 8.77152212 11 11 C8.80926294 17.57221119 4.71682395 20.36202112 -1 24 C0.40844718 20.78475695 2.10344786 18.67816132 4.625 16.25 C5.57246094 15.32960938 5.57246094 15.32960938 6.5390625 14.390625 C7.26222656 13.70226562 7.26222656 13.70226562 8 13 C6.34824096 9.28755129 4.21937896 7.15001404 1.2421875 4.46484375 C0 3 0 3 0 0 Z " fill="#29353F" transform="translate(239,57)"/>
<path d="M0 0 C1.0828125 0.37125 1.0828125 0.37125 2.1875 0.75 C1.8575 1.41 1.5275 2.07 1.1875 2.75 C0.5275 2.75 -0.1325 2.75 -0.8125 2.75 C-0.750625 3.53375 -0.68875 4.3175 -0.625 5.125 C-0.686875 5.99125 -0.74875 6.8575 -0.8125 7.75 C-1.8025 8.41 -2.7925 9.07 -3.8125 9.75 C-4.4725 9.09 -5.1325 8.43 -5.8125 7.75 C-5.8125 6.76 -5.8125 5.77 -5.8125 4.75 C-6.4725 4.42 -7.1325 4.09 -7.8125 3.75 C-3.50480769 -0.31153846 -3.50480769 -0.31153846 0 0 Z " fill="#2E3C47" transform="translate(218.8125,12.25)"/>
<path d="M0 0 C0.99 0 1.98 0 3 0 C4.125 2.3125 4.125 2.3125 5 5 C4.01 6.485 4.01 6.485 3 8 C1.33333333 8 -0.33333333 8 -2 8 C-2.125 5.125 -2.125 5.125 -2 2 C-1.34 1.34 -0.68 0.68 0 0 Z " fill="#26343F" transform="translate(149,276)"/>
<path d="M0 0 C2.0625 0.4375 2.0625 0.4375 4 1 C4.33 2.65 4.66 4.3 5 6 C2.625 6.625 2.625 6.625 0 7 C-0.66 6.34 -1.32 5.68 -2 5 C-1.46428571 1.46428571 -1.46428571 1.46428571 0 0 Z " fill="#DEE4E8" transform="translate(182,279)"/>
<path d="M0 0 C2.0625 0.4375 2.0625 0.4375 4 1 C4.33 2.65 4.66 4.3 5 6 C2.625 6.625 2.625 6.625 0 7 C-0.66 6.34 -1.32 5.68 -2 5 C-1.46428571 1.46428571 -1.46428571 1.46428571 0 0 Z " fill="#DFE5E8" transform="translate(155,279)"/>
<path d="M0 0 C2.0625 0.4375 2.0625 0.4375 4 1 C4.33 2.65 4.66 4.3 5 6 C2.625 6.625 2.625 6.625 0 7 C-0.66 6.34 -1.32 5.68 -2 5 C-1.46428571 1.46428571 -1.46428571 1.46428571 0 0 Z " fill="#DFE5E8" transform="translate(182,218)"/>
<path d="M0 0 C2.125 0.375 2.125 0.375 4 1 C4.625 2.875 4.625 2.875 5 5 C4.34 5.66 3.68 6.32 3 7 C0.875 6.625 0.875 6.625 -1 6 C-1.625 4.125 -1.625 4.125 -2 2 C-1.34 1.34 -0.68 0.68 0 0 Z " fill="#E5EAED" transform="translate(155,218)"/>
<path d="M0 0 C1.32 0 2.64 0 4 0 C4.33 1.98 4.66 3.96 5 6 C3.34385343 6.38218767 1.67542976 6.71395102 0 7 C-1 6 -1 6 -1.125 3.5 C-1 1 -1 1 0 0 Z " fill="#E2E8EB" transform="translate(182,157)"/>
<path d="M0 0 C2.125 0.375 2.125 0.375 4 1 C4.625 2.875 4.625 2.875 5 5 C4.34 5.66 3.68 6.32 3 7 C0.875 6.625 0.875 6.625 -1 6 C-1.625 4.125 -1.625 4.125 -2 2 C-1.34 1.34 -0.68 0.68 0 0 Z " fill="#E5EAED" transform="translate(155,157)"/>
<path d="M0 0 C1.98 0 3.96 0 6 0 C6.33 0.66 6.66 1.32 7 2 C6.67 2.99 6.34 3.98 6 5 C2 5 2 5 -1 4 C-0.67 2.68 -0.34 1.36 0 0 Z " fill="#293641" transform="translate(308,161)"/>
<path d="M0 0 C1.4606285 2.64738916 2 3.89448334 2 7 C-0.5 8.6875 -0.5 8.6875 -3 10 C-3.66 8.68 -4.32 7.36 -5 6 C-4.34 5.34 -3.68 4.68 -3 4 C-1.98758315 2.67607028 -0.98560611 1.34400833 0 0 Z " fill="#3A4751" transform="translate(180,159)"/>
<path d="M0 0 C2.0625 0.4375 2.0625 0.4375 4 1 C3.25 2.9375 3.25 2.9375 2 5 C-0.125 5.75 -0.125 5.75 -2 6 C-1.125 1.125 -1.125 1.125 0 0 Z " fill="#27333E" transform="translate(237,312)"/>
<path d="M0 0 C0 0.99 0 1.98 0 3 C-2 5 -2 5 -5 6 C-5.66 5.34 -6.32 4.68 -7 4 C-6 2 -6 2 -2.9375 0.875 C-1.4834375 0.441875 -1.4834375 0.441875 0 0 Z " fill="#23323E" transform="translate(187,162)"/>
</svg>
